<svg version="1.1" id="Layer_1" xmlns="http://www.w3.org/2000/svg" xmlns:xlink="http://www.w3.org/1999/xlink" x="0px" y="0px"
	 width="100%" viewBox="0 0 225 225" enable-background="new 0 0 225 225" xml:space="preserve">
<path fill="#00B1C5" opacity="1.000000" stroke="none" 
	d="
M213.025818,226.000000 
	C142.021912,226.000000 71.522636,226.000000 1.017520,226.000000 
	C1.011680,151.008560 1.011680,76.017120 1.011680,1.012840 
	C75.990662,1.012840 150.981339,1.012840 225.985992,1.012840 
	C225.985992,75.989891 225.985992,150.979782 225.985992,226.000000 
	C221.843506,226.000000 217.686981,226.000000 213.025818,226.000000 
M66.727478,125.849930 
	C66.835976,124.611427 66.944481,123.372917 67.121986,121.346687 
	C71.461555,125.615440 75.524437,129.034073 78.855583,133.058395 
	C81.919304,136.759659 85.289932,137.749115 91.155029,136.140778 
	C84.728394,130.511459 78.917770,125.421722 72.901756,120.152069 
	C78.734322,114.702118 83.526558,110.224243 88.809341,105.288010 
	C77.308670,103.053650 74.681244,114.573334 66.559479,117.713615 
	C66.559479,105.985657 66.559479,94.566216 66.559479,82.876846 
	C64.508362,82.876846 62.927269,82.876846 61.092888,82.876846 
	C61.092888,100.889877 61.092888,118.671883 61.092888,136.559494 
	C62.947891,136.559494 64.654144,136.559494 66.727081,136.559494 
	C66.727081,133.044571 66.727081,129.898575 66.727478,125.849930 
M45.014393,136.805054 
	C46.445263,136.805054 47.876137,136.805054 49.415421,136.805054 
	C49.415421,125.979340 49.415421,115.619484 49.415421,103.676384 
	C46.538712,105.294579 44.611893,106.378448 42.304104,107.676620 
	C35.098026,102.228531 27.591421,102.007133 21.850115,107.733086 
	C16.001343,113.566216 15.241288,125.817390 20.808159,132.584198 
	C22.684593,134.865112 25.655735,136.734253 28.493486,137.632828 
	C34.241291,139.452911 39.353642,137.299393 43.696777,132.815125 
	C43.980019,134.466400 44.146881,135.439194 45.014393,136.805054 
M185.537735,137.394943 
	C191.622070,139.125000 197.034271,138.151688 201.850037,132.580338 
	C201.838928,138.175964 204.708176,137.210129 207.665405,136.486176 
	C207.665405,125.872467 207.665405,115.606354 207.665405,105.423180 
	C204.363190,104.407524 201.676697,104.181969 201.547318,108.981506 
	C197.726822,104.617653 193.455399,102.931007 188.266754,103.753517 
	C181.707916,104.793236 177.254333,109.176796 176.013992,115.841652 
	C174.137772,125.923447 176.962418,132.745285 185.537735,137.394943 
M149.888092,104.268196 
	C147.780594,105.467438 145.673111,106.666672 143.565613,107.865913 
	C143.665131,107.412735 143.764648,106.959557 143.864182,106.506386 
	C141.932114,105.903900 140.000046,105.301422 137.690109,104.581108 
	C137.690109,115.950905 137.690109,126.221657 137.690109,136.659973 
	C139.545593,136.659973 141.110992,136.659973 143.070190,136.659973 
	C143.070190,131.097580 142.822830,125.777946 143.168640,120.497154 
	C143.357635,117.610786 143.940186,114.407990 145.431061,112.028061 
	C147.754257,108.319450 151.946045,108.260033 155.803711,109.171761 
	C159.708069,110.094536 160.715317,113.443787 160.791992,116.927017 
	C160.936676,123.497978 160.833786,130.074387 160.833786,136.661133 
	C163.244431,136.661133 164.838516,136.661133 166.918854,136.661133 
	C166.918854,130.272537 166.927551,124.145065 166.916977,118.017632 
	C166.897171,106.542686 161.980194,102.330589 149.888092,104.268196 
M97.718391,126.607468 
	C99.127388,134.350647 102.849586,137.734039 110.367638,138.105331 
	C119.099480,138.536575 124.906555,135.611832 125.859848,128.912445 
	C126.967842,121.125771 126.782997,113.155136 127.165260,105.138474 
	C124.561539,105.138474 122.938271,105.138474 120.812332,105.138474 
	C120.812332,107.616714 120.872108,109.902908 120.799805,112.184929 
	C120.652641,116.829788 120.568512,121.482887 120.206604,126.112907 
	C119.859589,130.552231 116.850533,132.362579 112.771065,132.674957 
	C107.594360,133.071350 104.453430,130.743164 103.952904,125.418533 
	C103.322807,118.715553 103.267456,111.958549 102.962158,105.181183 
	C101.029579,105.181183 99.424103,105.181183 97.486389,105.181183 
	C97.486389,112.200974 97.486389,118.987549 97.718391,126.607468 
z"/>
<path fill="#EDF9FB" opacity="1.000000" stroke="none" 
	d="
M66.727280,126.301254 
	C66.727081,129.898575 66.727081,133.044571 66.727081,136.559494 
	C64.654144,136.559494 62.947891,136.559494 61.092888,136.559494 
	C61.092888,118.671883 61.092888,100.889877 61.092888,82.876846 
	C62.927269,82.876846 64.508362,82.876846 66.559479,82.876846 
	C66.559479,94.566216 66.559479,105.985657 66.559479,117.713615 
	C74.681244,114.573334 77.308670,103.053650 88.809341,105.288010 
	C83.526558,110.224243 78.734322,114.702118 72.901756,120.152069 
	C78.917770,125.421722 84.728394,130.511459 91.155029,136.140778 
	C85.289932,137.749115 81.919304,136.759659 78.855583,133.058395 
	C75.524437,129.034073 71.461555,125.615440 67.121986,121.346687 
	C66.944481,123.372917 66.835976,124.611427 66.727280,126.301254 
z"/>
<path fill="#F0FAFB" opacity="1.000000" stroke="none" 
	d="
M44.664070,136.608521 
	C44.146881,135.439194 43.980019,134.466400 43.696777,132.815125 
	C39.353642,137.299393 34.241291,139.452911 28.493486,137.632828 
	C25.655735,136.734253 22.684593,134.865112 20.808159,132.584198 
	C15.241288,125.817390 16.001343,113.566216 21.850115,107.733086 
	C27.591421,102.007133 35.098026,102.228531 42.304104,107.676620 
	C44.611893,106.378448 46.538712,105.294579 49.415421,103.676384 
	C49.415421,115.619484 49.415421,125.979340 49.415421,136.805054 
	C47.876137,136.805054 46.445263,136.805054 44.664070,136.608521 
M39.854656,130.707367 
	C44.546978,125.464287 45.329529,119.173843 41.942280,113.926193 
	C38.127522,108.016220 28.607262,107.817329 25.051455,113.573318 
	C22.606894,117.530464 22.845284,125.251022 25.520811,128.774109 
	C28.295139,132.427307 33.030388,133.233002 39.854656,130.707367 
z"/>
<path fill="#F2FAFB" opacity="1.000000" stroke="none" 
	d="
M185.169876,137.230408 
	C176.962418,132.745285 174.137772,125.923447 176.013992,115.841652 
	C177.254333,109.176796 181.707916,104.793236 188.266754,103.753517 
	C193.455399,102.931007 197.726822,104.617653 201.547318,108.981506 
	C201.676697,104.181969 204.363190,104.407524 207.665405,105.423180 
	C207.665405,115.606354 207.665405,125.872467 207.665405,136.486176 
	C204.708176,137.210129 201.838928,138.175964 201.850037,132.580338 
	C197.034271,138.151688 191.622070,139.125000 185.169876,137.230408 
M181.865295,123.128098 
	C183.217957,125.669586 184.041687,128.786774 186.041382,130.624023 
	C189.443329,133.749634 196.708435,132.657593 199.641327,129.265884 
	C203.137283,125.223015 202.978760,116.832352 199.326889,112.625069 
	C196.158539,108.974869 189.720871,108.243683 185.733749,111.130234 
	C181.875595,113.923409 181.599716,118.027893 181.865295,123.128098 
z"/>
<path fill="#EEF9FB" opacity="1.000000" stroke="none" 
	d="
M150.263641,104.163353 
	C161.980194,102.330589 166.897171,106.542686 166.916977,118.017632 
	C166.927551,124.145065 166.918854,130.272537 166.918854,136.661133 
	C164.838516,136.661133 163.244431,136.661133 160.833786,136.661133 
	C160.833786,130.074387 160.936676,123.497978 160.791992,116.927017 
	C160.715317,113.443787 159.708069,110.094536 155.803711,109.171761 
	C151.946045,108.260033 147.754257,108.319450 145.431061,112.028061 
	C143.940186,114.407990 143.357635,117.610786 143.168640,120.497154 
	C142.822830,125.777946 143.070190,131.097580 143.070190,136.659973 
	C141.110992,136.659973 139.545593,136.659973 137.690109,136.659973 
	C137.690109,126.221657 137.690109,115.950905 137.690109,104.581108 
	C140.000046,105.301422 141.932114,105.903900 143.864182,106.506386 
	C143.764648,106.959557 143.665131,107.412735 143.565613,107.865913 
	C145.673111,106.666672 147.780594,105.467438 150.263641,104.163353 
z"/>
<path fill="#EFFAFB" opacity="1.000000" stroke="none" 
	d="
M97.602386,126.190796 
	C97.486389,118.987549 97.486389,112.200974 97.486389,105.181183 
	C99.424103,105.181183 101.029579,105.181183 102.962158,105.181183 
	C103.267456,111.958549 103.322807,118.715553 103.952904,125.418533 
	C104.453430,130.743164 107.594360,133.071350 112.771065,132.674957 
	C116.850533,132.362579 119.859589,130.552231 120.206604,126.112907 
	C120.568512,121.482887 120.652641,116.829788 120.799805,112.184929 
	C120.872108,109.902908 120.812332,107.616714 120.812332,105.138474 
	C122.938271,105.138474 124.561539,105.138474 127.165260,105.138474 
	C126.782997,113.155136 126.967842,121.125771 125.859848,128.912445 
	C124.906555,135.611832 119.099480,138.536575 110.367638,138.105331 
	C102.849586,137.734039 99.127388,134.350647 97.602386,126.190796 
z"/>
<path fill="#06B2C6" opacity="1.000000" stroke="none" 
	d="
M39.498001,130.899506 
	C33.030388,133.233002 28.295139,132.427307 25.520811,128.774109 
	C22.845284,125.251022 22.606894,117.530464 25.051455,113.573318 
	C28.607262,107.817329 38.127522,108.016220 41.942280,113.926193 
	C45.329529,119.173843 44.546978,125.464287 39.498001,130.899506 
z"/>
<path fill="#05B2C6" opacity="1.000000" stroke="none" 
	d="
M181.817062,122.700729 
	C181.599716,118.027893 181.875595,113.923409 185.733749,111.130234 
	C189.720871,108.243683 196.158539,108.974869 199.326889,112.625069 
	C202.978760,116.832352 203.137283,125.223015 199.641327,129.265884 
	C196.708435,132.657593 189.443329,133.749634 186.041382,130.624023 
	C184.041687,128.786774 183.217957,125.669586 181.817062,122.700729 
z"/>
</svg>