<svg version="1.1" id="Layer_1" xmlns="http://www.w3.org/2000/svg" xmlns:xlink="http://www.w3.org/1999/xlink" x="0px" y="0px"
	 width="100%" viewBox="0 0 297 170" enable-background="new 0 0 297 170" xml:space="preserve">
<path fill="#FEFEFE" opacity="1.000000" stroke="none" 
	d="
M1.000000,128.000000 
	C1.000000,85.699066 1.000000,43.398132 1.000000,1.048598 
	C99.891815,1.048598 198.783661,1.048598 298.000000,1.048598 
	C298.000000,50.020416 298.000000,99.041550 297.645508,148.545242 
	C296.831909,149.119492 296.372864,149.211182 295.454041,149.250702 
	C289.322418,149.272064 283.650574,149.345612 277.581543,149.172577 
	C277.017975,142.302597 276.851562,135.679214 276.804932,128.789490 
	C276.603394,128.401840 276.282135,128.280533 275.497986,128.101379 
	C268.131256,128.043533 261.227448,128.043533 255.000839,128.043533 
	C255.000839,135.249298 255.000839,142.126053 254.767853,149.083344 
	C254.534882,149.163864 254.059036,149.292847 253.601227,149.169189 
	C246.790421,148.988205 240.437424,148.930862 234.108917,148.413300 
	C234.133392,141.367462 234.133392,134.781845 234.133392,128.275467 
	C226.382751,128.275467 219.347885,128.275467 212.977921,128.275467 
	C212.977921,135.334610 212.977921,142.136627 212.516907,149.021393 
	C205.356308,149.128311 198.656723,149.152496 191.869568,148.798264 
	C191.781982,141.649246 191.781982,134.878632 191.781982,128.200623 
	C184.329208,128.200623 177.379913,128.200623 171.022095,128.200623 
	C171.022095,135.268463 171.022095,142.173737 170.680206,149.102570 
	C169.896133,149.232132 169.453949,149.338120 168.554794,149.335281 
	C162.392990,149.291077 156.688141,149.355698 150.590302,149.170013 
	C150.040237,142.299606 149.883133,135.679504 149.830566,128.785446 
	C149.610291,128.388794 149.285477,128.266083 148.497437,128.089249 
	C141.393982,128.066483 134.753754,128.097839 127.640831,128.069168 
	C120.426010,128.028458 113.683876,128.047791 106.477379,128.043030 
	C99.111374,128.018936 92.209747,128.018936 85.981453,128.018936 
	C85.981453,135.202713 85.981453,142.076004 85.519501,149.027313 
	C78.358246,149.120255 71.658936,149.135162 64.958923,148.911850 
	C64.958229,148.673630 64.915909,148.199066 64.946320,147.875763 
	C64.971413,147.336014 64.966103,147.119583 64.987549,146.441437 
	C65.014313,140.078857 65.014313,134.178024 65.014313,128.216492 
	C57.361523,128.216492 50.269817,128.216492 42.707001,128.117523 
	C35.807812,128.040207 29.379734,128.061874 22.698030,128.032227 
	C22.280243,128.033905 22.116081,128.086929 21.488903,128.088959 
	C14.350591,128.025299 7.675295,128.012650 1.000000,128.000000 
M285.983582,134.104446 
	C288.155792,134.613235 290.327972,135.122025 292.500183,135.630814 
	C290.418060,132.431931 287.863739,131.860001 284.196838,134.049988 
	C282.950958,137.486801 283.014465,137.583664 287.001801,138.575409 
	C286.431763,137.173126 285.819061,135.665970 285.983582,134.104446 
M248.757675,143.951126 
	C249.411606,142.498123 250.926331,140.079346 250.569046,139.760910 
	C249.096741,138.448654 247.056244,137.773895 244.625320,136.567322 
	C246.130386,139.920197 247.028351,141.920624 247.245132,143.940628 
	C246.466080,144.069290 245.687042,144.197968 244.907990,144.326630 
	C244.993362,144.611847 245.078735,144.897064 245.164108,145.182266 
	C246.124680,144.810852 247.085251,144.439438 248.757675,143.951126 
M160.250870,139.758194 
	C161.467972,141.317444 162.685074,142.876694 164.471069,145.164780 
	C164.471069,139.915222 164.471069,136.181091 164.471069,132.446976 
	C164.091660,132.430313 163.712250,132.413666 163.332840,132.397018 
	C163.124252,135.085968 162.915665,137.774918 162.674622,140.882141 
	C161.829300,139.868973 161.415848,139.373444 160.925201,138.186172 
	C159.729736,136.464310 158.534271,134.742432 157.338806,133.020569 
	C156.760056,133.509293 156.181305,133.998016 155.602570,134.486725 
	C157.103699,136.008011 158.604828,137.529297 160.250870,139.758194 
M35.156548,113.091156 
	C35.156548,77.007637 35.156548,40.924122 35.156548,4.664894 
	C30.173861,4.664894 25.610617,4.664894 20.860580,4.664894 
	C20.860580,41.830040 20.860580,78.723946 20.860580,116.338455 
	C25.726572,115.868011 30.320175,115.423904 35.081982,114.502235 
	C35.040436,114.338654 34.998886,114.175079 35.156548,113.091156 
M133.337555,4.427660 
	C130.005066,4.413781 126.623230,4.753555 123.352531,4.297029 
	C119.209496,3.718743 117.643852,5.618665 116.300713,9.184157 
	C107.251167,33.207050 98.001602,57.154602 88.816147,81.126297 
	C84.444504,92.535179 80.071396,103.943512 75.477623,115.929573 
	C79.928864,115.929573 83.722458,115.710846 87.476974,115.999817 
	C90.402618,116.224983 91.409729,115.000900 92.295990,112.403282 
	C95.757439,102.257828 99.506409,92.210472 103.168488,82.071266 
	C118.139511,82.071266 132.798218,82.000076 147.453323,82.197449 
	C148.716202,82.214455 150.586304,83.752060 151.104218,85.020309 
	C154.863571,94.226013 158.266052,103.577324 162.012268,112.788689 
	C162.543854,114.095795 164.258484,115.680672 165.537949,115.787186 
	C169.971008,116.156235 174.453659,115.929520 179.394943,115.929520 
	C178.777298,113.969109 178.396362,112.388268 177.792023,110.898018 
	C169.882095,91.392281 161.990616,71.878761 153.990921,52.409779 
	C147.757019,37.238300 141.378571,22.126223 135.203201,6.312546 
	C134.827591,5.814831 134.451996,5.317115 133.337555,4.427660 
M211.090790,6.908634 
	C211.090790,43.143501 211.090790,79.378372 211.090790,115.929741 
	C226.129623,115.929741 240.587418,115.989494 255.044098,115.889526 
	C258.861084,115.863136 262.694061,115.498978 266.486572,115.025009 
	C285.783417,112.613426 296.970917,98.698776 295.007599,79.384956 
	C294.141449,70.864235 289.588135,64.473763 282.361969,60.063599 
	C280.146484,58.711475 277.568512,57.953293 274.699219,56.727783 
	C287.835266,47.615894 292.048492,38.481342 289.021759,26.336914 
	C286.214417,15.072943 276.571930,5.971022 263.498474,5.236040 
	C246.749054,4.294397 229.916595,4.829853 212.672974,4.456862 
	C212.201492,4.965490 211.730026,5.474119 211.090790,6.908634 
M73.174973,141.775665 
	C72.556686,140.058212 71.938408,138.340775 70.993408,135.715775 
	C70.155457,137.252686 69.099648,138.618774 69.322617,138.875885 
	C70.478973,140.209274 71.961769,141.259567 73.174973,141.775665 
M201.048904,143.853302 
	C200.228775,143.756607 199.408630,143.659912 198.588501,143.563217 
	C198.562927,143.873962 198.537369,144.184723 198.511795,144.495483 
	C200.655731,144.495483 202.799667,144.495483 204.943604,144.495483 
	C204.968384,144.368027 204.993164,144.240555 205.017960,144.113098 
	C203.935837,144.056747 202.853714,144.000397 201.048904,143.853302 
M241.817917,142.445801 
	C242.311829,142.215775 242.805725,141.985748 243.299637,141.755722 
	C242.476074,141.264297 241.652512,140.772888 240.828934,140.281464 
	C240.974518,140.896713 241.120102,141.511948 241.817917,142.445801 
M78.217834,134.407288 
	C78.875687,134.852310 79.533539,135.297333 80.191399,135.742340 
	C80.350395,135.342102 80.509399,134.941864 80.668404,134.541626 
	C79.800308,134.299164 78.932213,134.056686 78.217834,134.407288 
M249.616852,135.508682 
	C249.477524,134.531921 249.338211,133.555161 249.198898,132.578400 
	C248.842392,132.674377 248.485886,132.770340 248.129364,132.866318 
	C248.458252,133.829315 248.787125,134.792297 249.616852,135.508682 
M284.945435,141.511963 
	C284.712494,141.122665 284.479553,140.733353 284.246643,140.344040 
	C284.016785,140.973618 283.786926,141.603195 283.557068,142.232773 
	C283.996582,142.172897 284.436066,142.113022 284.945435,141.511963 
M75.694855,143.988861 
	C75.443504,144.224792 75.192154,144.460709 74.940804,144.696625 
	C75.644196,144.690353 76.347595,144.684067 77.050987,144.677780 
	C76.790993,144.447662 76.530998,144.217560 75.694855,143.988861 
M290.782898,142.333176 
	C290.730957,142.720978 290.679016,143.108765 290.627075,143.496582 
	C290.904602,143.497726 291.182098,143.498871 291.459625,143.500000 
	C291.416534,143.111557 291.373413,142.723129 290.782898,142.333176 
M242.739258,132.937012 
	C242.391266,132.962234 242.043289,132.987473 241.695297,133.012695 
	C241.768280,133.256149 241.841248,133.499603 241.914230,133.743042 
	C242.167953,133.622269 242.421677,133.501495 242.739258,132.937012 
M72.290779,134.002731 
	C72.212196,133.759949 72.133621,133.517166 72.055046,133.274384 
	C71.787201,133.545471 71.519363,133.816559 71.251518,134.087646 
	C71.494225,134.164810 71.736931,134.241959 72.290779,134.002731 
M289.161102,138.008499 
	C289.262238,138.432236 289.363373,138.855972 289.464539,139.279709 
	C289.590485,139.185959 289.833557,139.075592 289.822998,139.001190 
	C289.761993,138.570923 289.641144,138.149155 289.161102,138.008499 
M74.689133,133.469315 
	C75.110664,133.604965 75.527245,133.763367 75.957901,133.857010 
	C76.043556,133.875626 76.183113,133.646332 76.297821,133.531357 
	C75.876419,133.395721 75.455009,133.260071 74.689133,133.469315 
M246.001068,133.876343 
	C246.098877,133.766052 246.249329,133.667282 246.276779,133.541611 
	C246.296570,133.451019 246.156265,133.232666 246.080933,133.229614 
	C245.679901,133.213425 245.276855,133.247147 244.874496,133.263596 
	C245.082840,133.497604 245.291199,133.731628 246.001068,133.876343 
M156.355865,144.685669 
	C156.478012,144.430588 156.600143,144.175507 156.722275,143.920425 
	C156.477676,143.846756 156.233093,143.773087 155.988495,143.699402 
	C155.962067,144.049454 155.935638,144.399490 156.355865,144.685669 
M291.531372,138.580582 
	C291.471313,138.821167 291.411285,139.061752 291.351227,139.302338 
	C291.502258,139.147125 291.653259,138.991898 291.531372,138.580582 
M78.578911,142.478546 
	C78.819290,142.538513 79.059669,142.598465 79.300049,142.658432 
	C79.144798,142.507843 78.989540,142.357239 78.578911,142.478546 
M286.788940,144.775436 
	C286.967957,144.642410 287.147003,144.509384 287.326019,144.376358 
	C287.074341,144.406006 286.822632,144.435638 286.788940,144.775436 
M243.434509,136.531937 
	C243.187332,136.469986 242.940140,136.408035 242.692963,136.346100 
	C242.853455,136.502151 243.013947,136.658218 243.434509,136.531937 
z"/>
<path fill="#282828" opacity="1.000000" stroke="none" 
	d="
M1.000000,128.399994 
	C7.675295,128.012650 14.350591,128.025299 21.495028,128.320679 
	C21.964169,128.603424 21.871937,129.057785 21.727915,129.138702 
	C21.383183,129.542725 21.467674,129.802567 22.036629,130.035767 
	C22.235891,130.072372 22.641088,130.071136 22.694063,130.531921 
	C22.664837,136.666931 22.582638,142.341125 22.296318,148.057068 
	C21.926970,148.278976 21.761744,148.459137 21.596519,148.639313 
	C21.979156,148.780365 22.361794,148.921432 23.213352,149.130310 
	C29.793358,149.284607 35.904438,149.371109 42.076286,149.710938 
	C42.676872,150.305756 43.216702,150.647263 43.839149,151.451157 
	C43.927910,157.935104 43.934044,163.956665 43.476974,170.017120 
	C36.682461,170.048813 30.351154,170.041626 23.924244,169.820740 
	C23.659786,169.333374 23.428802,169.130386 22.935522,168.945587 
	C22.735350,168.893036 22.321735,168.908600 22.271074,168.448547 
	C22.220413,162.062119 22.220413,156.135712 22.220413,149.523178 
	C15.495376,149.523178 9.241462,149.523178 2.942342,149.277527 
	C2.582347,148.677185 2.267557,148.322495 1.932161,147.503784 
	C1.607704,142.026489 1.303852,137.013245 1.000000,132.000000 
	C1.000000,130.933334 1.000000,129.866653 1.000000,128.399994 
M28.053015,164.269058 
	C28.360310,164.451416 28.667604,164.633789 29.517971,164.886536 
	C29.708549,164.580307 29.899128,164.274078 30.634426,163.537323 
	C31.263927,162.656326 31.893431,161.775345 32.906807,161.176270 
	C33.258942,161.478424 33.611073,161.780579 34.135185,162.747772 
	C34.858589,163.468384 35.581993,164.189011 36.305397,164.909622 
	C36.484833,164.272171 36.664272,163.634720 36.968906,162.121582 
	C36.948872,159.765015 36.928833,157.408463 37.542507,154.925125 
	C37.677311,154.197327 37.812115,153.469528 37.946922,152.741745 
	C37.043571,153.109543 35.629616,153.246307 35.337967,153.890884 
	C34.623257,155.470490 34.426376,157.284393 33.514301,158.694672 
	C33.019394,158.108109 32.524483,157.521545 31.830301,156.245483 
	C30.875055,155.368530 29.919809,154.491577 28.964563,153.614639 
	C28.538364,153.993958 28.112167,154.373291 27.685970,154.752625 
	C28.477905,155.674515 29.269838,156.596420 30.261103,158.199982 
	C29.876232,159.966705 29.491364,161.733429 28.533531,163.372787 
	C28.424826,163.535461 28.316118,163.698120 28.053015,164.269058 
M12.056466,141.131012 
	C12.056466,138.150131 12.056466,135.169250 12.056466,132.188370 
	C11.545586,132.213333 11.034706,132.238281 10.523826,132.263245 
	C10.523826,136.338287 10.523826,140.413330 10.523826,144.488373 
	C10.844070,144.531250 11.164316,144.574127 11.484561,144.617004 
	C11.674478,143.748459 11.864393,142.879929 12.056466,141.131012 
M23.420530,150.492996 
	C23.420530,150.492996 23.535294,150.425812 23.420530,150.492996 
z"/>
<path fill="#272727" opacity="1.000000" stroke="none" 
	d="
M64.959625,149.150085 
	C71.658936,149.135162 78.358246,149.120255 85.523560,149.288879 
	C85.992538,149.646774 85.995514,149.821152 86.033585,150.463043 
	C86.072372,152.753799 86.174301,154.583145 86.060814,156.399033 
	C85.756477,161.269104 85.359924,166.133408 85.000000,171.000000 
	C78.978844,171.000000 72.957695,171.000000 66.291382,170.793091 
	C65.406677,170.723785 65.167137,170.861389 64.826492,170.475922 
	C64.791695,163.368820 64.857986,156.784821 64.943527,149.938477 
	C64.961731,149.500793 64.960678,149.325439 64.959625,149.150085 
z"/>
<path fill="#F4F4F4" opacity="1.000000" stroke="none" 
	d="
M277.000000,171.000000 
	C269.979065,171.000000 262.958099,171.000000 255.610077,170.549805 
	C255.188934,163.400543 255.094864,156.701508 255.468384,150.035675 
	C258.089630,150.043594 260.249664,149.901047 262.395660,150.017029 
	C267.058624,150.268997 271.714417,150.653000 276.281372,151.440765 
	C276.256836,157.575897 276.324066,163.253296 276.312256,169.378632 
	C276.435181,170.052811 276.637146,170.279007 276.791016,170.657623 
	C276.742920,170.810028 277.000000,171.000000 277.000000,171.000000 
z"/>
<path fill="#F8F8F8" opacity="1.000000" stroke="none" 
	d="
M192.000000,171.000000 
	C185.312363,171.000000 178.624710,171.000000 171.563843,170.725739 
	C171.075867,170.295578 170.961121,170.139694 170.885284,169.517975 
	C170.863434,163.031631 170.802689,157.011108 170.828964,150.711212 
	C170.928848,150.237198 170.941727,150.042542 171.424973,149.814270 
	C178.570358,149.925705 185.245361,150.070740 191.838959,150.664978 
	C191.814331,157.742477 191.871124,164.370728 191.946686,170.985596 
	C191.965469,170.972183 192.000000,171.000000 192.000000,171.000000 
z"/>
<path fill="#FAFAFA" opacity="1.000000" stroke="none" 
	d="
M2.987547,149.523178 
	C9.241462,149.523178 15.495376,149.523178 22.220413,149.523178 
	C22.220413,156.135712 22.220413,162.062119 22.068314,168.823914 
	C21.944141,170.106216 21.972071,170.553116 22.000000,171.000000 
	C15.073852,171.000000 8.147703,171.000000 1.000000,171.000000 
	C1.000000,164.314240 1.000000,157.626038 1.329902,150.379578 
	C2.102385,149.721954 2.544966,149.622559 2.987547,149.523178 
z"/>
<path fill="#F4F4F4" opacity="1.000000" stroke="none" 
	d="
M64.924286,150.200806 
	C64.857986,156.784821 64.791695,163.368820 64.845581,170.465683 
	C64.965759,170.978531 65.000000,171.000000 65.000000,171.000000 
	C58.312355,171.000000 51.624710,171.000000 44.614285,170.735138 
	C44.174393,170.306259 44.057285,170.142227 43.940182,169.978210 
	C43.934044,163.956665 43.927910,157.935104 43.919769,151.174896 
	C43.927200,150.244598 43.936638,150.052979 44.416313,149.818008 
	C51.565796,149.916718 58.245041,150.058762 64.924286,150.200806 
z"/>
<path fill="#272727" opacity="1.000000" stroke="none" 
	d="
M191.927902,170.998993 
	C191.871124,164.370728 191.814331,157.742477 191.856583,150.405487 
	C191.956131,149.523392 191.956650,149.350021 191.957153,149.176666 
	C198.656723,149.152496 205.356308,149.128311 212.517624,149.285706 
	C212.985733,149.643356 212.992081,149.819443 213.030746,150.463409 
	C213.042023,157.620834 213.021011,164.310425 213.000000,171.000000 
	C206.645599,171.000000 200.291214,171.000000 193.293060,170.797195 
	C192.408844,170.729263 192.168381,170.864136 191.927902,170.998993 
M200.459656,156.161041 
	C200.803894,159.379211 201.148132,162.597382 201.492371,165.815552 
	C201.922562,165.797104 202.352737,165.778656 202.782928,165.760208 
	C202.782928,162.304886 202.782928,158.849564 202.782928,155.621399 
	C204.599915,155.082153 205.783981,154.730743 206.968048,154.379333 
	C206.912292,153.956375 206.856552,153.533432 206.800797,153.110474 
	C204.256958,153.110474 201.705643,153.002518 199.173981,153.178055 
	C198.440720,153.228912 197.763840,154.092789 197.061111,154.583939 
	C197.899124,155.073792 198.737122,155.563629 200.459656,156.161041 
z"/>
<path fill="#282828" opacity="1.000000" stroke="none" 
	d="
M255.000809,150.002457 
	C255.094864,156.701508 255.188934,163.400543 255.141510,170.549805 
	C248.312363,171.000000 241.624710,171.000000 234.402069,170.535400 
	C233.949982,163.729614 234.032898,157.388412 234.575836,151.020081 
	C239.452637,150.994385 243.878891,151.164978 248.281952,150.919724 
	C250.231796,150.811127 252.134781,149.860977 254.059036,149.292847 
	C254.059036,149.292847 254.534882,149.163864 254.770660,149.333252 
	C255.006439,149.502625 255.000809,150.002457 255.000809,150.002457 
M244.002335,160.379578 
	C244.002335,158.448624 244.002335,156.517670 244.002335,154.586716 
	C243.750107,154.600174 243.497864,154.613632 243.245636,154.627075 
	C243.245636,157.934830 243.245636,161.242584 243.245636,164.550339 
	C243.415939,164.555206 243.586258,164.560074 243.756561,164.564941 
	C243.838470,163.464706 243.920395,162.364487 244.002335,160.379578 
z"/>
<path fill="#FAFAFA" opacity="1.000000" stroke="none" 
	d="
M149.000000,171.000000 
	C142.645599,171.000000 136.291214,171.000000 129.441238,170.719879 
	C128.715363,169.941650 128.485062,169.443527 128.318237,168.484589 
	C128.324249,162.360153 128.266800,156.696548 128.407440,150.927948 
	C128.735764,150.553619 128.868408,150.285477 129.471695,150.016144 
	C136.329666,149.999344 142.719376,149.984909 149.142197,150.439819 
	C149.174545,157.261124 149.173798,163.613083 148.910202,170.187073 
	C148.764893,170.606064 148.882446,170.803024 149.000000,171.000000 
M143.313950,162.186356 
	C142.332031,162.516235 141.350113,162.846115 140.368195,163.175995 
	C141.056274,163.764145 141.744354,164.352295 142.432434,164.940460 
	C142.986115,163.979492 143.539795,163.018524 144.493332,161.776764 
	C144.473740,161.392456 144.454132,161.008148 144.434540,160.623840 
	C144.237411,161.035095 144.040283,161.446335 143.313950,162.186356 
M142.154556,157.187851 
	C142.899399,157.616180 143.644257,158.044525 144.389099,158.472870 
	C144.600616,158.239731 144.812134,158.006607 145.023651,157.773483 
	C144.127380,156.511368 143.231110,155.249237 142.334839,153.987122 
	C141.988052,154.172821 141.641266,154.358536 141.294479,154.544235 
	C141.478546,155.235840 141.662613,155.927460 142.154556,157.187851 
M136.026840,162.620651 
	C135.228210,162.289993 134.429565,161.959335 133.630936,161.628677 
	C133.531540,161.818893 133.432159,162.009125 133.332764,162.199341 
	C134.412125,163.178879 135.491486,164.158417 137.289520,165.790161 
	C136.814651,164.248444 136.633987,163.661911 136.026840,162.620651 
M135.394455,154.965714 
	C134.773788,155.403183 134.153137,155.840637 133.532471,156.278107 
	C133.910339,156.610931 134.288193,156.943771 134.666061,157.276596 
	C135.366974,156.203659 136.067902,155.130722 136.768829,154.057785 
	C136.518845,154.067596 136.255646,154.034195 136.024292,154.104935 
	C135.903076,154.141983 135.837708,154.361786 135.394455,154.965714 
z"/>
<path fill="#F8F8F8" opacity="1.000000" stroke="none" 
	d="
M85.468620,171.000000 
	C85.359924,166.133408 85.756477,161.269104 86.060814,156.399033 
	C86.174301,154.583145 86.072372,152.753799 86.497375,150.389130 
	C93.615776,149.908844 100.305481,149.970016 106.981079,150.289673 
	C107.015282,150.713867 107.063591,150.879547 107.050056,151.506958 
	C107.165497,158.095703 107.342773,164.222748 107.528091,170.594971 
	C107.536133,170.840164 108.000000,171.000000 108.000000,171.000000 
	C100.645744,171.000000 93.291496,171.000000 85.468620,171.000000 
M94.147865,157.919266 
	C95.290817,156.378143 96.433777,154.837021 97.393105,153.543488 
	C96.131325,153.543488 94.234016,153.543488 92.381477,153.543488 
	C92.381477,157.558304 92.381477,161.214966 92.381477,164.871628 
	C92.830925,165.071976 93.280365,165.272339 93.729813,165.472687 
	C94.868286,163.695206 96.006767,161.917725 97.872284,160.031174 
	C98.035049,159.999496 98.211952,159.996841 98.355942,159.926651 
	C98.464058,159.873947 98.529884,159.734497 98.614532,159.633652 
	C97.149155,159.326874 95.683777,159.020096 94.147865,157.919266 
z"/>
<path fill="#F6F6F6" opacity="1.000000" stroke="none" 
	d="
M234.115814,151.047211 
	C234.032898,157.388412 233.949982,163.729614 233.933533,170.535400 
	C227.312363,171.000000 220.624710,171.000000 213.468536,171.000000 
	C213.021011,164.310425 213.042023,157.620834 213.494568,150.389648 
	C220.615860,149.909164 227.305618,149.970291 233.984055,150.290283 
	C234.020416,150.715164 234.068115,150.881180 234.115814,151.047211 
M225.073593,157.958786 
	C223.070999,156.862350 221.068420,155.765930 219.060425,154.666534 
	C217.074997,158.580368 217.464172,163.785065 220.343658,165.806000 
	C220.787003,164.213348 221.205231,162.710938 221.660919,161.073929 
	C223.092102,161.325058 224.161774,161.512741 225.203857,161.695587 
	C225.542236,160.393295 225.833511,159.272263 226.814102,158.045410 
	C227.489014,157.542816 228.163910,157.040222 228.838821,156.537643 
	C228.457306,156.146240 228.075775,155.754822 227.694260,155.363419 
	C227.092865,156.208435 226.491470,157.053452 225.073593,157.958786 
z"/>
<path fill="#2A2A2A" opacity="1.000000" stroke="none" 
	d="
M276.391296,168.930664 
	C276.324066,163.253296 276.256836,157.575897 276.458191,151.415070 
	C276.726746,150.931625 277.081360,150.887482 277.271057,150.829315 
	C277.707581,150.619873 277.834381,150.399490 277.873291,149.936813 
	C277.905426,149.763657 277.978729,149.419159 277.978729,149.419159 
	C283.650574,149.345612 289.322418,149.272064 295.447510,149.458252 
	C295.900787,149.717987 295.998840,150.121552 296.107971,150.310181 
	C296.407013,150.732468 296.647369,150.888382 296.971497,151.436020 
	C297.003204,158.270340 297.001617,164.635162 297.000000,171.000000 
	C297.000000,171.000000 296.500000,171.000000 295.944092,170.721802 
	C289.602936,170.311005 283.817688,170.178406 277.831726,169.767334 
	C277.217804,169.302795 276.804565,169.116730 276.391296,168.930664 
M290.915436,162.708740 
	C290.917358,162.484039 290.919312,162.259338 291.640442,161.951630 
	C294.106171,160.132965 292.587616,159.405090 290.921753,158.260666 
	C290.865295,157.920380 290.808838,157.580109 291.445831,157.037598 
	C291.829285,156.304382 292.212708,155.571152 292.596130,154.837936 
	C291.596710,155.017426 290.597321,155.196930 289.359222,155.505829 
	C289.381927,155.814514 289.567749,155.939499 289.925507,156.500580 
	C289.927826,156.707184 289.930145,156.913788 289.074341,157.053848 
	C287.923981,157.063614 286.773621,157.073364 285.239227,156.949677 
	C285.174500,156.830612 285.029144,156.681046 285.060455,156.598297 
	C285.148499,156.365570 285.309235,156.160324 286.073914,155.753754 
	C286.373413,155.461136 286.672913,155.168503 286.648621,154.184265 
	C283.735779,153.314789 283.444519,155.497086 284.134857,157.041031 
	C284.609100,158.101654 286.649811,158.461823 288.065948,159.775879 
	C288.464081,160.245941 288.862244,160.716003 289.391479,161.766205 
	C289.542023,162.351395 289.692566,162.936600 289.616241,163.960541 
	C289.645325,164.411560 289.674408,164.862564 289.703491,165.313583 
	C290.291779,165.165436 290.880035,165.017303 291.468323,164.869171 
	C291.282837,164.373718 291.097321,163.878281 290.915436,162.708740 
z"/>
<path fill="#656364" opacity="1.000000" stroke="none" 
	d="
M108.468536,171.000000 
	C108.000000,171.000000 107.536133,170.840164 108.032852,170.551666 
	C110.359215,170.218796 112.194443,170.250137 114.017395,170.115372 
	C118.766060,169.764282 123.509346,169.340302 128.254776,168.945404 
	C128.485062,169.443527 128.715363,169.941650 128.972839,170.719879 
	C122.312355,171.000000 115.624710,171.000000 108.468536,171.000000 
z"/>
<path fill="#5F5D5D" opacity="1.000000" stroke="none" 
	d="
M295.998840,150.121552 
	C295.998840,150.121552 295.900787,149.717987 295.907288,149.510437 
	C296.372864,149.211182 296.831909,149.119492 297.645508,149.013901 
	C298.000000,156.333328 298.000000,163.666672 297.500000,171.000000 
	C297.001617,164.635162 297.003204,158.270340 296.906555,151.212372 
	C296.609406,150.242401 296.339600,150.109833 295.998840,150.121552 
z"/>
<path fill="#5F5D5D" opacity="1.000000" stroke="none" 
	d="
M43.476974,170.017120 
	C44.057285,170.142227 44.174393,170.306259 44.145752,170.735138 
	C36.979053,171.000000 29.958105,171.000000 22.468578,171.000000 
	C21.972071,170.553116 21.944141,170.106216 22.118973,169.283966 
	C22.321735,168.908600 22.735350,168.893036 22.981224,169.191101 
	C23.491348,169.670929 23.755598,169.852676 24.019848,170.034424 
	C30.351154,170.041626 36.682461,170.048813 43.476974,170.017120 
z"/>
<path fill="#3A3738" opacity="1.000000" stroke="none" 
	d="
M149.468567,171.000000 
	C148.882446,170.803024 148.764893,170.606064 149.151077,170.124786 
	C149.654816,169.840500 150.147568,169.770264 150.342911,169.837387 
	C150.538254,169.904510 150.950851,169.924835 151.421951,169.942230 
	C158.210831,169.967682 164.528610,169.975739 170.846390,169.983795 
	C170.961121,170.139694 171.075867,170.295578 171.095306,170.725739 
	C163.979050,171.000000 156.958099,171.000000 149.468567,171.000000 
z"/>
<path fill="#5F5D5D" opacity="1.000000" stroke="none" 
	d="
M278.032410,170.045807 
	C283.817688,170.178406 289.602936,170.311005 295.694092,170.721802 
	C289.978851,171.000000 283.957703,171.000000 277.468262,171.000000 
	C277.000000,171.000000 276.742920,170.810028 277.081024,170.518784 
	C277.623566,170.166962 277.827972,170.106384 278.032410,170.045807 
z"/>
<path fill="#5F5D5D" opacity="1.000000" stroke="none" 
	d="
M1.000000,132.466858 
	C1.303852,137.013245 1.607704,142.026489 1.694690,147.528397 
	C1.477825,148.017059 1.000000,148.000000 1.000000,148.000000 
	C1.000000,142.977905 1.000000,137.955811 1.000000,132.466858 
z"/>
<path fill="#1F1F1F" opacity="1.000000" stroke="none" 
	d="
M1.000000,148.333328 
	C1.000000,148.000000 1.477825,148.017059 1.715296,147.992432 
	C2.267557,148.322495 2.582347,148.677185 2.942342,149.277527 
	C2.544966,149.622559 2.102385,149.721954 1.329902,149.910675 
	C1.000000,149.555557 1.000000,149.111099 1.000000,148.333328 
z"/>
<path fill="#9C9C9C" opacity="1.000000" stroke="none" 
	d="
M65.250000,171.000000 
	C65.000000,171.000000 64.965759,170.978531 64.946678,170.988770 
	C65.167137,170.861389 65.406677,170.723785 65.823105,170.793091 
	C66.000000,171.000000 65.500000,171.000000 65.250000,171.000000 
z"/>
<path fill="#9C9C9C" opacity="1.000000" stroke="none" 
	d="
M191.946686,170.985596 
	C192.168381,170.864136 192.408844,170.729263 192.824646,170.797195 
	C193.000000,171.000000 192.500000,171.000000 192.250000,171.000000 
	C192.000000,171.000000 191.965469,170.972183 191.946686,170.985596 
z"/>
<path fill="#3A3738" opacity="1.000000" stroke="none" 
	d="
M213.119919,4.728844 
	C229.916595,4.829853 246.749054,4.294397 263.498474,5.236040 
	C276.571930,5.971022 286.214417,15.072943 289.021759,26.336914 
	C292.048492,38.481342 287.835266,47.615894 274.699219,56.727783 
	C277.568512,57.953293 280.146484,58.711475 282.361969,60.063599 
	C289.588135,64.473763 294.141449,70.864235 295.007599,79.384956 
	C296.970917,98.698776 285.783417,112.613426 266.486572,115.025009 
	C262.694061,115.498978 258.861084,115.863136 255.044098,115.889526 
	C240.587418,115.989494 226.129623,115.929741 211.090790,115.929741 
	C211.090790,79.378372 211.090790,43.143501 211.472534,6.399503 
	C212.276154,5.503196 212.698029,5.116020 213.119919,4.728844 
M275.284485,96.767288 
	C284.891693,83.903870 280.005310,67.649529 264.995911,65.527611 
	C252.293167,63.731792 239.264847,64.238937 226.379486,63.726864 
	C226.379486,77.386131 226.379486,90.065598 226.379486,102.792328 
	C237.553192,102.792328 248.398071,103.373055 259.134491,102.545883 
	C264.455139,102.135956 269.576294,99.135902 275.284485,96.767288 
M245.473755,51.187904 
	C251.710785,50.638462 258.012024,52.195114 264.235718,50.021729 
	C271.742950,47.400112 275.921509,41.773304 275.528931,33.831604 
	C275.107208,25.300928 270.317993,18.840279 262.202698,18.354456 
	C250.319534,17.643076 238.362167,18.171379 226.288315,18.171379 
	C226.288315,28.826151 226.288315,39.881748 226.288315,51.187931 
	C232.540070,51.187931 238.511230,51.187931 245.473755,51.187904 
z"/>
<path fill="#393637" opacity="1.000000" stroke="none" 
	d="
M135.064362,6.987748 
	C141.378571,22.126223 147.757019,37.238300 153.990921,52.409779 
	C161.990616,71.878761 169.882095,91.392281 177.792023,110.898018 
	C178.396362,112.388268 178.777298,113.969109 179.394943,115.929520 
	C174.453659,115.929520 169.971008,116.156235 165.537949,115.787186 
	C164.258484,115.680672 162.543854,114.095795 162.012268,112.788689 
	C158.266052,103.577324 154.863571,94.226013 151.104218,85.020309 
	C150.586304,83.752060 148.716202,82.214455 147.453323,82.197449 
	C132.798218,82.000076 118.139511,82.071266 103.168488,82.071266 
	C99.506409,92.210472 95.757439,102.257828 92.295990,112.403282 
	C91.409729,115.000900 90.402618,116.224983 87.476974,115.999817 
	C83.722458,115.710846 79.928864,115.929573 75.477623,115.929573 
	C80.071396,103.943512 84.444504,92.535179 88.816147,81.126297 
	C98.001602,57.154602 107.251167,33.207050 116.300713,9.184157 
	C117.643852,5.618665 119.209496,3.718743 123.352531,4.297029 
	C126.623230,4.753555 130.005066,4.413781 133.745346,4.929162 
	C134.456879,5.949692 134.760620,6.468721 135.064362,6.987748 
M117.169037,43.718483 
	C114.014977,52.336193 110.860924,60.953903 107.626549,69.791069 
	C120.383850,69.791069 132.620209,69.791069 145.321457,69.791069 
	C138.841553,52.210331 132.488510,34.973816 125.996239,17.359516 
	C123.081734,26.252728 120.329170,34.651787 117.169037,43.718483 
z"/>
<path fill="#373435" opacity="1.000000" stroke="none" 
	d="
M34.913780,114.979797 
	C30.320175,115.423904 25.726572,115.868011 20.860580,116.338455 
	C20.860580,78.723946 20.860580,41.830040 20.860580,4.664894 
	C25.610617,4.664894 30.173861,4.664894 35.156548,4.664894 
	C35.156548,40.924122 35.156548,77.007637 34.893848,113.632950 
	C34.563553,114.274467 34.417126,114.430519 34.441456,114.464561 
	C34.575909,114.652725 34.751972,114.811165 34.913780,114.979797 
z"/>
<path fill="#2A2A2A" opacity="1.000000" stroke="none" 
	d="
M233.995392,150.031403 
	C227.305618,149.970291 220.615860,149.909164 213.462265,149.921783 
	C212.992081,149.819443 212.985733,149.643356 212.978638,149.202957 
	C212.977921,142.136627 212.977921,135.334610 212.977921,128.275467 
	C219.347885,128.275467 226.382751,128.275467 234.133392,128.275467 
	C234.133392,134.781845 234.133392,141.367462 234.033066,148.698669 
	C233.953629,149.639969 233.974503,149.835693 233.995392,150.031403 
z"/>
<path fill="#272626" opacity="1.000000" stroke="none" 
	d="
M277.081360,150.887482 
	C277.081360,150.887482 276.726746,150.931625 276.549927,150.957321 
	C271.714417,150.653000 267.058624,150.268997 262.395660,150.017029 
	C260.249664,149.901047 258.089630,150.043594 255.468384,150.035675 
	C255.000809,150.002457 255.006439,149.502625 255.003632,149.252716 
	C255.000839,142.126053 255.000839,135.249298 255.000839,128.043533 
	C261.227448,128.043533 268.131256,128.043533 275.564514,128.292679 
	C276.200775,128.816986 276.397827,128.988312 276.685181,129.055817 
	C276.851562,135.679214 277.017975,142.302597 277.581543,149.172577 
	C277.978729,149.419159 277.905426,149.763657 277.700439,150.013077 
	C277.280243,150.419632 277.142212,150.627960 277.081360,150.887482 
M263.939209,137.546631 
	C264.083588,139.897583 264.227997,142.248535 264.372375,144.599487 
	C264.748169,144.552216 265.123962,144.504944 265.499756,144.457672 
	C265.499756,140.381744 265.499756,136.305832 265.499756,132.229904 
	C265.095703,132.197968 264.691681,132.166031 264.287628,132.134109 
	C264.171509,133.635422 264.055389,135.136749 263.939209,137.546631 
z"/>
<path fill="#2A292A" opacity="1.000000" stroke="none" 
	d="
M149.109100,149.970474 
	C142.719376,149.984909 136.329666,149.999344 129.324738,149.797394 
	C128.426147,149.378647 128.142776,149.176270 127.907425,148.509338 
	C127.920296,141.732056 127.885155,135.419281 127.935028,128.867340 
	C128.051208,128.461838 128.082367,128.295517 128.113525,128.129196 
	C134.753754,128.097839 141.393982,128.066483 148.580673,128.279083 
	C149.237610,128.801392 149.437241,128.980164 149.726028,129.059387 
	C149.883133,135.679504 150.040237,142.299606 150.567474,149.341980 
	C150.937637,149.764236 150.860596,150.102493 150.682144,150.101837 
	C150.503693,150.101181 150.157730,150.188782 149.895554,150.134323 
	C149.458603,150.043396 149.283844,150.006927 149.109100,149.970474 
M140.067169,135.373428 
	C140.060516,134.909836 140.053879,134.446259 140.500153,133.573563 
	C139.802261,133.322296 138.533218,132.775757 138.488510,132.862198 
	C136.418289,136.866379 134.454758,140.925735 132.478897,144.978714 
	C133.167816,145.315887 133.856735,145.653076 134.545654,145.990265 
	C135.360703,144.373825 136.175766,142.757401 137.736572,140.986252 
	C138.924866,141.224930 140.113159,141.463608 141.437317,142.341721 
	C142.040115,142.916733 142.642899,143.491760 143.245697,144.066772 
	C143.426056,143.883621 143.606430,143.700485 143.786789,143.517349 
	C143.237305,142.635132 142.687836,141.752930 142.102051,140.139297 
	C141.387604,138.740021 140.673157,137.340759 140.053650,135.969849 
	C140.053650,135.969849 140.043930,136.068481 140.067169,135.373428 
z"/>
<path fill="#2A292A" opacity="1.000000" stroke="none" 
	d="
M64.943535,149.938477 
	C58.245041,150.058762 51.565796,149.916718 44.344791,149.679260 
	C43.692230,149.404312 43.551586,149.252426 43.441067,148.654877 
	C43.360832,141.761368 43.220631,135.341187 43.158081,128.752243 
	C43.235733,128.583496 43.178112,128.216492 43.178112,128.216492 
	C50.269817,128.216492 57.361523,128.216492 65.014313,128.216492 
	C65.014313,134.178024 65.014313,140.078857 64.722549,146.529572 
	C64.592499,147.452652 64.754204,147.825851 64.915909,148.199066 
	C64.915909,148.199066 64.958229,148.673630 64.958923,148.911865 
	C64.960678,149.325439 64.961731,149.500793 64.943535,149.938477 
M50.484631,137.997437 
	C49.713207,139.890015 48.941784,141.782593 48.469982,142.940094 
	C51.861744,142.940094 55.313530,142.940094 59.563866,142.940094 
	C57.581837,139.679871 55.528809,136.302856 53.003101,132.148346 
	C51.907597,134.679916 51.334591,136.004059 50.484631,137.997437 
z"/>
<path fill="#282828" opacity="1.000000" stroke="none" 
	d="
M191.869568,148.798264 
	C191.956650,149.350021 191.956131,149.523392 191.937988,149.956268 
	C185.245361,150.070740 178.570358,149.925705 171.425125,149.620590 
	C170.954910,149.460510 171.022095,149.079010 171.022095,149.079010 
	C171.022095,142.173737 171.022095,135.268463 171.022095,128.200623 
	C177.379913,128.200623 184.329208,128.200623 191.781982,128.200623 
	C191.781982,134.878632 191.781982,141.649246 191.869568,148.798264 
M183.942169,142.328552 
	C184.272736,142.344009 184.603302,142.359451 184.933868,142.374893 
	C184.695038,141.544891 184.456223,140.714890 184.148895,139.129623 
	C183.099258,136.736649 182.049622,134.343658 180.999985,131.950684 
	C180.530365,132.061996 180.060745,132.173294 179.591125,132.284607 
	C179.691254,133.480438 179.791382,134.676285 179.904861,135.775101 
	C179.904861,135.775101 179.972778,135.704529 179.221100,135.274551 
	C178.800964,137.513550 178.380814,139.752533 178.413589,141.842361 
	C178.733643,141.700851 178.918533,141.456909 179.727295,140.952301 
	C180.497162,141.004807 181.267014,141.057312 182.380188,141.579865 
	C182.752960,141.690659 183.125717,141.801468 183.942169,142.328552 
z"/>
<path fill="#282828" opacity="1.000000" stroke="none" 
	d="
M106.995186,150.031174 
	C100.305481,149.970016 93.615776,149.908844 86.462280,149.921600 
	C85.995514,149.821152 85.992538,149.646774 85.985512,149.210846 
	C85.981453,142.076004 85.981453,135.202713 85.981453,128.018936 
	C92.209747,128.018936 99.111374,128.018936 106.597786,128.322266 
	C107.242630,128.819199 107.302689,129.012833 107.293381,129.656586 
	C107.181137,136.356674 107.138275,142.606659 107.011627,149.145264 
	C106.950287,149.632980 106.972733,149.832077 106.995186,150.031174 
M99.789024,136.728638 
	C99.525650,136.820328 99.262276,136.912003 98.229401,137.253632 
	C97.161118,137.181808 96.092827,137.110001 95.170471,136.308426 
	C96.764862,135.664627 98.359245,135.020844 100.824356,134.025467 
	C98.022018,134.025467 96.087677,134.025467 93.772156,133.274841 
	C93.226685,134.527405 92.681221,135.779984 92.135757,137.032562 
	C92.912903,137.031403 93.690056,137.030243 94.758049,136.891953 
	C94.758049,136.891953 95.045166,137.036743 94.309731,137.221878 
	C93.610237,137.726379 92.910744,138.230881 92.038170,139.515366 
	C92.038170,140.928345 92.038170,142.341309 92.038170,144.560104 
	C95.426811,143.942322 98.203316,143.436142 100.817253,142.590271 
	C100.555054,142.686569 100.292854,142.782883 99.197594,143.041351 
	C97.788391,142.987305 96.379181,142.933258 94.842415,142.449783 
	C94.665413,142.176102 94.414017,142.033844 93.914871,141.347595 
	C93.972656,140.889999 94.030441,140.432388 94.528168,139.859131 
	C94.810783,139.685715 94.959831,139.433395 95.775925,138.938721 
	C96.859520,138.995087 97.943108,139.051468 99.174683,139.464767 
	C99.456718,139.336792 99.738747,139.208801 99.877449,139.019196 
	C99.877449,139.019196 99.904404,138.865524 100.535378,138.884094 
	C100.289574,138.377563 100.043777,137.871033 99.759575,137.127258 
	C99.759575,137.127258 99.985840,137.046234 99.789024,136.728638 
z"/>
<path fill="#272626" opacity="1.000000" stroke="none" 
	d="
M149.142197,150.439819 
	C149.283844,150.006927 149.458603,150.043396 149.956528,150.267487 
	C150.279678,150.455109 150.668076,150.482193 150.668076,150.482193 
	C150.668076,150.482193 150.860596,150.102493 150.860596,150.102493 
	C150.860596,150.102493 150.937637,149.764236 150.960464,149.592285 
	C156.688141,149.355698 162.392990,149.291077 168.612610,149.589676 
	C169.665573,150.298798 170.203766,150.644699 170.741943,150.990601 
	C170.802689,157.011108 170.863434,163.031631 170.885284,169.517975 
	C164.528610,169.975739 158.210831,169.967682 151.362671,169.799545 
	C150.832291,169.639465 150.460098,169.478470 150.460098,169.478470 
	C150.460098,169.478470 150.147568,169.770264 150.147568,169.770264 
	C150.147568,169.770264 149.654816,169.840500 149.413940,169.902771 
	C149.173798,163.613083 149.174545,157.261124 149.142197,150.439819 
M163.135712,164.639267 
	C163.547729,164.820114 163.959732,165.000961 164.371735,165.181793 
	C164.150192,162.413239 163.928665,159.644684 163.633270,155.953308 
	C162.309448,157.218369 161.341644,158.143204 159.593582,159.014832 
	C158.636597,158.611694 157.679611,158.208542 156.793091,157.069412 
	C155.807007,155.957413 154.820908,154.845398 152.988266,152.778748 
	C152.988266,157.505066 152.904816,160.632141 153.081909,163.744385 
	C153.107269,164.190262 154.391129,164.564514 155.658966,164.718109 
	C156.923386,164.144043 158.187805,163.569977 159.895828,163.363113 
	C160.213074,163.558167 160.530304,163.753220 161.546341,163.985962 
	C162.012787,163.989685 162.479218,163.993408 163.135712,164.639267 
z"/>
<path fill="#656364" opacity="1.000000" stroke="none" 
	d="
M233.984055,150.290268 
	C233.974503,149.835693 233.953629,149.639969 234.008591,149.158875 
	C240.437424,148.930862 246.790421,148.988205 253.601227,149.169189 
	C252.134781,149.860977 250.231796,150.811127 248.281952,150.919724 
	C243.878891,151.164978 239.452637,150.994385 234.575821,151.020081 
	C234.068115,150.881180 234.020416,150.715164 233.984055,150.290268 
z"/>
<path fill="#5F5D5D" opacity="1.000000" stroke="none" 
	d="
M161.002396,138.877899 
	C161.415848,139.373444 161.829300,139.868973 162.674622,140.882141 
	C162.915665,137.774918 163.124252,135.085968 163.332840,132.397018 
	C163.712250,132.413666 164.091660,132.430313 164.471069,132.446976 
	C164.471069,136.181091 164.471069,139.915222 164.471069,145.164780 
	C162.685074,142.876694 161.467972,141.317444 160.412964,139.415527 
	C160.575058,139.072861 161.002396,138.877899 161.002396,138.877899 
z"/>
<path fill="#F4F4F4" opacity="1.000000" stroke="none" 
	d="
M247.926315,143.921036 
	C247.028351,141.920624 246.130386,139.920197 244.625320,136.567322 
	C247.056244,137.773895 249.096741,138.448654 250.569046,139.760910 
	C250.926331,140.079346 249.411606,142.498123 248.373230,143.971710 
	C247.988800,143.992294 247.926315,143.921036 247.926315,143.921036 
z"/>
<path fill="#9C9C9C" opacity="1.000000" stroke="none" 
	d="
M107.362755,129.206482 
	C107.302689,129.012833 107.242630,128.819199 107.062157,128.346344 
	C113.683876,128.047791 120.426010,128.028458 127.640831,128.069168 
	C128.082367,128.295517 128.051208,128.461838 127.477043,128.840851 
	C120.410286,129.104492 113.886520,129.155487 107.362755,129.206482 
z"/>
<path fill="#9C9C9C" opacity="1.000000" stroke="none" 
	d="
M42.707001,128.117523 
	C43.178112,128.216492 43.235733,128.583496 42.685398,128.788055 
	C35.789917,129.029999 29.444771,129.067398 23.071196,128.848251 
	C23.012396,128.422318 22.982027,128.252945 22.951656,128.083557 
	C29.379734,128.061874 35.807812,128.040207 42.707001,128.117523 
z"/>
<path fill="#FAFAFA" opacity="1.000000" stroke="none" 
	d="
M160.963806,138.532043 
	C161.002396,138.877899 160.575058,139.072861 160.340515,139.061707 
	C158.604828,137.529297 157.103699,136.008011 155.602570,134.486725 
	C156.181305,133.998016 156.760056,133.509293 157.338806,133.020569 
	C158.534271,134.742432 159.729736,136.464310 160.963806,138.532043 
z"/>
<path fill="#F6F6F6" opacity="1.000000" stroke="none" 
	d="
M73.252899,142.092087 
	C71.961769,141.259567 70.478973,140.209274 69.322617,138.875885 
	C69.099648,138.618774 70.155457,137.252686 70.993408,135.715775 
	C71.938408,138.340775 72.556686,140.058212 73.252899,142.092087 
z"/>
<path fill="#F6F6F6" opacity="1.000000" stroke="none" 
	d="
M284.856720,133.841812 
	C287.863739,131.860001 290.418060,132.431931 292.500183,135.630814 
	C290.327972,135.122025 288.155792,134.613235 285.503632,134.056732 
	C285.023682,134.009003 284.856720,133.841812 284.856720,133.841812 
z"/>
<path fill="#F6F6F6" opacity="1.000000" stroke="none" 
	d="
M285.115051,134.083893 
	C285.819061,135.665970 286.431763,137.173126 287.001801,138.575409 
	C283.014465,137.583664 282.950958,137.486801 284.526794,133.945892 
	C284.856720,133.841812 285.023682,134.009003 285.115051,134.083893 
z"/>
<path fill="#FAFAFA" opacity="1.000000" stroke="none" 
	d="
M201.410248,143.898682 
	C202.853714,144.000397 203.935837,144.056747 205.017960,144.113098 
	C204.993164,144.240555 204.968384,144.368027 204.943604,144.495483 
	C202.799667,144.495483 200.655731,144.495483 198.511795,144.495483 
	C198.537369,144.184723 198.562927,143.873962 198.588501,143.563217 
	C199.408630,143.659912 200.228775,143.756607 201.410248,143.898682 
z"/>
<path fill="#F4F4F4" opacity="1.000000" stroke="none" 
	d="
M241.541809,142.286499 
	C241.120102,141.511948 240.974518,140.896713 240.828949,140.281464 
	C241.652512,140.772888 242.476074,141.264297 243.299637,141.755722 
	C242.805725,141.985748 242.311829,142.215775 241.541809,142.286499 
z"/>
<path fill="#F6F6F6" opacity="1.000000" stroke="none" 
	d="
M78.140976,134.110748 
	C78.932213,134.056686 79.800308,134.299164 80.668404,134.541626 
	C80.509399,134.941864 80.350395,135.342102 80.191399,135.742340 
	C79.533539,135.297333 78.875687,134.852310 78.140976,134.110748 
z"/>
<path fill="#F4F4F4" opacity="1.000000" stroke="none" 
	d="
M249.366425,135.631989 
	C248.787125,134.792297 248.458252,133.829315 248.129364,132.866318 
	C248.485886,132.770340 248.842392,132.674377 249.198898,132.578400 
	C249.338211,133.555161 249.477524,134.531921 249.366425,135.631989 
z"/>
<path fill="#F6F6F6" opacity="1.000000" stroke="none" 
	d="
M284.910522,141.782562 
	C284.436066,142.113022 283.996582,142.172897 283.557068,142.232773 
	C283.786926,141.603195 284.016785,140.973618 284.246643,140.344040 
	C284.479553,140.733353 284.712494,141.122665 284.910522,141.782562 
z"/>
<path fill="#F6F6F6" opacity="1.000000" stroke="none" 
	d="
M75.982925,143.988159 
	C76.530998,144.217560 76.790993,144.447662 77.050987,144.677780 
	C76.347595,144.684067 75.644196,144.690353 74.940804,144.696625 
	C75.192154,144.460709 75.443504,144.224792 75.982925,143.988159 
z"/>
<path fill="#2A2A2A" opacity="1.000000" stroke="none" 
	d="
M212.896454,4.592853 
	C212.698029,5.116020 212.276154,5.503196 211.556396,5.936560 
	C211.730026,5.474119 212.201492,4.965490 212.896454,4.592853 
z"/>
<path fill="#F4F4F4" opacity="1.000000" stroke="none" 
	d="
M248.017303,144.030151 
	C247.085251,144.439438 246.124680,144.810852 245.164108,145.182266 
	C245.078735,144.897064 244.993362,144.611847 244.907990,144.326630 
	C245.687042,144.197968 246.466080,144.069290 247.585724,143.930832 
	C247.926315,143.921036 247.988800,143.992294 248.017303,144.030151 
z"/>
<path fill="#F6F6F6" opacity="1.000000" stroke="none" 
	d="
M291.056610,142.333923 
	C291.373413,142.723129 291.416534,143.111557 291.459625,143.500000 
	C291.182098,143.498871 290.904602,143.497726 290.627075,143.496582 
	C290.679016,143.108765 290.730957,142.720978 291.056610,142.333923 
z"/>
<path fill="#1F1F1F" opacity="1.000000" stroke="none" 
	d="
M170.828979,150.711212 
	C170.203766,150.644699 169.665573,150.298798 169.069565,149.698502 
	C169.453949,149.338120 169.896133,149.232132 170.680206,149.102570 
	C171.022095,149.079010 170.954910,149.460510 170.954758,149.654190 
	C170.941727,150.042542 170.928848,150.237198 170.828979,150.711212 
z"/>
<path fill="#F4F4F4" opacity="1.000000" stroke="none" 
	d="
M242.707336,133.158875 
	C242.421677,133.501495 242.167953,133.622269 241.914230,133.743042 
	C241.841248,133.499603 241.768280,133.256149 241.695297,133.012695 
	C242.043289,132.987473 242.391266,132.962234 242.707336,133.158875 
z"/>
<path fill="#F6F6F6" opacity="1.000000" stroke="none" 
	d="
M72.135208,134.160919 
	C71.736931,134.241959 71.494225,134.164810 71.251526,134.087646 
	C71.519363,133.816559 71.787201,133.545471 72.055038,133.274384 
	C72.133621,133.517166 72.212196,133.759949 72.135208,134.160919 
z"/>
<path fill="#F6F6F6" opacity="1.000000" stroke="none" 
	d="
M289.350830,137.866501 
	C289.641144,138.149155 289.761993,138.570923 289.822998,139.001190 
	C289.833557,139.075592 289.590485,139.185959 289.464539,139.279709 
	C289.363373,138.855972 289.262238,138.432236 289.350830,137.866501 
z"/>
<path fill="#F6F6F6" opacity="1.000000" stroke="none" 
	d="
M74.861374,133.296875 
	C75.455009,133.260071 75.876419,133.395721 76.297821,133.531357 
	C76.183113,133.646332 76.043556,133.875626 75.957901,133.857010 
	C75.527245,133.763367 75.110664,133.604965 74.861374,133.296875 
z"/>
<path fill="#F4F4F4" opacity="1.000000" stroke="none" 
	d="
M245.750305,133.920990 
	C245.291199,133.731628 245.082840,133.497604 244.874496,133.263596 
	C245.276855,133.247147 245.679901,133.213425 246.080933,133.229614 
	C246.156265,133.232666 246.296570,133.451019 246.276779,133.541611 
	C246.249329,133.667282 246.098877,133.766052 245.750305,133.920990 
z"/>
<path fill="#FAFAFA" opacity="1.000000" stroke="none" 
	d="
M156.132538,144.717606 
	C155.935638,144.399490 155.962067,144.049454 155.988495,143.699402 
	C156.233093,143.773087 156.477676,143.846756 156.722275,143.920425 
	C156.600143,144.175507 156.478012,144.430588 156.132538,144.717606 
z"/>
<path fill="#F6F6F6" opacity="1.000000" stroke="none" 
	d="
M291.667816,138.708618 
	C291.653259,138.991898 291.502258,139.147125 291.351257,139.302338 
	C291.411285,139.061752 291.471313,138.821167 291.667816,138.708618 
z"/>
<path fill="#F6F6F6" opacity="1.000000" stroke="none" 
	d="
M78.706604,142.342590 
	C78.989540,142.357239 79.144798,142.507843 79.300049,142.658432 
	C79.059669,142.598465 78.819290,142.538513 78.706604,142.342590 
z"/>
<path fill="#5F5D5D" opacity="1.000000" stroke="none" 
	d="
M22.698030,128.032227 
	C22.982027,128.252945 23.012396,128.422318 22.973595,129.097916 
	C22.816647,129.759796 22.728868,129.915466 22.641088,130.071136 
	C22.641088,130.071136 22.235891,130.072372 22.066927,129.801239 
	C21.897963,129.530090 21.871937,129.057785 21.871937,129.057785 
	C21.871937,129.057785 21.964169,128.603424 21.958044,128.371704 
	C22.116081,128.086929 22.280243,128.033905 22.698030,128.032227 
z"/>
<path fill="#F6F6F6" opacity="1.000000" stroke="none" 
	d="
M286.679932,144.620361 
	C286.822632,144.435638 287.074341,144.406006 287.326019,144.376358 
	C287.147003,144.509384 286.967957,144.642410 286.679932,144.620361 
z"/>
<path fill="#F4F4F4" opacity="1.000000" stroke="none" 
	d="
M243.304474,136.673111 
	C243.013947,136.658218 242.853455,136.502151 242.692963,136.346100 
	C242.940140,136.408035 243.187332,136.469986 243.304474,136.673111 
z"/>
<path fill="#5F5D5D" opacity="1.000000" stroke="none" 
	d="
M135.133789,6.650147 
	C134.760620,6.468721 134.456879,5.949692 134.114761,5.125031 
	C134.451996,5.317115 134.827591,5.814831 135.133789,6.650147 
z"/>
<path fill="#1F1F1F" opacity="1.000000" stroke="none" 
	d="
M34.997879,114.741013 
	C34.751972,114.811165 34.575909,114.652725 34.441456,114.464561 
	C34.417126,114.430519 34.563553,114.274467 34.794243,114.093124 
	C34.998886,114.175079 35.040436,114.338654 34.997879,114.741013 
z"/>
<path fill="#656364" opacity="1.000000" stroke="none" 
	d="
M149.830566,128.785446 
	C149.437241,128.980164 149.237610,128.801392 149.043900,128.333221 
	C149.285477,128.266083 149.610291,128.388794 149.830566,128.785446 
z"/>
<path fill="#5F5D5D" opacity="1.000000" stroke="none" 
	d="
M276.804932,128.789490 
	C276.397827,128.988312 276.200775,128.816986 276.027405,128.350525 
	C276.282135,128.280533 276.603394,128.401840 276.804932,128.789490 
z"/>
<path fill="#F6F6F6" opacity="1.000000" stroke="none" 
	d="
M64.946320,147.875763 
	C64.754204,147.825851 64.592499,147.452652 64.695793,146.991302 
	C64.966103,147.119583 64.971413,147.336014 64.946320,147.875763 
z"/>
<path fill="#F6F6F6" opacity="1.000000" stroke="none" 
	d="
M22.694063,130.531921 
	C22.728868,129.915466 22.816647,129.759796 23.002024,129.354477 
	C29.444771,129.067398 35.789917,129.029999 42.607746,128.956787 
	C43.220631,135.341187 43.360832,141.761368 43.090157,148.697784 
	C42.458027,149.295227 42.236774,149.376419 42.015522,149.457596 
	C35.904438,149.371109 29.793358,149.284607 23.188339,148.860123 
	C22.629749,148.353210 22.565094,148.184265 22.500439,148.015335 
	C22.582638,142.341125 22.664837,136.666931 22.694063,130.531921 
M29.035561,136.060272 
	C28.725290,134.699051 28.415020,133.337814 28.104748,131.976593 
	C27.640640,132.065826 27.176531,132.155060 26.712421,132.244308 
	C26.712421,136.182831 26.712421,140.121368 26.712421,144.059891 
	C27.041771,144.069504 27.371120,144.079132 27.700468,144.088745 
	C27.923386,141.564789 28.146301,139.040817 29.035561,136.060272 
z"/>
<path fill="#E0DFDF" opacity="1.000000" stroke="none" 
	d="
M12.055387,141.571198 
	C11.864393,142.879929 11.674478,143.748459 11.484561,144.617004 
	C11.164316,144.574127 10.844070,144.531250 10.523826,144.488373 
	C10.523826,140.413330 10.523826,136.338287 10.523826,132.263245 
	C11.034706,132.238281 11.545586,132.213333 12.056466,132.188370 
	C12.056466,135.169250 12.056466,138.150131 12.055387,141.571198 
z"/>
<path fill="#060606" opacity="1.000000" stroke="none" 
	d="
M34.021133,159.004013 
	C34.426376,157.284393 34.623257,155.470490 35.337967,153.890884 
	C35.629616,153.246307 37.043571,153.109543 37.946922,152.741730 
	C37.812115,153.469528 37.677311,154.197327 36.865067,155.147491 
	C36.095062,157.485962 36.002491,159.602036 35.685829,161.705811 
	C35.279583,161.454895 35.077374,161.234711 34.826447,160.749084 
	C34.538910,159.978149 34.280022,159.491089 34.021133,159.004013 
z"/>
<path fill="#060606" opacity="1.000000" stroke="none" 
	d="
M32.522934,160.894348 
	C31.893431,161.775345 31.263927,162.656326 30.200439,163.458710 
	C29.546469,163.420120 29.326483,163.460129 29.106495,163.500153 
	C29.491364,161.733429 29.876232,159.966705 30.365303,157.808914 
	C30.674322,157.610626 30.884830,157.796982 31.151587,158.302414 
	C31.642408,159.383408 32.082672,160.138870 32.522934,160.894348 
z"/>
<path fill="#E0DFDF" opacity="1.000000" stroke="none" 
	d="
M32.714870,161.035309 
	C32.082672,160.138870 31.642408,159.383408 31.359180,158.182678 
	C31.749254,157.509552 31.920374,157.242065 32.029572,156.934982 
	C32.524483,157.521545 33.019394,158.108109 33.767719,158.849335 
	C34.280022,159.491089 34.538910,159.978149 34.625984,160.874176 
	C34.225250,161.509567 34.061596,161.776108 33.963203,162.082733 
	C33.611073,161.780579 33.258942,161.478424 32.714870,161.035309 
z"/>
<path fill="#F4F4F4" opacity="1.000000" stroke="none" 
	d="
M31.929935,156.590240 
	C31.920374,157.242065 31.749254,157.509552 31.308620,157.857147 
	C30.884830,157.796982 30.674322,157.610626 30.265636,157.468079 
	C29.269838,156.596420 28.477905,155.674515 27.685970,154.752625 
	C28.112167,154.373291 28.538364,153.993958 28.964563,153.614639 
	C29.919809,154.491577 30.875055,155.368530 31.929935,156.590240 
z"/>
<path fill="#E0DFDF" opacity="1.000000" stroke="none" 
	d="
M35.909924,161.718124 
	C36.002491,159.602036 36.095062,157.485962 36.548214,155.210876 
	C36.928833,157.408463 36.948872,159.765015 36.683327,162.400085 
	C36.235142,162.358444 36.072533,162.038284 35.909924,161.718124 
z"/>
<path fill="#F4F4F4" opacity="1.000000" stroke="none" 
	d="
M35.685829,161.705811 
	C36.072533,162.038284 36.235142,162.358444 36.620728,162.837936 
	C36.664272,163.634720 36.484833,164.272171 36.305397,164.909622 
	C35.581993,164.189011 34.858589,163.468384 34.049194,162.415253 
	C34.061596,161.776108 34.225250,161.509567 34.654633,161.158020 
	C35.077374,161.234711 35.279583,161.454895 35.685829,161.705811 
z"/>
<path fill="#1F1F1F" opacity="1.000000" stroke="none" 
	d="
M42.076286,149.710938 
	C42.236774,149.376419 42.458027,149.295227 43.030193,149.171112 
	C43.551586,149.252426 43.692230,149.404312 43.874550,149.722595 
	C43.936638,150.052979 43.927200,150.244598 43.837147,150.712494 
	C43.216702,150.647263 42.676872,150.305756 42.076286,149.710938 
z"/>
<path fill="#1F1F1F" opacity="1.000000" stroke="none" 
	d="
M22.296318,148.057068 
	C22.565094,148.184265 22.629749,148.353210 22.719418,148.792328 
	C22.361794,148.921432 21.979156,148.780365 21.596519,148.639313 
	C21.761744,148.459137 21.926970,148.278976 22.296318,148.057068 
z"/>
<path fill="#1F1F1F" opacity="1.000000" stroke="none" 
	d="
M23.924244,169.820740 
	C23.755598,169.852676 23.491348,169.670929 23.181396,169.243652 
	C23.428802,169.130386 23.659786,169.333374 23.924244,169.820740 
z"/>
<path fill="#E0DFDF" opacity="1.000000" stroke="none" 
	d="
M28.820015,163.436462 
	C29.326483,163.460129 29.546469,163.420120 29.928080,163.673981 
	C29.899128,164.274078 29.708549,164.580307 29.107986,164.569580 
	C28.534472,164.122025 28.370943,163.991409 28.207413,163.860794 
	C28.316118,163.698120 28.424826,163.535461 28.820015,163.436462 
z"/>
<path fill="#F4F4F4" opacity="1.000000" stroke="none" 
	d="
M28.130215,164.064926 
	C28.370943,163.991409 28.534472,164.122025 28.836451,164.534393 
	C28.667604,164.633789 28.360310,164.451416 28.130215,164.064926 
z"/>
<path fill="#1F1F1F" opacity="1.000000" stroke="none" 
	d="
M21.727915,129.138702 
	C21.871937,129.057785 21.897963,129.530090 21.867664,129.764618 
	C21.467674,129.802567 21.383183,129.542725 21.727915,129.138702 
z"/>
<path fill="#1F1F1F" opacity="1.000000" stroke="none" 
	d="
M23.477913,150.459412 
	C23.535294,150.425812 23.420530,150.492996 23.477913,150.459412 
z"/>
<path fill="#1F1F1F" opacity="1.000000" stroke="none" 
	d="
M277.831726,169.767334 
	C277.827972,170.106384 277.623566,170.166962 277.129120,170.366364 
	C276.637146,170.279007 276.435181,170.052811 276.312256,169.378632 
	C276.804565,169.116730 277.217804,169.302795 277.831726,169.767334 
z"/>
<path fill="#E0DFDF" opacity="1.000000" stroke="none" 
	d="
M200.017395,156.107269 
	C198.737122,155.563629 197.899124,155.073792 197.061111,154.583939 
	C197.763840,154.092789 198.440720,153.228912 199.173981,153.178055 
	C201.705643,153.002518 204.256958,153.110474 206.800797,153.110474 
	C206.856552,153.533432 206.912292,153.956375 206.968048,154.379333 
	C205.783981,154.730743 204.599915,155.082153 202.782928,155.621399 
	C202.782928,158.849564 202.782928,162.304886 202.782928,165.760208 
	C202.352737,165.778656 201.922562,165.797104 201.492371,165.815552 
	C201.148132,162.597382 200.803894,159.379211 200.017395,156.107269 
z"/>
<path fill="#FEFEFE" opacity="1.000000" stroke="none" 
	d="
M244.002319,160.821930 
	C243.920395,162.364487 243.838470,163.464706 243.756561,164.564941 
	C243.586258,164.560074 243.415939,164.555206 243.245636,164.550339 
	C243.245636,161.242584 243.245636,157.934830 243.245636,154.627075 
	C243.497864,154.613632 243.750107,154.600174 244.002335,154.586716 
	C244.002335,156.517670 244.002335,158.448624 244.002319,160.821930 
z"/>
<path fill="#282828" opacity="1.000000" stroke="none" 
	d="
M128.318237,168.484589 
	C123.509346,169.340302 118.766060,169.764282 114.017395,170.115372 
	C112.194443,170.250137 110.359215,170.218796 108.024811,170.306473 
	C107.342773,164.222748 107.165497,158.095703 107.510376,151.480438 
	C114.758125,151.005768 121.483734,151.019363 128.209335,151.032944 
	C128.266800,156.696548 128.324249,162.360153 128.318237,168.484589 
M117.002350,159.495331 
	C117.002350,157.880600 117.002350,156.265854 117.002350,154.651123 
	C116.782440,154.663361 116.562523,154.675613 116.342613,154.687851 
	C116.342613,157.890869 116.342613,161.093887 116.342613,164.296906 
	C116.562523,164.296478 116.782440,164.296051 117.002350,164.295624 
	C117.002350,162.990372 117.002350,161.685104 117.002350,159.495331 
z"/>
<path fill="#656364" opacity="1.000000" stroke="none" 
	d="
M128.407440,150.927948 
	C121.483734,151.019363 114.758125,151.005768 107.572205,151.018707 
	C107.063591,150.879547 107.015282,150.713867 106.981079,150.289673 
	C106.972733,149.832077 106.950287,149.632980 107.473953,149.154617 
	C114.633179,148.908188 121.246292,148.941040 127.859413,148.973877 
	C128.142776,149.176270 128.426147,149.378647 128.856476,149.799774 
	C128.868408,150.285477 128.735764,150.553619 128.407440,150.927948 
z"/>
<path fill="#F4F4F4" opacity="1.000000" stroke="none" 
	d="
M142.000610,156.903458 
	C141.662613,155.927460 141.478546,155.235840 141.294479,154.544235 
	C141.641266,154.358536 141.988052,154.172821 142.334839,153.987122 
	C143.231110,155.249237 144.127380,156.511368 145.023651,157.773483 
	C144.812134,158.006607 144.600616,158.239731 144.389099,158.472870 
	C143.644257,158.044525 142.899399,157.616180 142.000610,156.903458 
z"/>
<path fill="#F4F4F4" opacity="1.000000" stroke="none" 
	d="
M136.240082,162.848022 
	C136.633987,163.661911 136.814651,164.248444 137.289520,165.790161 
	C135.491486,164.158417 134.412125,163.178879 133.332764,162.199341 
	C133.432159,162.009125 133.531540,161.818893 133.630936,161.628677 
	C134.429565,161.959335 135.228210,162.289993 136.240082,162.848022 
z"/>
<path fill="#F4F4F4" opacity="1.000000" stroke="none" 
	d="
M135.570801,154.732391 
	C135.837708,154.361786 135.903076,154.141983 136.024292,154.104935 
	C136.255646,154.034195 136.518845,154.067596 136.768829,154.057785 
	C136.067902,155.130722 135.366974,156.203659 134.666061,157.276596 
	C134.288193,156.943771 133.910339,156.610931 133.532471,156.278107 
	C134.153137,155.840637 134.773788,155.403183 135.570801,154.732391 
z"/>
<path fill="#F4F4F4" opacity="1.000000" stroke="none" 
	d="
M144.093475,162.057556 
	C143.539795,163.018524 142.986115,163.979492 142.432434,164.940460 
	C141.744354,164.352295 141.056274,163.764145 140.368195,163.175995 
	C141.350113,162.846115 142.332031,162.516235 143.639572,162.073914 
	C143.965195,161.961487 144.093475,162.057556 144.093475,162.057556 
z"/>
<path fill="#F4F4F4" opacity="1.000000" stroke="none" 
	d="
M143.904175,161.909546 
	C144.040283,161.446335 144.237411,161.035095 144.434540,160.623840 
	C144.454132,161.008148 144.473740,161.392456 144.293396,161.917160 
	C144.093475,162.057556 143.965195,161.961487 143.904175,161.909546 
z"/>
<path fill="#656364" opacity="1.000000" stroke="none" 
	d="
M97.145233,160.140244 
	C96.006767,161.917725 94.868286,163.695206 93.729813,165.472687 
	C93.280365,165.272339 92.830925,165.071976 92.381477,164.871628 
	C92.381477,161.214966 92.381477,157.558304 92.381477,153.543488 
	C94.234016,153.543488 96.131325,153.543488 97.393105,153.543488 
	C96.433777,154.837021 95.290817,156.378143 93.952888,158.535309 
	C94.887024,159.480988 96.016129,159.810608 97.145233,160.140244 
z"/>
<path fill="#060606" opacity="1.000000" stroke="none" 
	d="
M97.508759,160.085709 
	C96.016129,159.810608 94.887024,159.480988 93.988152,158.932343 
	C95.683777,159.020096 97.149155,159.326874 98.614532,159.633652 
	C98.529884,159.734497 98.464058,159.873947 98.355942,159.926651 
	C98.211952,159.996841 98.035049,159.999496 97.508759,160.085709 
z"/>
<path fill="#F4F4F4" opacity="1.000000" stroke="none" 
	d="
M226.124802,158.151230 
	C225.833511,159.272263 225.542236,160.393295 225.203857,161.695587 
	C224.161774,161.512741 223.092102,161.325058 221.660919,161.073929 
	C221.205231,162.710938 220.787003,164.213348 220.343658,165.806000 
	C217.464172,163.785065 217.074997,158.580368 219.060425,154.666534 
	C221.068420,155.765930 223.070999,156.862350 225.542725,157.989777 
	C226.011856,158.020752 226.124802,158.151230 226.124802,158.151230 
z"/>
<path fill="#F4F4F4" opacity="1.000000" stroke="none" 
	d="
M225.950958,157.959625 
	C226.491470,157.053452 227.092865,156.208435 227.694260,155.363419 
	C228.075775,155.754822 228.457306,156.146240 228.838821,156.537643 
	C228.163910,157.040222 227.489014,157.542816 226.469452,158.098328 
	C226.124802,158.151230 226.011856,158.020752 225.950958,157.959625 
z"/>
<path fill="#E0DFDF" opacity="1.000000" stroke="none" 
	d="
M287.990356,159.135086 
	C286.649811,158.461823 284.609100,158.101654 284.134857,157.041031 
	C283.444519,155.497086 283.735779,153.314789 286.505524,154.631378 
	C286.055389,155.367081 285.748352,155.655670 285.441315,155.944244 
	C285.309235,156.160324 285.148499,156.365570 285.060455,156.598297 
	C285.029144,156.681046 285.174500,156.830612 285.678406,157.324677 
	C287.347900,158.126678 288.578278,158.553680 289.344727,158.909729 
	C288.584015,158.937561 288.287201,159.036331 287.990356,159.135086 
z"/>
<path fill="#373435" opacity="1.000000" stroke="none" 
	d="
M288.028137,159.455475 
	C288.287201,159.036331 288.584015,158.937561 289.483337,158.809067 
	C290.085815,158.779358 290.426605,158.782654 290.426605,158.782654 
	C290.426605,158.782654 290.766663,158.759995 290.766663,158.759995 
	C292.587616,159.405090 294.106171,160.132965 291.144531,161.782333 
	C290.185883,161.470718 289.723145,161.328400 289.260376,161.186066 
	C288.862244,160.716003 288.464081,160.245941 288.028137,159.455475 
z"/>
<path fill="#373435" opacity="1.000000" stroke="none" 
	d="
M289.597900,155.376434 
	C290.597321,155.196930 291.596710,155.017426 292.596130,154.837921 
	C292.212708,155.571152 291.829285,156.304382 290.894623,157.111572 
	C290.343414,157.185547 289.932495,157.120392 289.932495,157.120392 
	C289.930145,156.913788 289.927826,156.707184 289.881104,156.039978 
	C289.836700,155.579376 289.597900,155.376419 289.597900,155.376434 
z"/>
<path fill="#060606" opacity="1.000000" stroke="none" 
	d="
M289.503418,157.087128 
	C289.932495,157.120392 290.343414,157.185547 290.547913,157.212677 
	C290.808838,157.580109 290.865295,157.920380 290.844208,158.510330 
	C290.766663,158.759995 290.426605,158.782654 290.426605,158.782654 
	C290.426605,158.782654 290.085815,158.779358 289.947205,158.880020 
	C288.578278,158.553680 287.347900,158.126678 285.870422,157.391388 
	C286.773621,157.073364 287.923981,157.063614 289.503418,157.087128 
z"/>
<path fill="#E0DFDF" opacity="1.000000" stroke="none" 
	d="
M290.911835,163.382828 
	C291.097321,163.878281 291.282837,164.373718 291.468323,164.869171 
	C290.880035,165.017303 290.291779,165.165436 289.703491,165.313583 
	C289.674408,164.862564 289.645325,164.411560 289.994019,163.694946 
	C290.551819,163.413849 290.731812,163.398346 290.911835,163.382828 
z"/>
<path fill="#060606" opacity="1.000000" stroke="none" 
	d="
M290.913635,163.045776 
	C290.731812,163.398346 290.551819,163.413849 290.107452,163.475586 
	C289.692566,162.936600 289.542023,162.351395 289.325928,161.476135 
	C289.723145,161.328400 290.185883,161.470718 290.784943,161.823837 
	C290.919312,162.259338 290.917358,162.484039 290.913635,163.045776 
z"/>
<path fill="#060606" opacity="1.000000" stroke="none" 
	d="
M289.478577,155.441132 
	C289.597900,155.376419 289.836700,155.579376 289.876709,155.730087 
	C289.567749,155.939499 289.381927,155.814514 289.478577,155.441132 
z"/>
<path fill="#060606" opacity="1.000000" stroke="none" 
	d="
M285.757629,155.848999 
	C285.748352,155.655670 286.055389,155.367081 286.667419,154.977188 
	C286.672913,155.168503 286.373413,155.461136 285.757629,155.848999 
z"/>
<path fill="#1F1F1F" opacity="1.000000" stroke="none" 
	d="
M277.271057,150.829315 
	C277.142212,150.627960 277.280243,150.419632 277.668274,150.186234 
	C277.834381,150.399490 277.707581,150.619873 277.271057,150.829315 
z"/>
<path fill="#1F1F1F" opacity="1.000000" stroke="none" 
	d="
M296.107971,150.310181 
	C296.339600,150.109833 296.609406,150.242401 296.873230,150.742889 
	C296.647369,150.888382 296.407013,150.732468 296.107971,150.310181 
z"/>
<path fill="#1F1F1F" opacity="1.000000" stroke="none" 
	d="
M150.342911,169.837387 
	C150.147568,169.770264 150.460098,169.478470 150.460098,169.478470 
	C150.460098,169.478470 150.832291,169.639465 150.891571,169.782150 
	C150.950851,169.924835 150.538254,169.904510 150.342911,169.837387 
z"/>
<path fill="#FDFDFD" opacity="1.000000" stroke="none" 
	d="
M275.036072,97.037491 
	C269.576294,99.135902 264.455139,102.135956 259.134491,102.545883 
	C248.398071,103.373055 237.553192,102.792328 226.379486,102.792328 
	C226.379486,90.065598 226.379486,77.386131 226.379486,63.726864 
	C239.264847,64.238937 252.293167,63.731792 264.995911,65.527611 
	C280.005310,67.649529 284.891693,83.903870 275.036072,97.037491 
z"/>
<path fill="#FDFDFD" opacity="1.000000" stroke="none" 
	d="
M244.978073,51.187920 
	C238.511230,51.187931 232.540070,51.187931 226.288315,51.187931 
	C226.288315,39.881748 226.288315,28.826151 226.288315,18.171379 
	C238.362167,18.171379 250.319534,17.643076 262.202698,18.354456 
	C270.317993,18.840279 275.107208,25.300928 275.528931,33.831604 
	C275.921509,41.773304 271.742950,47.400112 264.235718,50.021729 
	C258.012024,52.195114 251.710785,50.638462 244.978073,51.187920 
z"/>
<path fill="#FDFDFD" opacity="1.000000" stroke="none" 
	d="
M117.372818,43.384663 
	C120.329170,34.651787 123.081734,26.252728 125.996239,17.359516 
	C132.488510,34.973816 138.841553,52.210331 145.321457,69.791069 
	C132.620209,69.791069 120.383850,69.791069 107.626549,69.791069 
	C110.860924,60.953903 114.014977,52.336193 117.372818,43.384663 
z"/>
<path fill="#E0DFDF" opacity="1.000000" stroke="none" 
	d="
M263.939240,137.092346 
	C264.055389,135.136749 264.171509,133.635422 264.287628,132.134109 
	C264.691681,132.166031 265.095703,132.197968 265.499756,132.229904 
	C265.499756,136.305832 265.499756,140.381744 265.499756,144.457672 
	C265.123962,144.504944 264.748169,144.552216 264.372375,144.599487 
	C264.227997,142.248535 264.083588,139.897583 263.939240,137.092346 
z"/>
<path fill="#FEFEFE" opacity="1.000000" stroke="none" 
	d="
M127.907425,148.509338 
	C121.246292,148.941040 114.633179,148.908188 107.557732,148.865997 
	C107.138275,142.606659 107.181137,136.356674 107.293381,129.656586 
	C113.886520,129.155487 120.410286,129.104492 127.392029,129.080017 
	C127.885155,135.419281 127.920296,141.732056 127.907425,148.509338 
z"/>
<path fill="#1F1F1F" opacity="1.000000" stroke="none" 
	d="
M136.990814,141.140961 
	C136.175766,142.757401 135.360703,144.373825 134.545654,145.990265 
	C133.856735,145.653076 133.167816,145.315887 132.478897,144.978714 
	C134.454758,140.925735 136.418289,136.866379 138.488510,132.862198 
	C138.533218,132.775757 139.802261,133.322296 139.876495,133.759888 
	C139.516541,134.653641 139.780228,135.361053 140.043930,136.068481 
	C140.043930,136.068481 140.053650,135.969849 139.673370,136.231857 
	C138.871506,137.427826 138.470428,138.371811 138.021255,139.292297 
	C137.712326,139.925385 137.336670,140.525894 136.990814,141.140961 
z"/>
<path fill="#F4F4F4" opacity="1.000000" stroke="none" 
	d="
M137.363693,141.063599 
	C137.336670,140.525894 137.712326,139.925385 138.021255,139.292297 
	C138.470428,138.371811 138.871506,137.427826 139.625900,136.217682 
	C140.673157,137.340759 141.387604,138.740021 141.906586,140.708466 
	C141.574539,141.419189 141.437988,141.560730 141.301453,141.702271 
	C140.113159,141.463608 138.924866,141.224930 137.363693,141.063599 
z"/>
<path fill="#F4F4F4" opacity="1.000000" stroke="none" 
	d="
M141.924728,141.074188 
	C142.687836,141.752930 143.237305,142.635132 143.786789,143.517349 
	C143.606430,143.700485 143.426056,143.883621 143.245697,144.066772 
	C142.642899,143.491760 142.040115,142.916733 141.369385,142.022003 
	C141.437988,141.560730 141.574539,141.419189 141.924728,141.074188 
z"/>
<path fill="#F4F4F4" opacity="1.000000" stroke="none" 
	d="
M140.055542,135.720947 
	C139.780228,135.361053 139.516541,134.653641 139.650055,133.964447 
	C140.053879,134.446259 140.060516,134.909836 140.055542,135.720947 
z"/>
<path fill="#1F1F1F" opacity="1.000000" stroke="none" 
	d="
M150.682144,150.101837 
	C150.860596,150.102493 150.668076,150.482193 150.668076,150.482193 
	C150.668076,150.482193 150.279678,150.455109 150.218704,150.321945 
	C150.157730,150.188782 150.503693,150.101181 150.682144,150.101837 
z"/>
<path fill="#E0DFDF" opacity="1.000000" stroke="none" 
	d="
M50.623108,137.662811 
	C51.334591,136.004059 51.907597,134.679916 53.003101,132.148346 
	C55.528809,136.302856 57.581837,139.679871 59.563866,142.940094 
	C55.313530,142.940094 51.861744,142.940094 48.469982,142.940094 
	C48.941784,141.782593 49.713207,139.890015 50.623108,137.662811 
z"/>
<path fill="#E0DFDF" opacity="1.000000" stroke="none" 
	d="
M182.036880,141.109818 
	C181.267014,141.057312 180.497162,141.004807 179.083282,141.020370 
	C178.279724,141.389465 178.120193,141.690506 177.960663,141.991531 
	C178.380814,139.752533 178.800964,137.513550 179.602112,135.816833 
	C179.450089,138.908371 179.450089,138.908371 182.872940,138.117722 
	C181.578400,137.142670 180.734970,136.507401 179.891525,135.872116 
	C179.791382,134.676285 179.691254,133.480438 179.591125,132.284607 
	C180.060745,132.173294 180.530365,132.061996 180.999985,131.950684 
	C182.049622,134.343658 183.099258,136.736649 183.926727,139.624146 
	C183.472122,140.406082 183.239700,140.693481 182.762405,140.995972 
	C182.517532,141.011078 182.036880,141.109818 182.036880,141.109818 
z"/>
<path fill="#060606" opacity="1.000000" stroke="none" 
	d="
M179.898193,135.823608 
	C180.734970,136.507401 181.578400,137.142670 182.872940,138.117722 
	C179.450089,138.908371 179.450089,138.908371 179.977966,136.031830 
	C179.972778,135.704529 179.904861,135.775101 179.898193,135.823608 
z"/>
<path fill="#F6F6F6" opacity="1.000000" stroke="none" 
	d="
M183.007278,140.980881 
	C183.239700,140.693481 183.472122,140.406082 183.960968,140.001785 
	C184.456223,140.714890 184.695038,141.544891 184.933868,142.374893 
	C184.603302,142.359451 184.272736,142.344009 183.618866,141.876205 
	C183.199478,141.276184 183.103378,141.128525 183.007278,140.980881 
z"/>
<path fill="#060606" opacity="1.000000" stroke="none" 
	d="
M178.187134,141.916946 
	C178.120193,141.690506 178.279724,141.389465 178.703766,141.099487 
	C178.918533,141.456909 178.733643,141.700851 178.187134,141.916946 
z"/>
<path fill="#060606" opacity="1.000000" stroke="none" 
	d="
M182.762405,140.995972 
	C183.103378,141.128525 183.199478,141.276184 183.397034,141.668060 
	C183.125717,141.801468 182.752960,141.690659 182.208527,141.344849 
	C182.036880,141.109818 182.517532,141.011078 182.762405,140.995972 
z"/>
<path fill="#F4F4F4" opacity="1.000000" stroke="none" 
	d="
M94.088226,139.974792 
	C94.030441,140.432388 93.972656,140.889999 93.981262,141.951294 
	C94.355103,142.663071 94.662537,142.771133 94.969978,142.879211 
	C96.379181,142.933258 97.788391,142.987305 99.849472,143.009338 
	C100.501343,142.977310 100.979813,142.929947 100.979813,142.929962 
	C98.203316,143.436142 95.426811,143.942322 92.038170,144.560104 
	C92.038170,142.341309 92.038170,140.928345 92.593246,139.212723 
	C93.462746,138.952057 93.777168,138.994019 94.039680,139.270508 
	C93.987762,139.505035 94.088219,139.974792 94.088226,139.974792 
z"/>
<path fill="#FDFDFD" opacity="1.000000" stroke="none" 
	d="
M94.091599,139.035995 
	C93.777168,138.994019 93.462746,138.952057 92.679779,138.822723 
	C92.910744,138.230881 93.610237,137.726379 94.666733,137.109619 
	C95.023735,136.997345 95.024544,137.038193 95.024544,137.038177 
	C96.092827,137.110001 97.161118,137.181808 98.858170,137.202393 
	C99.653236,137.116180 99.819542,137.081207 99.985840,137.046234 
	C99.985840,137.046234 99.759575,137.127258 99.796158,137.502045 
	C99.856628,138.206390 99.880516,138.535965 99.904404,138.865524 
	C99.904404,138.865524 99.877449,139.019196 99.699379,139.011932 
	C99.356445,139.039062 99.191574,139.073456 99.026703,139.107849 
	C97.943108,139.051468 96.859520,138.995087 95.157608,138.964874 
	C94.539291,138.991013 94.091599,139.035995 94.091599,139.035995 
z"/>
<path fill="#060606" opacity="1.000000" stroke="none" 
	d="
M94.153336,134.025467 
	C96.087677,134.025467 98.022018,134.025467 100.824356,134.025467 
	C98.359245,135.020844 96.764862,135.664627 95.097504,136.673309 
	C95.024544,137.038193 95.023735,136.997345 95.034454,137.017044 
	C95.045166,137.036743 94.758049,136.891953 94.384476,136.636871 
	C94.058380,135.596359 94.105858,134.810913 94.153336,134.025467 
z"/>
<path fill="#F4F4F4" opacity="1.000000" stroke="none" 
	d="
M93.962746,133.650146 
	C94.105858,134.810913 94.058380,135.596359 94.239052,136.705444 
	C93.690056,137.030243 92.912903,137.031403 92.135757,137.032562 
	C92.681221,135.779984 93.226685,134.527405 93.962746,133.650146 
z"/>
<path fill="#9C9C9C" opacity="1.000000" stroke="none" 
	d="
M100.219894,138.874817 
	C99.880516,138.535965 99.856628,138.206390 99.815361,137.620667 
	C100.043777,137.871033 100.289574,138.377563 100.219894,138.874817 
z"/>
<path fill="#060606" opacity="1.000000" stroke="none" 
	d="
M94.906197,142.664490 
	C94.662537,142.771133 94.355103,142.663071 94.067947,142.289017 
	C94.414017,142.033844 94.665413,142.176102 94.906197,142.664490 
z"/>
<path fill="#060606" opacity="1.000000" stroke="none" 
	d="
M99.100693,139.286316 
	C99.191574,139.073456 99.356445,139.039062 99.771042,139.042755 
	C99.738747,139.208801 99.456718,139.336792 99.100693,139.286316 
z"/>
<path fill="#060606" opacity="1.000000" stroke="none" 
	d="
M94.039680,139.270508 
	C94.091599,139.035995 94.539291,138.991013 94.757294,139.046570 
	C94.959831,139.433395 94.810783,139.685715 94.308197,139.916962 
	C94.088219,139.974792 93.987762,139.505035 94.039680,139.270508 
z"/>
<path fill="#060606" opacity="1.000000" stroke="none" 
	d="
M100.898529,142.760101 
	C100.979813,142.929947 100.501343,142.977310 100.266006,142.928253 
	C100.292854,142.782883 100.555054,142.686569 100.898529,142.760101 
z"/>
<path fill="#060606" opacity="1.000000" stroke="none" 
	d="
M99.887436,136.887436 
	C99.819542,137.081207 99.653236,137.116180 99.242920,137.077423 
	C99.262276,136.912003 99.525650,136.820328 99.887436,136.887436 
z"/>
<path fill="#E0DFDF" opacity="1.000000" stroke="none" 
	d="
M155.092575,164.971909 
	C154.391129,164.564514 153.107269,164.190262 153.081909,163.744385 
	C152.904816,160.632141 152.988266,157.505066 152.988266,152.778748 
	C154.820908,154.845398 155.807007,155.957413 156.347168,157.447113 
	C155.631668,160.207169 155.362122,162.589539 155.092575,164.971909 
z"/>
<path fill="#060606" opacity="1.000000" stroke="none" 
	d="
M155.375763,164.845001 
	C155.362122,162.589539 155.631668,160.207169 156.311920,157.815094 
	C157.679611,158.208542 158.636597,158.611694 159.876251,159.431427 
	C159.923355,160.897308 159.687790,161.946609 159.452225,162.995911 
	C158.187805,163.569977 156.923386,164.144043 155.375763,164.845001 
z"/>
<path fill="#E0DFDF" opacity="1.000000" stroke="none" 
	d="
M159.674026,163.179504 
	C159.687790,161.946609 159.923355,160.897308 160.266388,159.458023 
	C161.341644,158.143204 162.309448,157.218369 163.633270,155.953308 
	C163.928665,159.644684 164.150192,162.413239 164.371735,165.181793 
	C163.959732,165.000961 163.547729,164.820114 163.108795,163.930389 
	C163.081863,161.788010 163.081863,160.354523 163.081863,158.921036 
	C162.784683,158.902893 162.487488,158.884750 162.190308,158.866592 
	C161.742706,160.560486 161.295120,162.254379 160.847534,163.948273 
	C160.530304,163.753220 160.213074,163.558167 159.674026,163.179504 
z"/>
<path fill="#1F1F1F" opacity="1.000000" stroke="none" 
	d="
M161.196930,163.967117 
	C161.295120,162.254379 161.742706,160.560486 162.190308,158.866592 
	C162.487488,158.884750 162.784683,158.902893 163.081863,158.921036 
	C163.081863,160.354523 163.081863,161.788010 163.013763,163.609314 
	C162.479218,163.993408 162.012787,163.989685 161.196930,163.967117 
z"/>
<path fill="#656364" opacity="1.000000" stroke="none" 
	d="
M28.702389,136.288574 
	C28.146301,139.040817 27.923386,141.564789 27.700468,144.088745 
	C27.371120,144.079132 27.041771,144.069504 26.712421,144.059891 
	C26.712421,140.121368 26.712421,136.182831 26.712421,132.244308 
	C27.176531,132.155060 27.640640,132.065826 28.104748,131.976593 
	C28.415020,133.337814 28.725290,134.699051 28.702389,136.288574 
z"/>
<path fill="#FEFEFE" opacity="1.000000" stroke="none" 
	d="
M117.002350,159.937592 
	C117.002350,161.685104 117.002350,162.990372 117.002350,164.295624 
	C116.782440,164.296051 116.562523,164.296478 116.342613,164.296906 
	C116.342613,161.093887 116.342613,157.890869 116.342613,154.687851 
	C116.562523,154.675613 116.782440,154.663361 117.002350,154.651123 
	C117.002350,156.265854 117.002350,157.880600 117.002350,159.937592 
z"/>
</svg>