<svg id="svg" version="1.1" xmlns="http://www.w3.org/2000/svg" xmlns:xlink="http://www.w3.org/1999/xlink" width="400" height="400" viewBox="0, 0, 400,400"><g id="svgg"><path id="path0" d="M180.800 90.398 C 180.030 90.585,177.690 91.032,175.600 91.393 C 166.179 93.019,156.115 96.381,148.800 100.348 C 144.828 102.501,143.118 103.500,141.600 104.553 C 140.610 105.240,139.329 106.044,138.754 106.340 C 138.179 106.635,137.279 107.265,136.754 107.738 C 136.229 108.212,135.080 109.130,134.200 109.779 C 124.059 117.250,113.650 131.390,109.009 144.000 C 108.402 145.650,107.764 147.360,107.590 147.800 C 106.183 151.371,104.000 164.544,104.000 169.461 C 104.000 174.920,106.157 188.245,107.616 191.800 C 107.797 192.240,108.580 194.339,109.355 196.464 C 111.389 202.036,116.155 210.699,119.133 214.237 C 119.720 214.935,121.010 216.530,122.000 217.781 C 125.440 222.130,131.689 228.049,136.600 231.610 C 137.920 232.567,139.060 233.496,139.133 233.675 C 139.207 233.854,139.449 234.000,139.672 234.000 C 139.894 234.000,140.642 234.405,141.333 234.900 C 142.641 235.838,142.937 236.013,146.160 237.772 C 147.238 238.360,148.858 239.248,149.760 239.745 C 152.254 241.120,159.014 243.859,162.600 244.949 C 165.425 245.807,167.036 246.275,171.800 247.618 C 175.305 248.607,191.086 250.082,194.876 249.775 C 207.566 248.749,210.502 248.384,214.400 247.347 C 215.610 247.025,217.230 246.596,218.000 246.394 C 221.135 245.569,226.626 243.844,227.000 243.567 C 227.220 243.403,228.770 242.726,230.443 242.062 C 251.496 233.703,270.573 214.010,277.002 194.000 C 277.603 192.130,278.250 190.240,278.440 189.800 C 279.778 186.707,280.964 177.220,280.966 169.600 C 280.968 163.123,280.692 160.163,279.549 154.400 C 278.314 148.169,274.228 137.628,271.255 133.000 C 270.689 132.120,269.884 130.770,269.465 130.000 C 267.074 125.606,259.296 116.707,253.194 111.384 C 245.282 104.483,231.206 96.870,221.000 93.973 C 220.340 93.786,218.810 93.353,217.600 93.011 C 216.390 92.669,214.320 92.194,213.000 91.956 C 211.680 91.718,209.160 91.248,207.400 90.912 C 203.762 90.217,183.191 89.820,180.800 90.398 M202.200 96.599 C 204.840 96.924,207.810 97.371,208.800 97.591 C 209.790 97.811,211.860 98.267,213.400 98.603 C 217.765 99.556,221.220 100.621,226.181 102.543 C 228.709 103.522,235.913 107.153,238.081 108.540 C 239.335 109.343,240.468 110.000,240.598 110.000 C 240.728 110.000,241.854 110.765,243.100 111.700 C 244.346 112.635,245.675 113.580,246.054 113.800 C 247.839 114.837,253.883 120.610,257.989 125.200 C 262.032 129.720,268.112 139.665,269.726 144.400 C 270.063 145.390,270.648 146.920,271.026 147.800 C 273.758 154.165,275.409 167.915,274.434 176.177 C 273.753 181.950,272.389 188.733,271.575 190.400 C 271.413 190.730,270.787 192.350,270.182 194.000 C 268.047 199.829,263.830 207.173,259.673 212.306 C 256.464 216.267,255.541 217.232,249.547 222.890 C 248.374 223.998,244.428 227.073,243.248 227.799 C 242.892 228.018,242.060 228.572,241.400 229.029 C 239.059 230.650,233.358 233.832,230.400 235.167 C 225.324 237.460,224.321 237.851,220.600 238.989 C 218.620 239.594,216.730 240.181,216.400 240.294 C 201.682 245.309,173.892 243.591,158.400 236.708 C 153.220 234.407,151.892 233.742,148.400 231.706 C 135.620 224.253,126.919 215.636,119.617 203.200 C 117.626 199.809,116.897 198.318,115.510 194.800 C 115.293 194.250,114.886 193.260,114.606 192.600 C 113.836 190.789,112.537 185.807,111.632 181.200 C 110.929 177.616,110.366 170.227,110.590 167.519 C 111.050 161.961,111.257 160.122,111.618 158.400 C 112.705 153.211,113.749 149.189,114.473 147.401 C 114.918 146.300,115.410 145.040,115.565 144.600 C 121.738 127.146,141.452 108.739,161.400 101.803 C 163.160 101.191,164.771 100.535,164.980 100.345 C 165.189 100.155,165.695 100.000,166.105 100.000 C 166.515 100.000,167.694 99.747,168.725 99.438 C 169.756 99.130,171.680 98.665,173.000 98.406 C 174.320 98.147,176.175 97.743,177.122 97.509 C 182.931 96.073,194.529 95.652,202.200 96.599 M189.588 110.591 C 181.188 113.289,180.955 124.700,189.249 127.163 C 192.056 127.996,192.000 127.843,192.000 134.620 C 192.000 141.546,191.830 142.000,189.235 142.000 C 184.929 142.000,177.725 145.526,173.503 149.700 C 170.165 153.000,170.691 153.009,164.062 149.552 C 157.135 145.941,157.672 146.487,157.900 143.294 C 158.646 132.880,143.900 129.573,139.362 139.136 C 135.776 146.693,146.604 154.417,153.855 149.474 C 154.925 148.745,155.994 148.034,156.231 147.893 C 156.467 147.753,157.457 148.046,158.431 148.543 C 169.806 154.358,170.229 154.669,168.866 156.220 C 166.678 158.711,166.238 168.677,168.115 173.231 C 169.706 177.089,170.310 176.352,161.975 180.726 L 156.550 183.573 155.175 182.458 C 145.964 174.984,133.055 186.346,141.369 194.609 C 147.827 201.027,158.553 196.682,157.862 187.928 C 157.598 184.586,156.984 185.093,168.301 179.307 L 170.402 178.232 172.301 180.228 C 175.906 184.018,178.592 185.813,183.400 187.648 C 187.028 189.032,186.800 188.457,186.800 196.214 L 186.800 203.130 183.700 203.099 C 180.156 203.064,178.787 203.598,176.895 205.753 C 174.214 208.807,174.720 209.592,182.003 213.673 C 183.743 214.648,186.062 216.115,187.885 217.394 C 188.371 217.735,189.065 218.638,189.427 219.401 C 192.785 226.476,206.224 231.248,214.479 228.296 C 224.784 224.611,228.800 218.317,228.800 205.856 C 228.800 197.186,230.369 198.001,213.684 197.994 C 197.830 197.987,199.058 198.373,198.800 193.315 C 198.584 189.089,198.995 188.000,200.805 188.000 C 203.194 188.000,211.670 182.497,213.438 179.797 C 214.423 178.294,215.513 178.531,221.114 181.461 C 227.851 184.985,227.613 184.744,227.330 187.767 C 226.291 198.898,243.162 201.422,246.353 190.613 C 248.697 182.675,237.644 176.800,230.548 182.212 C 229.836 182.756,228.976 183.200,228.637 183.200 C 228.033 183.200,218.636 178.416,216.784 177.166 L 215.845 176.532 216.735 174.462 C 219.334 168.422,219.247 162.047,216.485 156.053 C 215.726 154.406,215.957 154.187,221.400 151.373 C 223.380 150.350,225.630 149.150,226.400 148.707 C 227.906 147.841,229.534 147.654,229.945 148.299 C 232.155 151.766,240.628 151.736,244.114 148.250 C 250.673 141.691,243.222 131.394,233.768 133.952 C 229.273 135.169,226.085 140.616,227.575 144.535 C 228.067 145.829,227.682 146.151,222.200 149.026 C 219.780 150.296,217.350 151.573,216.800 151.865 C 215.206 152.710,214.883 152.561,211.578 149.452 C 207.260 145.390,200.206 142.000,196.072 142.000 C 193.679 142.000,193.600 141.762,193.600 134.541 L 193.600 128.043 195.998 127.169 C 207.481 122.982,201.243 106.847,189.588 110.591 M195.570 116.564 C 197.838 119.297,194.872 123.481,191.500 122.305 C 189.473 121.599,188.489 118.249,189.862 116.731 C 190.699 115.807,194.841 115.685,195.570 116.564 M150.700 139.596 C 152.131 140.468,152.557 143.092,151.500 144.525 C 150.309 146.139,146.609 146.005,145.418 144.304 C 143.059 140.936,147.055 137.373,150.700 139.596 M239.631 139.969 C 241.283 141.622,241.205 143.162,239.386 144.759 C 235.786 147.920,230.975 143.367,234.275 139.922 C 235.793 138.337,238.018 138.357,239.631 139.969 M199.600 145.895 C 201.250 146.250,203.050 146.916,203.600 147.376 C 204.150 147.836,205.230 148.556,206.000 148.975 C 208.900 150.557,213.600 155.983,213.600 157.749 C 213.600 158.073,214.068 158.895,214.641 159.575 L 215.681 160.812 215.277 165.906 C 214.743 172.650,213.803 174.638,208.780 179.642 C 205.184 183.224,204.007 184.000,202.174 184.000 C 200.812 184.000,200.897 182.710,202.300 182.088 C 205.450 180.694,207.763 179.117,207.880 178.283 C 207.948 177.797,208.407 177.031,208.902 176.579 C 209.396 176.127,210.426 174.597,211.192 173.179 L 212.584 170.600 212.528 164.859 C 212.473 159.337,212.433 159.077,211.479 158.059 C 210.934 157.477,210.105 156.235,209.636 155.300 C 209.167 154.365,208.635 153.600,208.452 153.600 C 208.270 153.600,207.329 152.801,206.360 151.825 C 203.230 148.668,200.500 147.535,195.600 147.361 C 193.290 147.279,190.858 147.119,190.195 147.006 C 189.476 146.883,188.104 147.136,186.795 147.633 C 185.588 148.092,184.240 148.570,183.800 148.695 C 182.080 149.183,177.584 152.439,176.637 153.881 C 176.089 154.716,175.275 155.850,174.829 156.400 C 174.383 156.950,174.014 157.700,174.009 158.067 C 174.004 158.434,173.569 159.604,173.043 160.667 C 171.032 164.727,172.006 171.384,175.163 175.157 C 176.011 176.171,177.052 177.621,177.476 178.381 C 178.009 179.335,178.666 179.870,179.604 180.113 C 180.351 180.306,181.479 180.900,182.111 181.432 C 182.744 181.965,183.608 182.400,184.031 182.400 C 184.593 182.400,184.800 182.681,184.800 183.443 C 184.800 184.284,184.665 184.427,184.100 184.185 C 183.715 184.019,182.762 183.775,181.981 183.642 C 180.512 183.391,176.447 180.545,176.417 179.746 C 176.408 179.496,175.943 178.992,175.384 178.626 C 174.825 178.260,174.072 177.340,173.710 176.580 C 173.348 175.821,172.905 175.200,172.726 175.200 C 172.547 175.200,172.400 174.958,172.400 174.662 C 172.400 174.366,172.038 173.797,171.596 173.396 C 170.363 172.281,169.541 169.050,169.983 167.055 C 170.185 166.145,170.316 164.140,170.275 162.600 C 170.212 160.262,170.349 159.592,171.100 158.538 C 171.595 157.844,172.000 157.085,172.000 156.850 C 172.000 156.324,174.464 152.658,174.960 152.447 C 175.158 152.362,176.148 151.437,177.160 150.391 C 178.172 149.345,179.450 148.358,180.000 148.199 C 180.550 148.039,181.377 147.564,181.837 147.143 C 182.298 146.723,183.648 146.210,184.837 146.004 C 186.027 145.799,187.540 145.454,188.200 145.238 C 189.760 144.729,195.787 145.076,199.600 145.895 M199.632 150.937 C 211.852 155.964,213.582 172.143,202.588 178.586 C 199.369 180.472,199.070 180.176,198.577 174.600 C 198.008 168.161,196.963 166.800,192.587 166.800 C 188.565 166.800,186.797 169.057,186.436 174.649 C 186.146 179.134,185.821 179.602,183.669 178.631 C 171.387 173.093,173.850 154.694,187.400 150.755 C 191.073 149.687,196.801 149.773,199.632 150.937 M194.352 168.843 C 196.466 169.580,196.847 170.880,196.839 177.325 C 196.826 187.183,197.079 196.990,197.372 197.910 C 197.785 199.212,198.339 199.264,212.467 199.335 C 228.707 199.417,227.199 198.702,227.205 206.314 C 227.211 214.654,226.304 217.328,222.015 221.610 C 210.861 232.746,193.232 228.448,188.477 213.435 C 187.760 211.171,187.200 211.082,187.200 213.233 C 187.200 214.853,181.523 212.455,177.933 209.318 C 176.681 208.225,178.616 205.423,181.200 204.587 C 183.711 203.774,187.176 205.279,187.215 207.200 C 187.231 208.018,187.344 207.909,187.833 206.600 C 188.293 205.368,188.414 203.343,188.361 197.800 C 188.253 186.704,188.790 171.548,189.330 170.412 C 190.171 168.643,192.073 168.049,194.352 168.843 M239.900 187.015 C 240.963 188.231,241.012 188.829,240.181 190.437 C 238.461 193.763,233.200 192.303,233.200 188.500 C 233.200 185.455,237.670 184.465,239.900 187.015 M150.820 186.210 C 152.289 186.970,152.512 189.679,151.235 191.256 C 150.064 192.702,147.079 192.605,145.765 191.078 C 142.896 187.741,146.699 184.079,150.820 186.210 M187.378 208.835 C 187.231 209.074,187.310 209.470,187.555 209.715 C 187.882 210.042,188.000 209.926,188.000 209.280 C 188.000 208.314,187.792 208.165,187.378 208.835 M169.485 276.249 C 169.328 276.405,169.200 279.113,169.200 282.267 L 169.200 288.000 168.100 288.040 C 167.495 288.063,161.330 288.108,154.400 288.140 C 144.574 288.187,141.580 288.321,140.800 288.748 C 139.223 289.612,137.200 291.690,137.200 292.445 C 137.200 292.824,136.975 293.209,136.700 293.301 C 136.068 293.512,136.167 319.127,136.802 319.762 C 137.021 319.981,137.200 320.461,137.200 320.829 C 137.200 321.910,140.612 324.800,141.891 324.802 C 142.501 324.803,149.750 324.819,158.000 324.838 C 166.250 324.857,173.220 324.856,173.488 324.836 C 173.868 324.808,173.957 319.389,173.888 300.500 L 173.800 276.200 171.785 276.082 C 170.676 276.017,169.641 276.092,169.485 276.249 M80.097 302.080 L 80.200 325.000 81.152 325.135 C 81.676 325.209,82.708 325.156,83.444 325.018 L 84.784 324.767 84.692 302.083 L 84.600 279.400 82.297 279.280 L 79.993 279.160 80.097 302.080 M225.200 301.971 C 225.200 327.501,224.884 325.133,228.253 324.861 L 229.974 324.722 229.993 304.889 C 230.003 293.981,230.100 284.966,230.210 284.857 C 230.440 284.627,230.965 285.175,234.180 289.000 C 235.474 290.540,236.644 291.890,236.779 292.000 C 236.915 292.110,237.608 293.005,238.321 293.990 C 239.033 294.974,240.380 296.594,241.315 297.590 C 242.249 298.585,244.001 300.569,245.207 301.998 C 246.413 303.427,247.715 304.946,248.100 305.374 C 248.486 305.802,249.206 306.745,249.700 307.470 C 250.195 308.194,250.870 308.892,251.199 309.019 C 251.851 309.271,251.782 309.343,257.685 302.355 C 259.822 299.826,261.921 297.352,262.349 296.859 C 262.777 296.365,263.729 295.220,264.464 294.315 C 265.199 293.409,265.980 292.473,266.200 292.234 C 266.420 291.995,267.140 291.157,267.800 290.373 C 271.754 285.671,272.541 284.840,272.853 285.033 C 273.044 285.151,273.200 294.156,273.200 305.044 L 273.200 324.840 275.500 324.720 L 277.800 324.600 277.903 301.900 L 278.007 279.200 274.403 279.200 C 272.421 279.200,270.800 279.338,270.800 279.507 C 270.800 279.676,269.974 280.676,268.965 281.729 C 267.955 282.783,266.894 284.097,266.607 284.651 C 266.320 285.205,265.028 286.770,263.736 288.129 C 262.444 289.488,260.619 291.635,259.681 292.900 C 258.742 294.165,257.839 295.200,257.673 295.200 C 257.508 295.200,257.078 295.695,256.718 296.300 C 256.358 296.905,255.050 298.480,253.812 299.800 L 251.561 302.200 250.129 300.600 C 249.341 299.720,247.955 298.175,247.048 297.166 C 246.142 296.157,244.950 294.726,244.400 293.984 C 243.850 293.243,242.590 291.706,241.600 290.570 C 240.610 289.433,239.178 287.746,238.418 286.821 C 237.658 285.896,236.668 284.720,236.218 284.208 C 235.768 283.695,234.620 282.359,233.666 281.238 L 231.932 279.200 228.566 279.200 L 225.200 279.200 225.200 301.971 M285.297 301.955 L 285.400 324.751 308.200 324.858 L 331.000 324.965 331.000 322.782 L 331.000 320.600 310.400 320.400 L 289.800 320.200 289.726 299.800 L 289.652 279.400 287.423 279.280 L 285.193 279.160 285.297 301.955 M93.383 288.351 C 93.282 288.451,93.200 296.690,93.200 306.659 L 93.200 324.785 94.145 325.022 C 94.664 325.152,95.699 325.201,96.445 325.129 L 97.800 325.000 97.874 309.670 C 97.948 294.378,97.950 294.337,98.835 293.570 C 99.669 292.846,100.458 292.800,111.991 292.800 L 124.261 292.800 125.230 293.832 L 126.200 294.864 126.289 309.732 C 126.338 317.909,126.383 324.735,126.389 324.900 C 126.402 325.258,128.630 325.288,129.900 324.948 L 130.800 324.707 130.800 309.549 C 130.800 292.104,130.797 292.085,127.282 289.555 L 125.400 288.200 109.483 288.184 C 100.728 288.175,93.483 288.250,93.383 288.351 M187.527 288.348 C 185.431 288.546,184.475 288.868,183.101 289.839 C 180.025 292.015,180.000 292.154,180.000 306.900 L 180.000 319.880 181.164 321.487 C 183.614 324.869,182.870 324.726,198.642 324.851 L 212.646 324.963 214.314 323.781 C 215.232 323.132,215.987 322.397,215.991 322.149 C 215.996 321.901,216.278 321.467,216.619 321.184 C 217.160 320.735,217.223 318.909,217.119 306.635 C 216.955 287.306,217.857 288.338,201.000 288.191 C 195.060 288.139,188.997 288.210,187.527 288.348 M168.371 293.854 C 169.649 295.479,169.661 318.154,168.384 319.525 C 167.581 320.387,167.398 320.400,155.684 320.395 C 142.410 320.388,142.401 320.388,141.469 318.810 C 140.754 317.598,140.433 295.597,141.115 294.523 C 142.107 292.964,143.449 292.805,155.671 292.802 L 167.542 292.800 168.371 293.854 M212.191 294.147 C 213.439 295.714,213.736 316.768,212.539 318.796 C 211.598 320.389,211.597 320.389,198.400 320.388 C 186.175 320.388,186.020 320.370,185.260 318.926 C 184.473 317.432,184.629 294.822,185.434 293.673 L 186.068 292.768 198.672 292.884 L 211.277 293.000 212.191 294.147 " stroke="none" fill="#382a8a" fill-rule="evenodd"></path><path id="path1" d="M0.000 200.000 L 0.000 400.000 200.000 400.000 L 400.000 400.000 400.000 200.000 L 400.000 0.000 200.000 0.000 L 0.000 0.000 0.000 200.000 M194.830 69.577 C 198.708 70.547,201.032 74.464,199.766 77.900 C 198.208 82.131,196.709 82.832,188.400 83.218 C 184.990 83.377,181.120 83.701,179.800 83.938 C 176.407 84.547,170.656 85.615,167.600 86.203 C 166.170 86.478,164.190 86.973,163.200 87.303 C 162.210 87.633,160.410 88.207,159.200 88.578 C 156.874 89.293,152.285 91.048,151.228 91.627 C 150.883 91.817,149.700 92.360,148.600 92.833 C 144.248 94.708,136.270 99.185,134.200 100.914 C 133.980 101.098,132.791 101.912,131.558 102.724 C 128.037 105.043,119.393 113.054,117.017 116.200 C 116.685 116.640,115.446 118.260,114.264 119.800 C 111.388 123.547,109.439 126.635,107.070 131.200 C 105.986 133.290,104.973 135.180,104.819 135.400 C 104.666 135.620,104.312 136.610,104.032 137.600 C 103.753 138.590,103.299 139.940,103.023 140.600 C 101.000 145.441,99.200 155.336,99.200 161.613 C 99.200 162.900,99.020 164.064,98.800 164.200 C 98.580 164.336,98.397 164.932,98.392 165.524 C 98.382 166.921,96.211 169.349,94.440 169.943 C 90.263 171.346,86.668 169.529,85.409 165.379 C 84.223 161.469,84.680 156.152,87.265 143.800 C 87.740 141.529,89.415 135.998,90.172 134.200 C 90.450 133.540,90.904 132.303,91.182 131.452 C 91.833 129.456,93.305 126.281,94.637 124.000 C 96.730 120.416,100.121 114.995,100.392 114.800 C 100.544 114.690,101.162 113.751,101.764 112.714 C 104.438 108.110,114.007 98.311,121.600 92.403 C 128.728 86.856,141.672 79.617,148.712 77.241 C 150.094 76.774,151.984 76.057,152.912 75.647 C 155.209 74.631,158.691 73.600,159.822 73.600 C 160.334 73.600,160.852 73.439,160.974 73.242 C 161.095 73.045,161.871 72.792,162.697 72.678 C 163.524 72.565,165.280 72.183,166.600 71.829 C 171.001 70.649,175.338 70.045,182.355 69.632 C 186.180 69.407,189.420 69.113,189.554 68.979 C 189.855 68.679,192.383 68.965,194.830 69.577 M234.568 74.744 C 238.927 77.303,239.695 83.605,235.982 86.350 C 229.187 91.374,220.855 83.153,226.297 76.795 C 228.595 74.110,232.035 73.257,234.568 74.744 M204.200 90.055 C 205.300 90.256,207.460 90.595,209.000 90.810 C 213.325 91.412,217.103 92.170,217.434 92.501 C 217.599 92.665,218.207 92.800,218.787 92.800 C 219.366 92.800,220.011 92.943,220.220 93.118 C 220.429 93.293,221.680 93.766,223.000 94.171 C 224.320 94.575,225.967 95.152,226.660 95.453 C 227.354 95.754,228.031 96.000,228.165 96.000 C 228.722 96.000,238.905 100.791,239.200 101.193 C 239.310 101.342,240.256 101.887,241.301 102.404 C 242.347 102.921,243.555 103.671,243.985 104.072 C 244.415 104.472,244.881 104.800,245.021 104.800 C 247.456 104.800,261.492 118.073,266.804 125.400 C 267.761 126.720,268.661 127.890,268.804 128.000 C 268.946 128.110,269.587 129.190,270.228 130.400 C 270.869 131.610,271.511 132.690,271.653 132.800 C 272.061 133.115,275.257 139.715,276.785 143.400 C 277.984 146.289,279.860 153.145,280.616 157.400 C 281.272 161.091,281.429 178.206,280.831 180.923 C 280.628 181.845,280.152 184.220,279.774 186.200 C 279.395 188.180,278.969 189.980,278.826 190.200 C 278.684 190.420,278.236 191.680,277.831 193.000 C 277.047 195.555,276.786 196.210,274.808 200.600 C 267.476 216.871,253.008 231.605,236.200 239.920 C 228.132 243.911,225.754 244.798,216.070 247.427 C 202.564 251.094,181.802 251.020,168.800 247.258 C 168.030 247.035,166.296 246.578,164.947 246.242 C 162.514 245.636,160.107 244.811,157.800 243.790 C 156.369 243.157,154.321 242.320,152.400 241.583 C 151.630 241.287,150.910 240.945,150.800 240.823 C 150.690 240.700,149.025 239.812,147.100 238.850 C 145.175 237.887,143.600 236.942,143.600 236.750 C 143.600 236.557,143.399 236.400,143.154 236.400 C 139.983 236.400,124.207 222.156,118.600 214.230 C 118.160 213.608,117.426 212.627,116.968 212.050 C 116.511 211.472,116.014 210.730,115.865 210.400 C 115.715 210.070,115.205 209.170,114.730 208.400 C 112.768 205.219,110.907 201.635,109.847 199.000 C 109.227 197.460,108.558 195.887,108.360 195.505 C 108.162 195.123,108.000 194.611,108.000 194.366 C 108.000 194.121,107.758 193.354,107.461 192.660 C 105.813 188.801,104.917 183.993,103.953 173.818 C 103.503 169.062,103.554 168.084,104.789 158.000 C 105.286 153.934,106.374 149.419,107.452 146.940 C 107.753 146.246,108.000 145.479,108.000 145.234 C 108.000 144.989,108.162 144.477,108.360 144.095 C 108.558 143.713,109.195 142.217,109.775 140.772 C 110.721 138.414,113.224 133.473,114.512 131.423 C 116.951 127.541,118.911 124.707,120.889 122.200 C 123.048 119.464,131.679 111.037,134.200 109.202 C 135.520 108.242,136.690 107.345,136.800 107.208 C 137.049 106.900,142.700 103.155,143.795 102.572 C 144.238 102.336,145.680 101.543,147.000 100.808 C 150.411 98.910,150.355 98.939,153.000 97.776 C 157.198 95.932,157.766 95.702,159.400 95.197 C 160.280 94.925,161.313 94.544,161.695 94.351 C 162.077 94.158,162.589 94.000,162.834 94.000 C 163.079 94.000,163.846 93.751,164.540 93.446 C 165.233 93.141,167.240 92.594,169.000 92.231 C 170.760 91.867,172.753 91.397,173.428 91.185 C 174.104 90.973,175.397 90.800,176.302 90.800 C 177.207 90.800,178.455 90.607,179.074 90.371 C 181.861 89.310,198.936 89.095,204.200 90.055 M186.000 96.799 C 185.010 96.987,183.390 97.152,182.400 97.165 C 180.791 97.187,177.179 97.834,173.200 98.813 C 172.430 99.003,170.540 99.456,169.000 99.820 C 167.460 100.184,165.840 100.622,165.400 100.793 C 164.559 101.120,162.970 101.728,159.000 103.242 C 155.841 104.447,148.599 108.043,146.682 109.358 C 145.847 109.931,145.037 110.400,144.882 110.401 C 144.727 110.401,143.970 110.941,143.200 111.600 C 142.430 112.259,141.678 112.799,141.529 112.799 C 141.379 112.800,141.019 113.025,140.729 113.300 C 140.438 113.575,139.483 114.336,138.606 114.992 C 136.038 116.913,128.614 124.246,126.733 126.721 C 125.780 127.974,124.775 129.238,124.500 129.529 C 124.225 129.819,124.000 130.190,124.000 130.353 C 124.000 130.516,123.673 131.000,123.273 131.429 C 121.452 133.384,115.200 145.389,115.200 146.931 C 115.200 147.211,115.030 147.611,114.823 147.820 C 114.441 148.205,113.695 150.809,113.340 153.000 C 113.233 153.660,113.002 154.560,112.828 155.000 C 111.032 159.518,110.584 174.118,112.036 180.800 C 113.803 188.934,114.408 191.289,114.854 191.780 C 115.044 191.989,115.200 192.389,115.200 192.669 C 115.200 194.093,121.598 206.611,122.831 207.600 C 122.968 207.710,123.553 208.554,124.130 209.476 C 124.707 210.397,125.679 211.699,126.290 212.369 C 126.900 213.039,128.570 214.896,130.000 216.496 C 134.128 221.114,143.378 228.800,144.808 228.800 C 145.024 228.800,145.200 228.951,145.200 229.136 C 145.200 229.320,145.605 229.681,146.100 229.937 C 146.595 230.192,148.080 231.037,149.400 231.813 C 150.720 232.589,152.430 233.506,153.200 233.851 C 153.970 234.195,155.758 235.010,157.174 235.660 C 158.590 236.311,161.200 237.307,162.974 237.874 C 164.748 238.441,166.560 239.053,167.000 239.234 C 168.434 239.823,170.959 240.482,173.000 240.800 C 174.100 240.971,176.170 241.315,177.600 241.563 C 179.030 241.812,181.370 242.210,182.800 242.448 C 186.510 243.065,202.001 242.654,206.800 241.811 C 208.890 241.444,211.410 241.009,212.400 240.844 C 215.518 240.326,223.945 237.581,227.800 235.828 C 232.544 233.671,234.729 232.566,236.708 231.324 C 237.867 230.596,238.878 230.000,238.954 230.000 C 239.030 230.000,240.353 229.145,241.893 228.100 C 252.249 221.075,260.847 211.692,266.361 201.400 C 267.961 198.413,270.800 191.568,270.800 190.696 C 270.800 190.339,270.962 189.947,271.160 189.825 C 271.357 189.703,271.807 188.207,272.160 186.501 C 272.512 184.796,272.979 182.590,273.197 181.600 C 274.511 175.632,274.511 163.233,273.196 158.000 C 273.003 157.230,272.628 155.430,272.362 154.000 C 271.900 151.514,271.315 149.618,270.202 147.000 C 269.922 146.340,269.447 145.080,269.147 144.200 C 268.668 142.794,266.524 138.406,265.094 135.906 C 255.259 118.706,234.722 103.826,214.699 99.391 C 213.105 99.038,210.630 98.481,209.200 98.155 C 203.828 96.927,189.683 96.101,186.000 96.799 M279.825 103.343 C 282.776 106.756,281.255 114.400,277.626 114.400 C 277.192 114.400,276.411 114.594,275.890 114.832 C 270.480 117.297,265.478 107.957,269.772 103.408 C 272.130 100.911,277.692 100.875,279.825 103.343 M198.924 111.507 C 205.794 116.695,203.830 125.738,195.300 128.195 C 194.417 128.449,194.400 128.568,194.400 134.637 L 194.400 140.820 195.426 141.210 C 195.990 141.424,197.025 141.601,197.726 141.602 C 198.427 141.604,199.516 141.874,200.146 142.202 C 200.776 142.531,201.710 142.800,202.222 142.800 C 202.734 142.800,203.252 142.960,203.373 143.156 C 203.494 143.351,204.059 143.628,204.629 143.771 C 206.523 144.247,209.473 146.364,212.612 149.500 C 213.768 150.655,214.879 151.600,215.082 151.600 C 215.549 151.600,218.572 150.234,220.400 149.197 C 221.170 148.760,222.925 147.843,224.300 147.159 L 226.800 145.916 226.800 142.738 C 226.800 133.958,236.055 129.669,243.498 135.000 C 246.379 137.064,248.627 143.871,246.800 145.000 C 246.580 145.136,246.400 145.590,246.400 146.008 C 246.400 146.885,243.650 149.747,241.975 150.613 C 238.366 152.479,234.229 152.154,230.553 149.715 L 228.506 148.357 226.553 149.453 C 225.479 150.056,222.980 151.398,221.000 152.434 C 216.813 154.626,216.858 154.528,218.183 158.587 C 219.606 162.946,219.612 168.235,218.200 172.561 C 216.877 176.615,216.856 176.530,219.500 177.851 C 220.765 178.483,221.890 179.090,222.000 179.200 C 223.580 180.780,228.753 182.636,229.636 181.940 C 235.178 177.570,243.786 179.184,246.395 185.082 C 247.217 186.941,247.509 190.962,246.852 191.368 C 246.660 191.486,246.401 192.095,246.276 192.721 C 245.495 196.623,237.745 199.592,233.166 197.741 C 228.802 195.977,226.800 193.139,226.800 188.716 C 226.800 185.397,226.522 184.747,224.884 184.227 C 224.400 184.073,222.091 182.879,219.753 181.574 C 214.861 178.842,214.848 178.840,213.848 180.301 C 212.713 181.961,208.164 185.704,206.273 186.535 C 205.353 186.939,204.150 187.493,203.600 187.765 C 203.050 188.038,201.829 188.503,200.886 188.799 L 199.172 189.337 199.286 192.969 L 199.400 196.600 212.800 196.800 C 230.649 197.066,229.346 196.280,229.247 206.728 C 229.163 215.540,228.879 216.714,225.739 221.200 C 219.895 229.552,207.088 232.399,197.219 227.540 C 194.546 226.225,188.800 220.957,188.800 219.823 C 188.800 219.032,186.093 216.831,183.252 215.311 C 178.744 212.900,175.183 210.407,174.798 209.395 C 173.506 205.996,180.550 200.825,184.461 202.301 C 186.043 202.898,186.042 202.903,185.911 195.602 L 185.800 189.438 181.400 187.553 C 177.482 185.874,176.627 185.314,173.600 182.443 L 170.200 179.220 165.059 181.832 C 157.760 185.541,158.302 185.089,158.628 187.200 C 160.343 198.297,143.866 202.849,139.025 192.616 C 135.966 186.150,140.838 179.452,148.600 179.452 C 151.484 179.452,152.595 179.852,155.516 181.937 C 156.408 182.575,156.984 182.752,157.314 182.490 C 157.895 182.031,161.085 180.289,165.200 178.184 C 166.850 177.340,168.265 176.603,168.345 176.546 C 168.425 176.490,168.187 175.579,167.816 174.522 C 165.379 167.578,165.374 163.677,167.790 156.662 C 168.157 155.596,168.400 154.682,168.329 154.630 C 167.906 154.320,162.141 151.212,159.657 149.955 L 156.714 148.465 154.657 149.765 C 149.883 152.781,144.272 152.329,140.572 148.629 C 138.676 146.733,137.159 140.567,138.400 139.800 C 138.620 139.664,138.800 139.236,138.800 138.848 C 138.800 134.447,148.571 131.176,153.400 133.961 C 157.322 136.223,158.607 138.381,158.577 142.656 C 158.554 145.806,158.597 145.967,159.577 146.420 C 160.140 146.680,160.960 147.084,161.400 147.316 C 170.828 152.297,170.060 152.131,172.395 149.683 C 174.371 147.612,179.197 144.000,179.989 144.000 C 180.257 144.000,180.954 143.748,181.538 143.439 C 182.948 142.694,186.665 141.600,187.786 141.600 C 188.278 141.600,189.224 141.411,189.888 141.179 L 191.096 140.758 191.153 134.761 L 191.211 128.764 189.705 128.144 C 186.304 126.743,185.542 126.226,184.264 124.455 C 177.685 115.332,189.808 104.625,198.924 111.507 M295.623 148.800 C 299.336 149.831,301.327 154.520,299.635 158.246 C 296.696 164.718,287.126 163.054,286.712 156.000 C 286.400 150.691,290.501 147.377,295.623 148.800 M297.583 168.984 C 299.964 171.265,300.603 173.965,300.042 179.379 C 299.026 189.194,297.909 195.108,296.223 199.600 C 295.851 200.590,295.451 201.760,295.334 202.200 C 295.216 202.640,294.868 203.567,294.560 204.260 C 294.252 204.954,294.000 205.695,294.000 205.908 C 294.000 206.120,293.370 207.525,292.600 209.028 C 291.830 210.532,291.200 211.907,291.200 212.085 C 291.200 212.263,290.300 213.845,289.200 215.600 C 288.100 217.355,287.200 218.911,287.200 219.058 C 287.200 219.205,286.750 219.914,286.200 220.636 C 285.650 221.357,285.200 222.107,285.200 222.304 C 285.200 222.500,284.750 223.083,284.200 223.600 C 283.650 224.117,283.200 224.735,283.200 224.974 C 283.200 225.213,282.795 225.857,282.300 226.406 C 281.805 226.955,280.357 228.693,279.082 230.269 C 276.184 233.849,269.665 240.153,265.198 243.692 C 263.329 245.173,261.620 246.532,261.400 246.714 C 260.815 247.196,255.136 250.916,254.200 251.430 C 253.760 251.672,252.769 252.214,251.998 252.635 C 251.227 253.056,250.030 253.805,249.337 254.300 C 248.644 254.795,247.975 255.200,247.852 255.200 C 247.728 255.200,245.776 256.074,243.513 257.141 C 239.571 259.002,233.139 261.589,230.331 262.443 C 221.880 265.013,217.697 265.901,206.000 267.605 C 200.845 268.356,192.357 268.580,190.629 268.010 C 184.685 266.048,183.822 258.532,189.200 255.563 C 189.847 255.206,192.321 254.914,196.200 254.737 C 203.821 254.389,209.250 253.815,210.315 253.245 C 210.773 253.000,211.633 252.800,212.227 252.800 C 212.821 252.800,213.958 252.637,214.754 252.437 C 215.549 252.237,217.640 251.769,219.400 251.397 C 221.160 251.025,223.050 250.500,223.600 250.230 C 224.150 249.960,225.410 249.507,226.400 249.223 C 228.706 248.562,230.250 248.028,232.000 247.287 C 239.404 244.151,245.534 241.007,248.182 238.986 C 248.894 238.444,249.610 238.000,249.775 238.000 C 249.939 238.000,250.958 237.325,252.038 236.500 C 265.528 226.197,273.236 217.399,278.956 205.775 C 280.032 203.589,281.070 201.483,281.263 201.095 C 283.378 196.837,285.790 186.270,286.398 178.600 C 286.923 171.969,287.202 170.938,288.908 169.304 C 291.044 167.258,295.605 167.089,297.583 168.984 M96.372 177.485 C 98.354 179.477,98.956 181.321,98.412 183.746 C 96.888 190.549,87.712 190.804,85.606 184.101 C 83.669 177.935,91.829 172.920,96.372 177.485 M113.400 223.552 C 116.153 224.816,117.444 227.158,117.095 230.252 C 116.183 238.347,104.000 237.494,104.000 229.335 C 104.000 224.528,108.926 221.498,113.400 223.552 M155.800 250.400 C 155.936 250.620,156.361 250.800,156.745 250.800 C 160.558 250.800,161.552 258.351,158.170 261.629 C 153.074 266.569,144.609 259.535,148.008 253.185 C 149.169 251.015,154.912 248.963,155.800 250.400 M174.310 299.800 C 174.371 313.220,174.323 324.605,174.203 325.100 L 173.985 326.000 158.292 325.994 C 134.652 325.985,135.595 326.785,135.609 306.740 C 135.619 291.569,135.648 291.429,139.270 289.047 L 141.400 287.646 154.600 287.523 L 167.800 287.400 168.058 281.892 C 168.368 275.253,168.441 275.122,171.763 275.283 L 174.200 275.400 174.310 299.800 M290.320 278.880 C 290.681 279.241,290.800 284.364,290.800 299.480 L 290.800 319.600 310.374 319.600 C 333.352 319.600,332.080 319.394,331.918 323.097 L 331.800 325.800 308.516 325.903 C 285.754 326.004,285.222 325.989,284.812 325.223 C 284.531 324.697,284.427 316.986,284.497 301.720 L 284.600 279.000 286.000 278.753 C 288.364 278.335,289.818 278.378,290.320 278.880 M85.503 301.720 C 85.621 327.535,85.815 326.000,82.435 326.000 C 78.752 326.000,79.075 330.681,79.199 279.083 C 79.200 278.909,80.595 278.819,82.300 278.883 L 85.400 279.000 85.503 301.720 M234.600 280.875 C 235.480 281.998,236.380 283.117,236.600 283.361 C 237.433 284.285,242.434 290.218,242.710 290.611 C 242.870 290.837,243.720 291.846,244.600 292.853 C 245.480 293.861,246.599 295.206,247.087 295.842 C 247.575 296.479,248.755 297.876,249.709 298.946 L 251.445 300.892 252.493 299.746 C 255.098 296.896,257.315 294.365,258.506 292.880 C 260.859 289.949,264.287 285.819,265.379 284.600 C 265.971 283.940,267.268 282.359,268.261 281.086 L 270.068 278.773 274.134 278.886 L 278.200 279.000 278.311 301.600 C 278.441 328.158,278.674 326.000,275.672 326.000 C 272.170 326.000,272.400 327.381,272.400 306.344 C 272.400 286.901,272.338 286.216,270.755 288.063 C 269.271 289.794,268.607 290.589,266.799 292.800 C 265.810 294.010,264.892 295.090,264.760 295.200 C 264.555 295.370,260.571 300.140,259.079 302.000 C 256.653 305.025,254.725 307.281,253.276 308.787 L 251.553 310.580 249.874 308.790 C 248.951 307.805,247.514 306.149,246.679 305.110 C 245.845 304.070,244.943 302.990,244.673 302.710 C 244.404 302.429,243.134 300.940,241.850 299.400 C 240.566 297.860,238.751 295.700,237.817 294.600 C 236.883 293.500,235.147 291.445,233.959 290.033 C 232.772 288.621,231.575 287.391,231.300 287.300 C 230.905 287.168,230.800 291.102,230.800 306.087 C 230.800 320.295,230.680 325.160,230.320 325.520 C 229.483 326.357,225.300 326.134,224.814 325.226 C 224.352 324.364,224.209 279.524,224.667 279.067 C 224.813 278.920,226.748 278.807,228.967 278.816 L 233.000 278.832 234.600 280.875 M127.407 288.693 C 128.291 289.239,129.551 290.432,130.207 291.343 L 131.400 293.000 131.525 308.679 C 131.670 326.817,131.816 326.000,128.429 326.000 C 125.389 326.000,125.600 327.151,125.600 310.541 C 125.600 296.479,125.488 295.139,124.240 294.306 C 123.263 293.654,100.102 293.955,99.429 294.629 C 98.646 295.412,98.703 294.077,98.749 310.538 C 98.773 319.320,98.637 324.758,98.380 325.238 C 97.813 326.296,93.633 326.342,92.691 325.300 C 91.932 324.460,91.640 290.599,92.376 288.664 L 92.776 287.610 107.088 287.505 C 124.594 287.376,125.347 287.420,127.407 288.693 M213.582 288.318 C 218.157 290.576,218.400 291.496,218.400 306.573 C 218.400 326.294,218.700 326.000,198.535 326.000 C 184.107 326.000,183.771 325.944,181.436 323.170 C 178.955 320.221,179.000 320.520,179.000 307.000 C 179.000 292.220,179.325 290.874,183.476 288.455 C 185.616 287.208,211.099 287.092,213.582 288.318 M142.418 294.380 C 141.580 294.911,141.515 317.933,142.349 318.938 C 142.838 319.528,144.247 319.600,155.241 319.600 L 167.585 319.600 167.836 318.600 C 168.389 316.394,168.227 295.358,167.651 294.663 C 167.028 293.910,143.576 293.648,142.418 294.380 M186.560 294.306 C 185.353 295.112,185.200 296.522,185.200 306.812 C 185.200 315.980,185.285 317.420,185.886 318.438 L 186.572 319.600 198.664 319.600 C 210.705 319.600,210.757 319.596,211.377 318.711 C 212.315 317.373,212.309 295.566,211.371 294.629 C 210.698 293.955,187.537 293.654,186.560 294.306 " stroke="none" fill="#fbfbfb" fill-rule="evenodd"></path><path id="path2" d="M181.200 70.429 C 176.270 70.963,169.572 71.989,166.800 72.636 C 160.945 74.001,154.148 75.980,151.800 77.004 C 151.140 77.292,149.070 78.114,147.200 78.830 C 129.838 85.482,112.222 99.342,101.300 114.941 C 100.145 116.590,99.200 118.056,99.200 118.197 C 99.200 118.338,98.772 119.026,98.248 119.727 C 97.204 121.123,93.693 127.775,92.826 130.000 C 92.526 130.770,92.061 131.940,91.794 132.600 C 90.667 135.385,90.057 137.105,89.597 138.800 C 89.327 139.790,88.948 141.050,88.754 141.600 C 88.559 142.150,88.208 143.500,87.974 144.600 C 85.227 157.482,85.219 165.408,87.951 168.021 C 88.991 169.016,92.153 169.760,93.127 169.239 C 93.578 168.998,94.238 168.800,94.593 168.800 C 96.735 168.800,97.809 165.918,98.397 158.600 C 99.018 150.855,100.427 144.268,102.588 139.000 C 102.858 138.340,103.320 137.170,103.612 136.400 C 107.512 126.146,116.861 113.545,126.488 105.568 C 127.869 104.423,129.090 103.366,129.200 103.221 C 130.314 101.744,144.793 93.176,148.800 91.622 C 149.570 91.323,151.280 90.594,152.600 90.000 C 154.791 89.016,159.333 87.479,163.400 86.347 C 164.280 86.102,165.810 85.669,166.800 85.384 C 171.291 84.092,186.601 82.000,191.561 82.000 C 196.645 82.000,198.950 80.091,198.982 75.855 C 199.022 70.621,193.887 69.054,181.200 70.429 M229.200 75.482 C 228.148 75.867,226.747 77.352,225.926 78.952 C 223.235 84.201,230.863 89.509,235.367 85.521 C 240.354 81.106,235.487 73.184,229.200 75.482 M271.783 103.145 C 269.633 104.456,268.961 106.140,269.142 109.762 C 269.399 114.906,278.141 115.449,280.235 110.451 C 282.383 105.323,276.521 100.256,271.783 103.145 M290.158 150.500 C 284.661 154.199,288.327 162.225,294.947 160.983 C 298.750 160.270,300.873 154.345,298.240 151.797 C 295.194 148.849,293.109 148.514,290.158 150.500 M196.310 174.936 C 196.482 181.915,196.660 182.710,196.727 176.800 C 196.760 173.830,196.656 171.191,196.494 170.936 C 196.332 170.681,196.249 172.481,196.310 174.936 M188.937 174.200 C 188.939 175.960,189.009 176.630,189.093 175.689 C 189.178 174.749,189.177 173.309,189.091 172.489 C 189.005 171.670,188.936 172.440,188.937 174.200 M188.808 179.000 C 188.575 180.585,188.492 184.266,188.437 195.600 C 188.402 202.694,188.249 205.393,187.813 206.600 C 187.345 207.896,187.231 208.010,187.215 207.200 C 187.173 205.148,183.308 203.664,180.800 204.736 C 179.490 205.296,177.754 206.687,178.025 206.959 C 178.143 207.076,178.730 206.716,179.331 206.159 C 182.428 203.287,186.382 204.720,186.423 208.729 C 186.446 211.021,187.069 214.941,187.154 213.333 C 187.273 211.084,187.744 211.120,188.477 213.435 C 190.624 220.216,197.817 227.241,202.556 227.186 C 203.652 227.173,203.545 227.080,201.665 226.403 C 195.916 224.335,191.609 220.360,189.888 215.534 C 189.560 214.614,189.345 208.545,189.198 196.000 C 189.080 185.990,188.905 178.340,188.808 179.000 M196.404 185.200 C 196.021 195.826,196.385 198.667,198.226 199.437 C 199.783 200.087,204.582 200.219,204.200 199.600 C 204.064 199.380,202.748 199.197,201.276 199.194 C 197.132 199.184,196.750 198.487,197.053 191.482 C 197.150 189.237,197.065 186.320,196.863 185.000 L 196.498 182.600 196.404 185.200 M206.400 199.600 C 206.005 199.855,209.284 199.974,216.000 199.947 C 221.610 199.924,225.660 199.768,225.000 199.600 C 223.212 199.145,207.104 199.145,206.400 199.600 M226.768 206.800 C 226.640 210.430,226.412 213.850,226.260 214.400 C 226.108 214.950,226.262 214.685,226.602 213.811 C 227.082 212.575,227.195 210.884,227.110 206.211 L 227.000 200.200 226.768 206.800 M177.532 208.901 C 178.259 209.800,185.183 214.072,185.656 213.915 C 185.866 213.845,184.814 213.082,183.318 212.220 C 181.823 211.357,179.790 210.110,178.800 209.448 C 177.810 208.786,177.239 208.540,177.532 208.901 M188.000 209.280 C 188.000 209.926,187.882 210.042,187.555 209.715 C 187.310 209.470,187.231 209.074,187.378 208.835 C 187.792 208.165,188.000 208.314,188.000 209.280 M224.928 217.309 C 223.727 219.777,220.578 223.093,218.113 224.484 C 216.931 225.151,216.047 225.780,216.149 225.882 C 216.997 226.730,224.272 220.038,225.378 217.392 C 226.251 215.302,225.933 215.243,224.928 217.309 M210.200 227.096 C 209.100 227.180,208.029 227.417,207.820 227.624 C 207.252 228.186,209.469 228.077,211.800 227.428 C 213.842 226.860,213.699 226.830,210.200 227.096 M204.500 227.476 C 204.885 227.576,205.515 227.576,205.900 227.476 C 206.285 227.375,205.970 227.293,205.200 227.293 C 204.430 227.293,204.115 227.375,204.500 227.476 M289.690 300.276 C 289.641 311.098,289.735 320.036,289.900 320.138 C 290.173 320.307,290.168 305.542,289.889 287.600 C 289.829 283.750,289.740 289.454,289.690 300.276 M265.029 286.362 L 263.858 287.800 265.209 286.513 C 265.951 285.805,266.478 285.158,266.379 285.075 C 266.281 284.992,265.673 285.571,265.029 286.362 M173.746 291.000 C 173.747 293.200,173.814 294.049,173.895 292.887 C 173.976 291.724,173.976 289.924,173.893 288.887 C 173.811 287.849,173.745 288.800,173.746 291.000 M103.091 288.289 C 103.801 288.377,105.061 288.379,105.891 288.292 C 106.721 288.205,106.140 288.133,104.600 288.131 C 103.060 288.129,102.381 288.200,103.091 288.289 M143.105 288.283 C 143.602 288.379,144.322 288.375,144.705 288.275 C 145.087 288.175,144.680 288.096,143.800 288.101 C 142.920 288.105,142.607 288.187,143.105 288.283 M163.500 288.289 C 164.215 288.378,165.385 288.378,166.100 288.289 C 166.815 288.201,166.230 288.128,164.800 288.128 C 163.370 288.128,162.785 288.201,163.500 288.289 M187.305 288.287 C 187.914 288.379,188.814 288.377,189.305 288.282 C 189.797 288.187,189.300 288.111,188.200 288.114 C 187.100 288.117,186.697 288.195,187.305 288.287 M209.505 288.283 C 210.002 288.379,210.722 288.375,211.105 288.275 C 211.487 288.175,211.080 288.096,210.200 288.101 C 209.320 288.105,209.007 288.187,209.505 288.283 M217.378 307.000 C 217.379 314.040,217.433 316.864,217.499 313.275 C 217.566 309.686,217.566 303.926,217.499 300.475 C 217.433 297.024,217.378 299.960,217.378 307.000 M212.795 297.518 L 212.990 300.200 213.117 297.842 C 213.186 296.545,213.099 295.338,212.922 295.160 C 212.745 294.982,212.688 296.043,212.795 297.518 M126.131 298.600 C 126.133 300.140,126.205 300.721,126.292 299.891 C 126.379 299.061,126.377 297.801,126.289 297.091 C 126.200 296.381,126.129 297.060,126.131 298.600 M173.728 300.000 C 173.728 301.430,173.801 302.015,173.889 301.300 C 173.978 300.585,173.978 299.415,173.889 298.700 C 173.801 297.985,173.728 298.570,173.728 300.000 M212.969 310.000 C 212.969 314.510,213.027 316.355,213.098 314.100 C 213.170 311.845,213.170 308.155,213.098 305.900 C 213.027 303.645,212.969 305.490,212.969 310.000 M126.172 313.600 C 126.172 318.770,126.229 320.885,126.299 318.300 C 126.368 315.715,126.368 311.485,126.299 308.900 C 126.229 306.315,126.172 308.430,126.172 313.600 M136.161 311.200 C 136.161 314.610,136.222 316.005,136.297 314.300 C 136.372 312.595,136.372 309.805,136.297 308.100 C 136.222 306.395,136.161 307.790,136.161 311.200 M275.800 324.800 L 273.800 325.074 275.676 325.137 C 276.708 325.172,277.664 325.020,277.800 324.800 C 277.936 324.580,277.992 324.428,277.924 324.463 C 277.856 324.497,276.900 324.649,275.800 324.800 M148.900 325.099 C 151.705 325.168,156.295 325.168,159.100 325.099 C 161.905 325.030,159.610 324.974,154.000 324.974 C 148.390 324.974,146.095 325.030,148.900 325.099 M168.300 325.089 C 169.015 325.178,170.185 325.178,170.900 325.089 C 171.615 325.001,171.030 324.928,169.600 324.928 C 168.170 324.928,167.585 325.001,168.300 325.089 M191.500 325.099 C 194.415 325.167,199.185 325.167,202.100 325.099 C 205.015 325.031,202.630 324.975,196.800 324.975 C 190.970 324.975,188.585 325.031,191.500 325.099 M227.505 325.083 C 228.002 325.179,228.722 325.175,229.105 325.075 C 229.487 324.975,229.080 324.896,228.200 324.901 C 227.320 324.905,227.007 324.987,227.505 325.083 M295.700 325.100 C 301.145 325.163,310.055 325.163,315.500 325.100 C 320.945 325.037,316.490 324.985,305.600 324.985 C 294.710 324.985,290.255 325.037,295.700 325.100 " stroke="none" fill="#c6551f" fill-rule="evenodd"></path><path id="path3" d="M189.862 116.731 C 188.489 118.249,189.473 121.599,191.500 122.305 C 194.872 123.481,197.838 119.297,195.570 116.564 C 194.841 115.685,190.699 115.807,189.862 116.731 M146.100 139.646 C 143.791 141.125,144.550 144.791,147.318 145.528 C 150.149 146.281,152.000 144.933,152.000 142.118 C 152.000 139.212,148.843 137.889,146.100 139.646 M234.275 139.922 C 230.975 143.367,235.786 147.920,239.386 144.759 C 241.205 143.162,241.283 141.622,239.631 139.969 C 238.018 138.357,235.793 138.337,234.275 139.922 M188.200 145.238 C 187.540 145.454,186.027 145.799,184.837 146.004 C 183.648 146.210,182.298 146.723,181.837 147.143 C 181.377 147.564,180.550 148.039,180.000 148.199 C 179.450 148.358,178.172 149.345,177.160 150.391 C 176.148 151.437,175.158 152.362,174.960 152.447 C 174.464 152.658,172.000 156.324,172.000 156.850 C 172.000 157.085,171.595 157.844,171.100 158.538 C 170.349 159.592,170.212 160.262,170.275 162.600 C 170.316 164.140,170.185 166.145,169.983 167.055 C 169.541 169.050,170.363 172.281,171.596 173.396 C 172.038 173.797,172.400 174.366,172.400 174.662 C 172.400 174.958,172.547 175.200,172.726 175.200 C 172.905 175.200,173.348 175.821,173.710 176.580 C 174.072 177.340,174.825 178.260,175.384 178.626 C 175.943 178.992,176.408 179.496,176.417 179.746 C 176.447 180.545,180.512 183.391,181.981 183.642 C 182.762 183.775,183.715 184.019,184.100 184.185 C 184.665 184.427,184.800 184.284,184.800 183.443 C 184.800 182.681,184.593 182.400,184.031 182.400 C 183.608 182.400,182.744 181.965,182.111 181.432 C 181.479 180.900,180.351 180.306,179.604 180.113 C 178.666 179.870,178.009 179.335,177.476 178.381 C 177.052 177.621,176.011 176.171,175.163 175.157 C 172.006 171.384,171.032 164.727,173.043 160.667 C 173.569 159.604,174.004 158.434,174.009 158.067 C 174.014 157.700,174.383 156.950,174.829 156.400 C 175.275 155.850,176.089 154.716,176.637 153.881 C 177.584 152.439,182.080 149.183,183.800 148.695 C 184.240 148.570,185.588 148.092,186.795 147.633 C 188.104 147.136,189.476 146.883,190.195 147.006 C 190.858 147.119,193.290 147.279,195.600 147.361 C 200.500 147.535,203.230 148.668,206.360 151.825 C 207.329 152.801,208.270 153.600,208.452 153.600 C 208.635 153.600,209.167 154.365,209.636 155.300 C 210.105 156.235,210.934 157.477,211.479 158.059 C 212.433 159.077,212.473 159.337,212.528 164.859 L 212.584 170.600 211.192 173.179 C 210.426 174.597,209.396 176.127,208.902 176.579 C 208.407 177.031,207.948 177.797,207.880 178.283 C 207.763 179.117,205.450 180.694,202.300 182.088 C 200.897 182.710,200.812 184.000,202.174 184.000 C 204.007 184.000,205.184 183.224,208.780 179.642 C 213.803 174.638,214.743 172.650,215.277 165.906 L 215.681 160.812 214.641 159.575 C 214.068 158.895,213.600 158.073,213.600 157.749 C 213.600 155.983,208.900 150.557,206.000 148.975 C 205.230 148.556,204.150 147.836,203.600 147.376 C 201.705 145.791,191.039 144.310,188.200 145.238 M187.400 150.755 C 173.850 154.694,171.387 173.093,183.669 178.631 C 185.821 179.602,186.146 179.134,186.436 174.649 C 186.797 169.057,188.565 166.800,192.587 166.800 C 196.963 166.800,198.008 168.161,198.577 174.600 C 199.070 180.176,199.369 180.472,202.588 178.586 C 209.063 174.791,211.795 165.875,208.527 159.200 C 204.779 151.544,196.319 148.162,187.400 150.755 M291.000 168.411 C 288.294 169.632,287.365 171.532,286.996 176.600 C 286.480 183.679,285.631 189.143,284.604 192.000 C 284.327 192.770,283.697 194.750,283.205 196.400 C 281.320 202.709,277.079 211.101,272.965 216.665 C 262.149 231.291,245.688 243.186,228.200 249.014 C 226.440 249.600,224.640 250.229,224.200 250.412 C 219.918 252.190,209.261 254.069,199.400 254.786 C 187.827 255.627,185.388 257.026,186.110 262.405 C 186.775 267.365,191.645 268.911,202.436 267.588 C 215.386 266.000,215.923 265.903,224.600 263.603 C 236.889 260.344,247.411 255.527,258.600 248.036 C 264.514 244.077,273.515 236.360,276.419 232.758 C 277.179 231.816,278.703 229.955,279.807 228.623 C 288.198 218.493,295.348 204.292,297.541 193.400 C 299.907 181.644,300.574 174.639,299.511 172.695 C 297.142 168.361,294.292 166.927,291.000 168.411 M89.400 176.677 C 82.794 180.229,85.985 189.333,93.443 188.214 C 94.742 188.020,95.481 187.586,96.572 186.379 C 100.941 181.543,95.084 173.621,89.400 176.677 M235.605 185.677 C 233.137 186.589,232.492 188.682,234.017 190.823 C 235.993 193.599,240.800 192.054,240.800 188.642 C 240.800 186.854,237.505 184.973,235.605 185.677 M146.411 186.045 C 143.127 187.356,144.851 192.200,148.601 192.200 C 150.986 192.200,152.000 191.115,152.000 188.566 C 152.000 186.033,149.391 184.856,146.411 186.045 M108.800 223.668 C 101.608 225.699,104.069 236.520,111.471 235.410 C 117.814 234.459,118.570 225.849,112.497 223.733 C 110.782 223.136,110.688 223.134,108.800 223.668 M152.600 250.483 C 144.365 253.361,147.918 265.133,156.196 262.401 C 159.879 261.186,161.289 255.896,158.714 252.963 C 157.736 251.849,154.352 249.803,153.867 250.032 C 153.830 250.049,153.260 250.252,152.600 250.483 " stroke="none" fill="#11c187" fill-rule="evenodd"></path><path id="path4" d="M189.554 68.979 C 189.420 69.113,186.180 69.407,182.355 69.632 C 175.338 70.045,171.001 70.649,166.600 71.829 C 165.280 72.183,163.524 72.565,162.697 72.678 C 161.871 72.792,161.095 73.045,160.974 73.242 C 160.852 73.439,160.334 73.600,159.822 73.600 C 158.691 73.600,155.209 74.631,152.912 75.647 C 151.984 76.057,150.094 76.774,148.712 77.241 C 141.672 79.617,128.728 86.856,121.600 92.403 C 114.007 98.311,104.438 108.110,101.764 112.714 C 101.162 113.751,100.544 114.690,100.392 114.800 C 100.121 114.995,96.730 120.416,94.637 124.000 C 93.305 126.281,91.833 129.456,91.182 131.452 C 90.904 132.303,90.450 133.540,90.172 134.200 C 89.415 135.998,87.740 141.529,87.265 143.800 C 84.680 156.152,84.223 161.469,85.409 165.379 C 86.668 169.529,90.263 171.346,94.440 169.943 C 96.211 169.349,98.382 166.921,98.392 165.524 C 98.397 164.932,98.580 164.336,98.800 164.200 C 99.020 164.064,99.200 162.900,99.200 161.613 C 99.200 155.336,101.000 145.441,103.023 140.600 C 103.299 139.940,103.753 138.590,104.032 137.600 C 104.312 136.610,104.666 135.620,104.819 135.400 C 104.973 135.180,105.986 133.290,107.070 131.200 C 109.439 126.635,111.388 123.547,114.264 119.800 C 115.446 118.260,116.685 116.640,117.017 116.200 C 119.393 113.054,128.037 105.043,131.558 102.724 C 132.791 101.912,133.980 101.098,134.200 100.914 C 136.270 99.185,144.248 94.708,148.600 92.833 C 149.700 92.360,150.883 91.817,151.228 91.627 C 152.285 91.048,156.874 89.293,159.200 88.578 C 160.410 88.207,162.210 87.633,163.200 87.303 C 164.190 86.973,166.170 86.478,167.600 86.203 C 170.656 85.615,176.407 84.547,179.800 83.938 C 181.120 83.701,184.990 83.377,188.400 83.218 C 196.709 82.832,198.208 82.131,199.766 77.900 C 201.032 74.464,198.708 70.547,194.830 69.577 C 192.383 68.965,189.855 68.679,189.554 68.979 M194.109 70.258 C 202.332 71.617,200.079 82.000,191.561 82.000 C 187.610 82.000,182.169 82.653,171.200 84.442 C 169.770 84.676,167.790 85.099,166.800 85.384 C 165.810 85.669,164.280 86.102,163.400 86.347 C 159.333 87.479,154.791 89.016,152.600 90.000 C 151.280 90.594,149.570 91.323,148.800 91.622 C 144.793 93.176,130.314 101.744,129.200 103.221 C 129.090 103.366,127.869 104.423,126.488 105.568 C 116.861 113.545,107.512 126.146,103.612 136.400 C 103.320 137.170,102.858 138.340,102.588 139.000 C 100.427 144.268,99.018 150.855,98.397 158.600 C 97.809 165.918,96.735 168.800,94.593 168.800 C 94.238 168.800,93.578 168.998,93.127 169.239 C 92.153 169.760,88.991 169.016,87.951 168.021 C 85.986 166.141,85.334 159.563,86.442 152.800 C 87.300 147.566,88.220 143.111,88.754 141.600 C 88.948 141.050,89.327 139.790,89.597 138.800 C 90.057 137.105,90.667 135.385,91.794 132.600 C 92.061 131.940,92.526 130.770,92.826 130.000 C 93.693 127.775,97.204 121.123,98.248 119.727 C 98.772 119.026,99.200 118.338,99.200 118.197 C 99.200 118.056,100.145 116.590,101.300 114.941 C 112.222 99.342,129.838 85.482,147.200 78.830 C 149.070 78.114,151.140 77.292,151.800 77.004 C 154.148 75.980,160.945 74.001,166.800 72.636 C 174.906 70.746,189.416 69.482,194.109 70.258 M228.946 74.615 C 224.579 76.529,223.220 82.520,226.407 85.808 C 229.721 89.226,235.891 88.233,237.812 83.973 C 240.346 78.354,234.497 72.181,228.946 74.615 M234.320 75.761 C 237.964 77.654,238.510 82.739,235.367 85.521 C 230.863 89.509,223.235 84.201,225.926 78.952 C 227.687 75.518,231.246 74.165,234.320 75.761 M185.800 89.600 C 183.587 89.753,186.208 89.852,192.600 89.857 C 200.310 89.864,201.914 89.792,198.800 89.582 C 193.907 89.251,190.784 89.256,185.800 89.600 M179.000 90.400 C 177.906 90.870,179.733 90.870,181.200 90.400 C 182.175 90.088,182.170 90.079,181.000 90.068 C 180.340 90.062,179.440 90.211,179.000 90.400 M204.000 90.400 C 205.467 90.870,207.294 90.870,206.200 90.400 C 205.760 90.211,204.860 90.062,204.200 90.068 C 203.030 90.079,203.025 90.088,204.000 90.400 M173.200 91.227 C 172.650 91.415,170.760 91.866,169.000 92.230 C 167.240 92.594,165.233 93.141,164.540 93.446 C 163.846 93.751,163.079 94.000,162.834 94.000 C 162.589 94.000,162.077 94.158,161.695 94.352 C 161.313 94.545,160.010 95.020,158.800 95.408 C 157.590 95.795,156.420 96.293,156.200 96.515 C 155.932 96.785,156.064 96.823,156.600 96.630 C 163.710 94.076,168.328 92.771,175.000 91.428 C 177.557 90.914,177.644 90.866,176.000 90.875 C 175.010 90.881,173.750 91.039,173.200 91.227 M209.000 91.180 C 209.880 91.366,211.590 91.706,212.800 91.935 C 214.010 92.165,215.630 92.479,216.400 92.634 C 217.216 92.798,217.661 92.766,217.467 92.558 C 217.062 92.124,212.612 91.251,209.600 91.015 C 207.628 90.860,207.566 90.877,209.000 91.180 M218.800 93.271 C 219.350 93.501,220.340 93.831,221.000 94.002 C 230.384 96.441,245.286 104.486,253.194 111.384 C 259.530 116.911,267.834 126.514,269.728 130.504 C 270.324 131.761,271.200 132.814,271.200 132.274 C 271.200 132.000,269.075 128.222,268.796 128.000 C 268.657 127.890,267.761 126.720,266.804 125.400 C 261.492 118.073,247.456 104.800,245.021 104.800 C 244.881 104.800,244.415 104.472,243.985 104.072 C 243.555 103.671,242.347 102.921,241.301 102.404 C 240.256 101.887,239.310 101.342,239.200 101.193 C 238.905 100.791,228.722 96.000,228.165 96.000 C 228.031 96.000,227.354 95.754,226.660 95.453 C 225.967 95.152,224.320 94.575,223.000 94.171 C 221.680 93.766,220.429 93.293,220.220 93.118 C 220.011 92.943,219.381 92.811,218.820 92.825 L 217.800 92.851 218.800 93.271 M182.922 96.592 C 180.679 96.862,178.069 97.275,177.122 97.509 C 176.175 97.743,174.320 98.147,173.000 98.406 C 171.680 98.665,169.756 99.130,168.725 99.438 C 167.694 99.747,166.515 100.000,166.105 100.000 C 165.695 100.000,165.189 100.155,164.980 100.345 C 164.771 100.535,163.160 101.191,161.400 101.803 C 143.101 108.165,126.659 122.388,118.171 139.200 C 115.326 144.834,115.012 145.546,115.263 145.796 C 115.371 145.905,115.869 145.050,116.368 143.897 C 118.349 139.318,121.905 132.897,123.273 131.429 C 123.673 131.000,124.000 130.516,124.000 130.353 C 124.000 130.190,124.225 129.819,124.500 129.529 C 124.775 129.238,125.780 127.974,126.733 126.721 C 128.614 124.246,136.038 116.913,138.606 114.992 C 139.483 114.336,140.438 113.575,140.729 113.300 C 141.019 113.025,141.379 112.800,141.529 112.799 C 141.678 112.799,142.430 112.259,143.200 111.600 C 143.970 110.941,144.727 110.401,144.882 110.401 C 145.037 110.400,145.847 109.931,146.682 109.358 C 148.599 108.043,155.841 104.447,159.000 103.242 C 162.970 101.728,164.559 101.120,165.400 100.793 C 165.840 100.622,167.460 100.184,169.000 99.820 C 170.540 99.456,172.430 99.003,173.200 98.813 C 181.628 96.739,190.286 96.164,201.800 96.912 L 205.800 97.173 201.800 96.608 C 196.974 95.928,188.489 95.920,182.922 96.592 M153.600 97.429 C 153.050 97.735,151.880 98.314,151.000 98.716 C 150.120 99.118,148.320 100.054,147.000 100.795 C 145.680 101.537,144.238 102.336,143.795 102.572 C 142.700 103.155,137.049 106.900,136.800 107.208 C 136.690 107.345,135.520 108.242,134.200 109.202 C 131.679 111.037,123.048 119.464,120.889 122.200 C 118.911 124.707,116.951 127.541,114.512 131.423 C 113.224 133.473,110.721 138.414,109.775 140.772 C 109.195 142.217,108.558 143.713,108.360 144.095 C 108.162 144.477,108.000 144.989,108.000 145.234 C 108.000 145.479,107.753 146.246,107.452 146.940 C 105.969 150.349,104.831 156.116,104.203 163.400 C 104.046 165.214,104.309 163.857,105.633 156.000 C 106.110 153.174,107.088 149.074,107.590 147.800 C 107.764 147.360,108.402 145.650,109.009 144.000 C 113.650 131.390,124.059 117.250,134.200 109.779 C 135.080 109.130,136.229 108.212,136.754 107.738 C 137.279 107.265,138.179 106.635,138.754 106.340 C 139.329 106.044,140.610 105.240,141.600 104.553 C 144.346 102.648,153.010 98.027,153.911 97.987 C 154.070 97.980,154.549 97.710,154.976 97.387 C 155.983 96.626,154.991 96.656,153.600 97.429 M206.076 97.409 C 206.191 97.524,207.526 97.873,209.042 98.184 C 219.307 100.292,223.936 101.792,231.422 105.438 C 245.529 112.307,258.109 123.690,265.094 135.906 C 266.524 138.406,268.668 142.794,269.147 144.200 C 269.447 145.080,269.922 146.340,270.203 147.000 C 270.483 147.660,270.993 148.920,271.336 149.800 C 271.679 150.680,271.968 151.100,271.979 150.733 C 271.991 150.366,271.625 149.196,271.166 148.133 C 270.708 147.070,270.058 145.390,269.722 144.400 C 268.125 139.688,262.037 129.725,257.989 125.200 C 253.883 120.610,247.839 114.837,246.054 113.800 C 245.675 113.580,244.346 112.635,243.100 111.700 C 241.854 110.765,240.728 110.000,240.598 110.000 C 240.468 110.000,239.335 109.343,238.081 108.540 C 235.913 107.153,228.709 103.522,226.181 102.543 C 221.162 100.599,217.468 99.464,213.400 98.615 C 211.640 98.248,209.549 97.780,208.754 97.574 C 207.174 97.166,205.744 97.078,206.076 97.409 M271.400 102.052 C 266.282 105.120,267.104 112.985,272.715 114.616 C 274.406 115.108,275.170 115.160,275.890 114.832 C 276.411 114.594,277.192 114.400,277.626 114.400 C 281.255 114.400,282.776 106.756,279.825 103.343 C 278.417 101.714,273.278 100.927,271.400 102.052 M278.041 103.314 C 282.894 106.579,280.990 113.420,275.096 113.893 C 270.947 114.226,268.851 111.864,269.182 107.225 C 269.469 103.193,274.536 100.956,278.041 103.314 M188.400 110.289 C 182.015 113.530,180.393 119.087,184.264 124.455 C 185.542 126.226,186.304 126.743,189.705 128.144 L 191.211 128.764 191.153 134.761 L 191.096 140.758 189.888 141.179 C 189.224 141.411,188.278 141.600,187.786 141.600 C 186.665 141.600,182.948 142.694,181.538 143.439 C 180.954 143.748,180.257 144.000,179.989 144.000 C 179.197 144.000,174.371 147.612,172.395 149.683 C 170.060 152.131,170.828 152.297,161.400 147.316 C 160.960 147.084,160.140 146.680,159.577 146.420 C 158.597 145.967,158.554 145.806,158.577 142.656 C 158.607 138.381,157.322 136.223,153.400 133.961 C 148.571 131.176,138.800 134.447,138.800 138.848 C 138.800 139.236,138.620 139.664,138.400 139.800 C 137.159 140.567,138.676 146.733,140.572 148.629 C 144.272 152.329,149.883 152.781,154.657 149.765 L 156.714 148.465 159.657 149.955 C 162.141 151.212,167.906 154.320,168.329 154.630 C 168.400 154.682,168.157 155.596,167.790 156.662 C 165.374 163.677,165.379 167.578,167.816 174.522 C 168.187 175.579,168.425 176.490,168.345 176.546 C 168.265 176.603,166.850 177.340,165.200 178.184 C 161.085 180.289,157.895 182.031,157.314 182.490 C 156.984 182.752,156.408 182.575,155.516 181.937 C 146.368 175.404,134.514 183.080,139.025 192.616 C 143.866 202.849,160.343 198.297,158.628 187.200 C 158.302 185.089,157.760 185.541,165.059 181.832 L 170.200 179.220 173.600 182.443 C 176.627 185.314,177.482 185.874,181.400 187.553 L 185.800 189.438 185.911 195.602 C 186.042 202.903,186.043 202.898,184.461 202.301 C 180.550 200.825,173.506 205.996,174.798 209.395 C 175.183 210.407,178.744 212.900,183.252 215.311 C 186.093 216.831,188.800 219.032,188.800 219.823 C 188.800 220.957,194.546 226.225,197.219 227.540 C 207.088 232.399,219.895 229.552,225.739 221.200 C 228.879 216.714,229.163 215.540,229.247 206.728 C 229.346 196.280,230.649 197.066,212.800 196.800 L 199.400 196.600 199.286 192.969 L 199.172 189.337 200.886 188.799 C 201.829 188.503,203.050 188.038,203.600 187.765 C 204.150 187.493,205.353 186.939,206.273 186.535 C 208.164 185.704,212.713 181.961,213.848 180.301 C 214.848 178.840,214.861 178.842,219.753 181.574 C 222.091 182.879,224.400 184.073,224.884 184.227 C 226.522 184.747,226.800 185.397,226.800 188.716 C 226.800 193.139,228.802 195.977,233.166 197.741 C 237.745 199.592,245.495 196.623,246.276 192.721 C 246.401 192.095,246.660 191.486,246.852 191.368 C 247.509 190.962,247.217 186.941,246.395 185.082 C 243.786 179.184,235.178 177.570,229.636 181.940 C 228.753 182.636,223.580 180.780,222.000 179.200 C 221.890 179.090,220.765 178.483,219.500 177.851 C 216.856 176.530,216.877 176.615,218.200 172.561 C 219.612 168.235,219.606 162.946,218.183 158.587 C 216.858 154.528,216.813 154.626,221.000 152.434 C 222.980 151.398,225.479 150.056,226.553 149.453 L 228.506 148.357 230.553 149.715 C 234.229 152.154,238.366 152.479,241.975 150.613 C 243.650 149.747,246.400 146.885,246.400 146.008 C 246.400 145.590,246.580 145.136,246.800 145.000 C 248.627 143.871,246.379 137.064,243.498 135.000 C 236.055 129.669,226.800 133.958,226.800 142.738 L 226.800 145.916 224.300 147.159 C 222.925 147.843,221.170 148.760,220.400 149.197 C 218.572 150.234,215.549 151.600,215.082 151.600 C 214.879 151.600,213.768 150.655,212.612 149.500 C 209.473 146.364,206.523 144.247,204.629 143.771 C 204.059 143.628,203.494 143.351,203.373 143.156 C 203.252 142.960,202.734 142.800,202.222 142.800 C 201.710 142.800,200.776 142.531,200.146 142.202 C 199.516 141.874,198.427 141.604,197.726 141.602 C 197.025 141.601,195.990 141.424,195.426 141.210 L 194.400 140.820 194.400 134.637 C 194.400 128.568,194.417 128.449,195.300 128.195 C 203.830 125.738,205.794 116.695,198.924 111.507 C 196.247 109.486,191.146 108.896,188.400 110.289 M197.385 111.370 C 204.508 115.544,203.735 124.348,195.998 127.169 L 193.600 128.043 193.600 134.541 C 193.600 141.762,193.679 142.000,196.072 142.000 C 200.206 142.000,207.260 145.390,211.578 149.452 C 214.883 152.561,215.206 152.710,216.800 151.865 C 217.350 151.573,219.780 150.296,222.200 149.026 C 227.682 146.151,228.067 145.829,227.575 144.535 C 226.085 140.616,229.273 135.169,233.768 133.952 C 243.222 131.394,250.673 141.691,244.114 148.250 C 240.628 151.736,232.155 151.766,229.945 148.299 C 229.534 147.654,227.906 147.841,226.400 148.707 C 225.630 149.150,223.380 150.350,221.400 151.373 C 215.957 154.187,215.726 154.406,216.485 156.053 C 219.247 162.047,219.334 168.422,216.735 174.462 L 215.845 176.532 216.784 177.166 C 218.636 178.416,228.033 183.200,228.637 183.200 C 228.976 183.200,229.836 182.756,230.548 182.212 C 237.644 176.800,248.697 182.675,246.353 190.613 C 243.162 201.422,226.291 198.898,227.330 187.767 C 227.613 184.744,227.851 184.985,221.114 181.461 C 215.513 178.531,214.423 178.294,213.438 179.797 C 211.670 182.497,203.194 188.000,200.805 188.000 C 198.995 188.000,198.584 189.089,198.800 193.315 C 199.058 198.373,197.830 197.987,213.684 197.994 C 230.369 198.001,228.800 197.186,228.800 205.856 C 228.800 215.110,227.718 218.319,223.017 223.013 C 215.823 230.196,203.245 231.295,195.294 225.436 C 192.750 223.561,189.200 219.805,189.200 218.987 C 189.200 218.230,186.255 216.056,182.003 213.673 C 174.720 209.592,174.214 208.807,176.895 205.753 C 178.787 203.598,180.156 203.064,183.700 203.099 L 186.800 203.130 186.800 196.214 C 186.800 188.457,187.028 189.032,183.400 187.648 C 178.592 185.813,175.906 184.018,172.301 180.228 L 170.402 178.232 168.301 179.307 C 156.984 185.093,157.598 184.586,157.862 187.928 C 158.553 196.682,147.827 201.027,141.369 194.609 C 133.055 186.346,145.964 174.984,155.175 182.458 L 156.550 183.573 161.975 180.726 C 170.310 176.352,169.706 177.089,168.115 173.231 C 166.238 168.677,166.678 158.711,168.866 156.220 C 170.229 154.669,169.806 154.358,158.431 148.543 C 157.457 148.046,156.467 147.753,156.231 147.893 C 155.994 148.034,154.925 148.745,153.855 149.474 C 149.288 152.588,142.111 150.741,139.653 145.821 C 136.634 139.774,140.980 133.805,148.400 133.808 C 154.919 133.811,158.335 137.221,157.900 143.294 C 157.672 146.487,157.135 145.941,164.062 149.552 C 170.691 153.009,170.165 153.000,173.503 149.700 C 177.725 145.526,184.929 142.000,189.235 142.000 C 191.830 142.000,192.000 141.546,192.000 134.620 C 192.000 127.843,192.056 127.996,189.249 127.163 C 182.743 125.231,180.950 117.015,186.077 112.627 C 189.321 109.850,193.920 109.339,197.385 111.370 M273.096 136.421 C 275.008 140.280,275.887 141.214,274.177 137.569 C 272.545 134.092,271.836 132.800,271.560 132.800 C 271.418 132.800,272.109 134.430,273.096 136.421 M275.368 141.034 C 275.833 142.203,277.812 147.986,278.404 149.902 C 278.693 150.838,279.022 151.512,279.134 151.399 C 279.351 151.183,277.489 145.086,276.551 142.940 C 276.248 142.246,276.000 141.492,276.000 141.263 C 276.000 141.034,275.789 140.717,275.532 140.558 C 275.204 140.355,275.155 140.497,275.368 141.034 M114.288 147.897 C 113.684 149.407,112.900 152.470,111.590 158.447 C 111.319 159.682,111.184 160.942,111.289 161.247 C 111.394 161.551,111.704 160.450,111.979 158.800 C 112.254 157.150,112.628 155.440,112.812 155.000 C 112.995 154.560,113.233 153.660,113.340 153.000 C 113.695 150.810,114.436 148.238,114.859 147.729 C 115.088 147.453,115.202 147.006,115.112 146.736 C 115.022 146.467,114.651 146.989,114.288 147.897 M291.200 148.808 C 288.385 149.464,286.505 152.477,286.712 156.000 C 287.126 163.054,296.696 164.718,299.635 158.246 C 302.181 152.639,297.455 147.351,291.200 148.808 M296.362 150.286 C 298.460 151.870,298.631 152.077,299.162 153.685 C 300.997 159.245,293.355 163.726,289.231 159.507 C 284.506 154.674,291.019 146.252,296.362 150.286 M272.168 152.800 C 273.802 160.898,274.094 163.548,274.132 170.600 C 274.158 175.549,274.260 176.910,274.507 175.600 C 275.338 171.178,273.585 152.971,272.204 151.695 C 272.029 151.533,272.012 152.030,272.168 152.800 M279.355 153.000 C 279.447 153.660,279.803 156.000,280.147 158.200 C 280.491 160.400,280.838 162.920,280.919 163.800 C 281.034 165.058,281.080 164.908,281.133 163.100 C 281.203 160.701,280.218 154.141,279.565 152.657 C 279.242 151.923,279.212 151.972,279.355 153.000 M110.766 164.700 C 110.748 165.745,110.660 167.410,110.570 168.400 C 110.481 169.390,110.562 171.640,110.750 173.400 C 111.060 176.289,111.099 175.930,111.147 169.700 C 111.176 165.905,111.110 162.800,111.000 162.800 C 110.890 162.800,110.785 163.655,110.766 164.700 M103.742 169.400 C 103.741 171.380,103.808 172.240,103.892 171.312 C 103.976 170.384,103.977 168.764,103.895 167.712 C 103.812 166.660,103.743 167.420,103.742 169.400 M293.846 167.967 C 296.394 168.381,296.932 168.681,298.192 170.389 C 298.746 171.141,299.200 171.538,299.200 171.272 C 299.200 169.760,296.610 167.960,294.200 167.797 L 291.800 167.634 293.846 167.967 M288.669 169.576 C 287.124 171.286,286.998 171.753,286.400 177.942 C 285.968 182.418,285.893 184.641,286.183 184.350 C 286.284 184.249,286.559 181.744,286.794 178.783 C 287.381 171.377,288.043 169.745,291.000 168.411 C 291.781 168.059,291.780 168.050,290.947 168.025 C 290.439 168.010,289.515 168.639,288.669 169.576 M191.400 168.833 C 189.121 169.482,189.166 169.001,189.189 192.140 C 189.212 215.344,189.191 215.102,191.585 218.975 C 195.571 225.425,207.665 229.427,214.200 226.458 C 217.994 224.735,219.310 223.887,221.440 221.792 C 225.814 217.493,226.790 214.633,226.796 206.100 L 226.800 200.000 216.300 199.935 C 210.525 199.900,204.442 199.917,202.782 199.975 C 196.153 200.204,196.375 200.761,196.276 183.690 C 196.187 168.241,195.956 167.537,191.400 168.833 M300.131 176.200 C 300.133 177.740,300.205 178.321,300.292 177.491 C 300.379 176.661,300.377 175.401,300.289 174.691 C 300.200 173.981,300.129 174.660,300.131 176.200 M104.078 175.800 C 104.066 176.900,104.211 178.160,104.400 178.600 C 104.865 179.683,104.876 178.159,104.420 175.600 L 104.100 173.800 104.078 175.800 M280.874 175.630 C 280.700 178.994,279.115 188.232,278.443 189.800 C 278.162 190.457,276.979 193.913,275.432 198.600 C 275.287 199.040,275.598 198.500,276.124 197.400 C 276.649 196.300,277.392 194.410,277.774 193.200 C 278.155 191.990,278.623 190.640,278.813 190.200 C 279.131 189.463,279.596 187.309,280.800 181.000 C 281.052 179.680,281.188 177.610,281.103 176.400 C 281.004 174.993,280.921 174.715,280.874 175.630 M92.000 175.861 C 97.499 176.765,100.009 182.574,96.553 186.399 C 95.758 187.279,95.278 188.000,95.487 188.000 C 96.307 188.000,98.015 185.519,98.410 183.754 C 99.255 179.986,96.561 176.090,92.932 175.833 C 91.869 175.758,91.450 175.770,92.000 175.861 M87.659 177.500 C 85.720 179.308,84.743 182.148,85.535 183.669 C 85.996 184.554,86.010 184.538,85.829 183.347 C 85.434 180.749,86.893 178.026,89.400 176.677 C 90.149 176.275,90.350 176.026,89.934 176.016 C 89.567 176.007,88.543 176.675,87.659 177.500 M273.664 178.694 C 273.629 179.406,273.419 180.756,273.197 181.694 C 272.976 182.632,272.507 184.796,272.157 186.501 C 271.806 188.207,271.357 189.703,271.160 189.825 C 270.962 189.947,270.800 190.339,270.800 190.696 C 270.800 191.568,267.961 198.413,266.361 201.400 C 260.847 211.692,252.249 221.075,241.893 228.100 C 240.353 229.145,239.030 230.000,238.954 230.000 C 238.878 230.000,237.867 230.596,236.708 231.324 C 233.744 233.185,227.205 236.260,223.290 237.634 C 220.624 238.569,220.080 239.219,222.670 238.375 C 227.670 236.745,236.927 232.126,241.400 229.029 C 242.060 228.572,242.892 228.018,243.248 227.799 C 244.428 227.073,248.374 223.998,249.547 222.890 C 255.541 217.232,256.464 216.267,259.673 212.306 C 263.830 207.173,268.047 199.829,270.182 194.000 C 270.787 192.350,271.413 190.730,271.575 190.400 C 271.891 189.752,272.862 185.933,273.608 182.400 C 273.863 181.190,273.995 179.570,273.900 178.800 L 273.728 177.400 273.664 178.694 M111.247 178.694 C 111.199 179.609,111.377 180.469,112.842 186.400 C 113.304 188.270,113.779 190.250,113.899 190.800 C 114.181 192.097,115.200 193.639,115.200 192.769 C 115.200 192.434,115.048 191.989,114.863 191.780 C 114.678 191.571,114.219 190.140,113.842 188.600 C 113.466 187.060,112.994 185.170,112.793 184.400 C 112.592 183.630,112.173 181.830,111.861 180.400 C 111.549 178.970,111.272 178.202,111.247 178.694 M105.002 181.800 C 105.222 185.382,106.231 189.854,107.452 192.660 C 107.753 193.354,108.000 194.121,108.000 194.366 C 108.000 194.611,108.162 195.123,108.360 195.505 C 108.558 195.887,109.227 197.460,109.847 199.000 C 110.907 201.635,112.768 205.219,114.730 208.400 C 115.205 209.170,115.715 210.070,115.865 210.400 C 116.014 210.730,116.511 211.472,116.968 212.050 C 117.426 212.627,118.160 213.608,118.600 214.230 C 124.207 222.156,139.983 236.400,143.154 236.400 C 143.399 236.400,143.600 236.557,143.600 236.750 C 143.600 236.942,145.175 237.887,147.100 238.850 C 149.025 239.812,150.690 240.700,150.800 240.823 C 150.910 240.945,151.630 241.287,152.400 241.583 C 154.321 242.320,156.369 243.157,157.800 243.790 C 160.107 244.811,162.514 245.636,164.947 246.242 C 166.296 246.578,168.030 247.035,168.800 247.258 C 181.802 251.020,202.564 251.094,216.070 247.427 C 225.754 244.798,228.132 243.911,236.200 239.920 C 251.522 232.340,266.662 217.630,273.203 203.967 C 273.879 202.555,274.617 201.067,274.844 200.661 C 275.070 200.255,275.166 199.833,275.057 199.724 C 274.948 199.614,274.141 201.028,273.264 202.866 C 265.470 219.196,248.185 235.017,230.443 242.062 C 228.770 242.726,227.220 243.403,227.000 243.567 C 226.626 243.844,221.135 245.569,218.000 246.394 C 217.230 246.596,215.610 247.025,214.400 247.347 C 210.502 248.384,207.566 248.749,194.876 249.775 C 190.472 250.132,175.387 248.599,170.800 247.329 C 160.974 244.610,154.073 242.122,149.760 239.745 C 148.858 239.248,147.238 238.360,146.160 237.772 C 142.937 236.013,142.641 235.838,141.333 234.900 C 140.642 234.405,139.894 234.000,139.672 234.000 C 139.449 234.000,139.207 233.854,139.133 233.675 C 139.060 233.496,137.920 232.567,136.600 231.610 C 131.689 228.049,125.440 222.130,122.000 217.781 C 121.010 216.530,119.720 214.935,119.133 214.237 C 116.155 210.699,111.389 202.036,109.355 196.464 C 108.580 194.339,107.794 192.240,107.610 191.800 C 106.979 190.292,106.087 186.350,105.031 180.400 C 104.933 179.850,104.920 180.480,105.002 181.800 M299.446 181.947 C 299.289 183.127,299.246 184.179,299.350 184.283 C 299.617 184.550,300.122 180.964,299.907 180.325 C 299.811 180.036,299.603 180.766,299.446 181.947 M86.000 185.311 C 86.000 187.564,91.730 189.912,94.000 188.589 C 94.970 188.023,94.951 188.013,93.383 188.241 C 90.981 188.590,88.672 187.816,87.237 186.181 C 86.556 185.406,86.000 185.015,86.000 185.311 M285.254 187.668 C 284.966 189.061,284.565 190.724,284.363 191.365 C 284.161 192.006,284.063 192.596,284.144 192.678 C 284.551 193.084,286.230 186.490,285.941 185.622 C 285.852 185.355,285.543 186.276,285.254 187.668 M298.500 188.224 C 297.819 191.524,297.915 192.711,298.643 190.001 C 298.968 188.792,299.181 187.352,299.117 186.801 C 299.042 186.161,298.820 186.673,298.500 188.224 M297.422 193.822 C 297.272 194.625,297.238 195.372,297.348 195.482 C 297.458 195.592,297.672 195.025,297.822 194.222 C 297.973 193.419,298.006 192.673,297.896 192.563 C 297.786 192.453,297.573 193.019,297.422 193.822 M115.224 193.905 C 115.211 194.183,115.362 194.723,115.559 195.105 C 115.756 195.487,116.248 196.610,116.652 197.600 C 119.980 205.763,129.242 217.652,137.400 224.233 C 144.894 230.278,154.972 235.833,163.518 238.630 C 167.862 240.051,170.883 240.851,171.097 240.636 C 171.198 240.535,170.498 240.253,169.540 240.010 C 168.583 239.766,167.440 239.418,167.000 239.236 C 166.560 239.054,164.748 238.441,162.974 237.874 C 161.200 237.307,158.590 236.311,157.174 235.660 C 155.758 235.010,153.970 234.195,153.200 233.851 C 152.430 233.506,150.720 232.589,149.400 231.813 C 148.080 231.037,146.595 230.192,146.100 229.937 C 145.605 229.681,145.200 229.320,145.200 229.136 C 145.200 228.951,145.024 228.800,144.808 228.800 C 143.378 228.800,134.128 221.114,130.000 216.496 C 128.570 214.896,126.900 213.039,126.290 212.369 C 125.679 211.699,124.707 210.397,124.130 209.476 C 123.553 208.554,122.968 207.710,122.831 207.600 C 121.982 206.919,118.945 201.365,116.269 195.600 C 115.708 194.390,115.238 193.627,115.224 193.905 M283.236 195.236 C 282.966 196.139,282.818 196.952,282.908 197.042 C 282.998 197.132,283.293 196.466,283.564 195.564 C 283.834 194.661,283.982 193.848,283.892 193.758 C 283.802 193.668,283.507 194.334,283.236 195.236 M296.423 197.698 C 296.145 198.634,295.755 199.813,295.558 200.319 C 295.091 201.516,295.111 201.959,295.596 201.200 C 296.158 200.323,297.348 196.415,297.122 196.189 C 297.016 196.083,296.702 196.762,296.423 197.698 M281.285 200.813 C 281.018 201.240,280.801 201.817,280.802 202.095 C 280.804 202.373,281.077 202.078,281.410 201.440 C 282.103 200.111,282.011 199.650,281.285 200.813 M294.022 204.491 C 293.488 205.871,292.636 207.886,292.128 208.969 C 291.621 210.052,291.279 211.013,291.370 211.103 C 291.552 211.286,294.000 206.413,294.000 205.866 C 294.000 205.676,294.287 204.916,294.638 204.176 C 294.989 203.436,295.213 202.639,295.135 202.406 C 295.057 202.172,294.557 203.110,294.022 204.491 M278.021 207.698 C 272.481 217.955,262.279 229.476,253.600 235.276 C 252.268 236.167,250.039 238.140,250.800 237.754 C 254.160 236.054,265.318 226.113,269.675 220.939 C 271.507 218.763,275.120 213.766,276.030 212.150 C 278.503 207.758,280.065 204.732,279.930 204.596 C 279.846 204.513,278.987 205.909,278.021 207.698 M180.800 205.089 C 179.848 205.448,177.525 207.975,177.691 208.472 C 177.838 208.915,185.908 213.963,186.509 213.987 C 186.798 213.999,186.554 208.423,186.185 206.569 C 185.907 205.174,182.822 204.327,180.800 205.089 M290.097 213.375 C 289.609 214.379,289.280 215.200,289.366 215.200 C 289.679 215.200,291.229 212.287,291.108 211.925 C 291.040 211.719,290.585 212.372,290.097 213.375 M288.502 216.100 C 287.936 216.815,287.140 218.400,287.346 218.400 C 287.442 218.400,287.893 217.770,288.347 217.000 C 289.173 215.601,289.249 215.157,288.502 216.100 M286.063 220.183 C 285.603 220.962,285.299 221.600,285.386 221.600 C 285.699 221.600,287.283 219.150,287.093 218.960 C 286.986 218.853,286.523 219.404,286.063 220.183 M283.363 224.081 C 282.520 225.247,280.923 227.290,279.815 228.623 C 278.707 229.955,277.179 231.816,276.419 232.758 C 270.753 239.786,255.988 250.682,244.900 256.020 C 241.269 257.767,240.357 258.548,243.700 257.047 C 244.855 256.528,246.340 255.864,247.000 255.571 C 247.660 255.278,248.739 254.670,249.398 254.220 C 250.057 253.769,251.227 253.056,251.998 252.635 C 252.769 252.214,253.760 251.672,254.200 251.430 C 255.136 250.916,260.815 247.196,261.400 246.714 C 261.620 246.532,263.329 245.173,265.198 243.692 C 269.665 240.153,276.184 233.849,279.082 230.269 C 280.357 228.693,281.805 226.955,282.300 226.406 C 282.795 225.857,283.200 225.236,283.200 225.026 C 283.200 224.816,283.682 224.141,284.271 223.526 C 284.860 222.911,285.241 222.308,285.119 222.185 C 284.996 222.063,284.206 222.916,283.363 224.081 M107.800 223.466 C 105.517 224.672,103.947 226.871,104.028 228.749 C 104.044 229.107,104.318 228.685,104.638 227.812 C 106.738 222.076,114.527 221.924,116.394 227.582 C 118.832 234.969,107.851 238.791,104.912 231.578 C 103.916 229.133,103.656 229.673,104.618 232.191 C 106.890 238.141,116.372 236.667,117.095 230.252 C 117.678 225.080,112.248 221.116,107.800 223.466 M248.194 238.960 C 247.531 239.483,246.091 240.403,244.994 241.005 C 243.130 242.027,241.654 243.104,242.601 242.750 C 244.786 241.933,250.754 238.001,249.800 238.006 C 249.580 238.008,248.857 238.437,248.194 238.960 M216.400 239.814 C 214.970 240.318,214.057 240.746,214.372 240.765 C 214.956 240.801,216.707 240.292,219.200 239.363 C 221.655 238.448,219.116 238.857,216.400 239.814 M172.800 241.206 C 175.037 241.801,182.413 242.859,183.138 242.689 C 183.502 242.603,182.900 242.406,181.800 242.249 C 180.700 242.092,178.720 241.769,177.400 241.530 C 173.937 240.904,170.845 240.686,172.800 241.206 M210.200 241.167 C 209.760 241.342,207.696 241.699,205.613 241.963 C 203.530 242.226,201.730 242.547,201.613 242.677 C 201.224 243.107,209.805 241.988,212.400 241.269 L 213.800 240.882 212.400 240.866 C 211.630 240.858,210.640 240.993,210.200 241.167 M189.300 243.098 C 191.225 243.171,194.375 243.171,196.300 243.098 C 198.225 243.025,196.650 242.965,192.800 242.965 C 188.950 242.965,187.375 243.025,189.300 243.098 M239.877 243.696 C 239.040 244.131,238.437 244.571,238.538 244.672 C 238.743 244.876,242.000 243.296,242.000 242.992 C 242.000 242.686,241.505 242.850,239.877 243.696 M235.700 245.612 C 234.765 246.027,234.000 246.458,234.000 246.569 C 234.000 246.770,237.623 245.311,237.958 244.975 C 238.327 244.606,237.332 244.887,235.700 245.612 M231.600 247.433 C 231.044 247.742,230.867 247.985,231.200 247.980 C 231.530 247.975,232.250 247.714,232.800 247.400 C 233.350 247.086,233.530 246.840,233.200 246.853 C 232.870 246.867,232.150 247.128,231.600 247.433 M226.000 249.271 C 225.450 249.500,224.572 249.855,224.048 250.059 C 223.525 250.263,223.198 250.531,223.322 250.655 C 223.445 250.779,223.784 250.727,224.073 250.540 C 224.363 250.353,225.500 249.904,226.600 249.541 C 227.700 249.179,228.240 248.876,227.800 248.868 C 227.360 248.860,226.550 249.042,226.000 249.271 M150.307 251.173 C 146.339 253.690,146.248 259.346,150.129 262.177 C 153.051 264.307,160.000 262.180,160.000 259.155 C 160.000 258.894,159.472 259.409,158.826 260.300 C 155.311 265.152,147.908 262.501,147.908 256.391 C 147.908 253.541,149.467 251.578,152.600 250.483 C 153.506 250.166,153.599 250.055,152.978 250.032 C 152.526 250.014,151.324 250.528,150.307 251.173 M158.108 252.364 C 159.592 253.749,159.816 254.196,160.061 256.264 L 160.337 258.600 160.243 256.096 C 160.147 253.550,158.430 250.800,156.937 250.800 C 156.659 250.800,157.186 251.504,158.108 252.364 M219.400 251.411 C 218.520 251.701,218.160 251.939,218.600 251.939 C 219.040 251.939,220.120 251.701,221.000 251.411 C 221.880 251.121,222.240 250.884,221.800 250.884 C 221.360 250.884,220.280 251.121,219.400 251.411 M214.600 252.400 L 213.800 252.744 214.600 252.732 C 215.040 252.726,215.850 252.576,216.400 252.400 L 217.400 252.080 216.400 252.068 C 215.850 252.062,215.040 252.211,214.600 252.400 M209.600 253.461 L 208.200 254.026 209.600 253.768 C 210.370 253.626,211.630 253.371,212.400 253.201 L 213.800 252.892 212.400 252.894 C 211.630 252.895,210.370 253.150,209.600 253.461 M202.400 254.400 C 200.996 254.850,202.463 254.865,204.600 254.423 L 206.200 254.092 204.800 254.086 C 204.030 254.083,202.950 254.224,202.400 254.400 M189.625 255.428 C 186.931 256.597,185.225 259.482,185.711 262.048 C 185.833 262.692,185.909 262.509,185.946 261.480 C 186.094 257.350,188.311 255.740,194.600 255.199 L 197.800 254.924 194.400 254.878 C 192.174 254.847,190.525 255.037,189.625 255.428 M235.800 259.960 C 233.160 260.999,229.110 262.353,226.800 262.969 C 222.550 264.101,221.797 264.313,218.200 265.388 C 214.058 266.627,219.548 265.472,225.423 263.870 C 231.626 262.177,242.987 257.931,241.000 258.048 C 240.780 258.061,238.440 258.921,235.800 259.960 M186.032 263.822 C 185.930 266.473,190.200 268.424,195.887 268.325 L 200.200 268.250 195.600 268.022 C 189.581 267.723,187.459 266.716,186.289 263.600 C 186.129 263.175,186.054 263.240,186.032 263.822 M210.400 266.600 C 208.157 266.971,207.804 267.103,209.000 267.124 C 209.880 267.138,211.770 266.909,213.200 266.615 C 216.455 265.943,214.432 265.933,210.400 266.600 M202.000 267.600 L 200.200 267.880 202.200 267.893 C 203.300 267.900,204.740 267.768,205.400 267.600 L 206.600 267.295 205.200 267.307 C 204.430 267.314,202.990 267.446,202.000 267.600 M168.821 275.775 C 168.500 276.162,168.221 278.392,168.058 281.892 L 167.800 287.400 154.600 287.523 L 141.400 287.646 139.270 289.047 C 135.648 291.429,135.619 291.569,135.609 306.740 C 135.595 326.785,134.652 325.985,158.292 325.994 L 173.985 326.000 174.203 325.100 C 174.323 324.605,174.371 313.220,174.310 299.800 L 174.200 275.400 171.763 275.283 C 169.959 275.196,169.196 275.323,168.821 275.775 M173.800 300.600 L 173.800 325.000 160.000 325.121 C 142.413 325.276,140.887 325.153,139.069 323.439 C 136.179 320.713,136.200 320.837,136.200 306.800 C 136.200 292.987,136.258 292.599,138.672 290.349 C 140.979 288.199,140.875 288.214,155.400 288.000 L 169.000 287.800 169.105 282.400 C 169.235 275.634,169.114 275.930,171.696 276.079 L 173.800 276.200 173.800 300.600 M286.000 278.753 L 284.600 279.000 284.497 301.720 C 284.427 316.986,284.531 324.697,284.812 325.223 C 285.222 325.989,285.754 326.004,308.516 325.903 L 331.800 325.800 331.918 323.097 C 332.080 319.394,333.352 319.600,310.374 319.600 L 290.800 319.600 290.800 299.480 C 290.800 276.129,291.195 277.835,286.000 278.753 M79.199 279.083 C 79.075 330.681,78.752 326.000,82.435 326.000 C 85.815 326.000,85.621 327.535,85.503 301.720 L 85.400 279.000 82.300 278.883 C 80.595 278.819,79.200 278.909,79.199 279.083 M224.667 279.067 C 224.209 279.524,224.352 324.364,224.814 325.226 C 225.300 326.134,229.483 326.357,230.320 325.520 C 230.680 325.160,230.800 320.295,230.800 306.087 C 230.800 291.102,230.905 287.168,231.300 287.300 C 231.575 287.391,232.772 288.621,233.959 290.033 C 235.147 291.445,236.883 293.500,237.817 294.600 C 238.751 295.700,240.566 297.860,241.850 299.400 C 243.134 300.940,244.404 302.429,244.673 302.710 C 244.943 302.990,245.845 304.070,246.679 305.110 C 247.514 306.149,248.951 307.805,249.874 308.790 L 251.553 310.580 253.276 308.787 C 254.725 307.281,256.653 305.025,259.079 302.000 C 260.571 300.140,264.555 295.370,264.760 295.200 C 264.892 295.090,265.810 294.010,266.799 292.800 C 268.607 290.589,269.271 289.794,270.755 288.063 C 272.338 286.216,272.400 286.901,272.400 306.344 C 272.400 327.381,272.170 326.000,275.672 326.000 C 278.674 326.000,278.441 328.158,278.311 301.600 L 278.200 279.000 274.134 278.886 L 270.068 278.773 268.261 281.086 C 267.268 282.359,265.971 283.940,265.379 284.600 C 264.287 285.819,260.859 289.949,258.506 292.880 C 257.315 294.365,255.098 296.896,252.493 299.746 L 251.445 300.892 249.709 298.946 C 248.755 297.876,247.575 296.479,247.087 295.842 C 246.599 295.206,245.480 293.861,244.600 292.853 C 243.720 291.846,242.870 290.837,242.710 290.611 C 242.434 290.218,237.433 284.285,236.600 283.361 C 236.380 283.117,235.480 281.998,234.600 280.875 L 233.000 278.832 228.967 278.816 C 226.748 278.807,224.813 278.920,224.667 279.067 M84.703 302.081 L 84.807 324.763 83.456 325.016 C 82.713 325.155,81.676 325.209,81.152 325.135 L 80.200 325.000 80.097 302.080 L 79.993 279.160 82.297 279.280 L 84.600 279.400 84.703 302.081 M232.240 279.506 C 232.601 279.747,234.650 282.145,238.131 286.400 C 238.401 286.730,239.792 288.350,241.222 290.000 C 242.652 291.650,245.403 294.931,247.336 297.292 C 249.269 299.653,250.997 301.674,251.175 301.785 C 251.571 302.029,252.823 300.856,255.200 298.010 C 256.190 296.824,257.720 295.023,258.600 294.007 C 259.480 292.991,260.801 291.413,261.536 290.499 C 262.271 289.586,263.236 288.425,263.681 287.919 C 264.126 287.414,265.144 286.190,265.945 285.201 C 266.745 284.211,267.580 283.205,267.800 282.966 C 268.020 282.727,268.808 281.782,269.552 280.866 L 270.904 279.200 274.455 279.200 L 278.007 279.200 277.903 302.100 L 277.800 325.000 276.445 325.129 C 275.699 325.201,274.664 325.152,274.145 325.022 L 273.200 324.785 273.200 305.216 C 273.200 294.453,273.051 285.555,272.869 285.442 C 272.463 285.192,270.694 286.807,268.745 289.208 C 267.944 290.193,266.926 291.414,266.481 291.919 C 266.036 292.425,265.071 293.580,264.336 294.485 C 263.601 295.391,262.816 296.327,262.591 296.566 C 262.366 296.805,260.449 299.070,258.331 301.600 C 250.948 310.421,251.612 310.020,249.268 307.074 C 248.535 306.153,247.244 304.590,246.399 303.600 C 245.555 302.610,243.634 300.360,242.131 298.600 C 240.628 296.840,238.715 294.549,237.880 293.510 C 237.046 292.470,236.145 291.390,235.880 291.110 C 235.614 290.829,234.590 289.610,233.604 288.400 C 231.914 286.326,231.232 285.684,230.508 285.485 C 230.339 285.438,230.110 294.310,230.000 305.200 L 229.800 325.000 228.848 325.135 C 228.324 325.209,227.289 325.156,226.548 325.017 L 225.200 324.764 225.200 301.982 L 225.200 279.200 228.500 279.206 C 230.315 279.209,231.998 279.344,232.240 279.506 M290.000 299.800 L 290.200 320.200 310.600 320.400 L 331.000 320.600 331.000 322.800 L 331.000 325.000 308.200 325.000 L 285.400 325.000 285.297 302.080 L 285.193 279.160 287.497 279.280 L 289.800 279.400 290.000 299.800 M107.088 287.505 L 92.776 287.610 92.376 288.664 C 91.640 290.599,91.932 324.460,92.691 325.300 C 93.633 326.342,97.813 326.296,98.380 325.238 C 98.637 324.758,98.773 319.320,98.749 310.538 C 98.703 294.077,98.646 295.412,99.429 294.629 C 100.102 293.955,123.263 293.654,124.240 294.306 C 125.488 295.139,125.600 296.479,125.600 310.541 C 125.600 327.151,125.389 326.000,128.429 326.000 C 131.816 326.000,131.670 326.817,131.525 308.679 L 131.400 293.000 130.207 291.343 C 127.356 287.384,127.191 287.356,107.088 287.505 M196.400 287.600 C 183.445 287.820,183.515 287.807,181.187 290.414 C 179.106 292.746,179.000 293.549,179.000 307.000 C 179.000 320.520,178.955 320.221,181.436 323.170 C 183.771 325.944,184.107 326.000,198.535 326.000 C 218.700 326.000,218.400 326.294,218.400 306.573 C 218.400 286.716,218.981 287.217,196.400 287.600 M127.282 289.555 C 130.797 292.085,130.800 292.104,130.800 309.549 L 130.800 324.707 129.900 324.948 C 125.839 326.036,126.000 326.686,126.000 309.229 C 126.000 294.788,125.985 294.510,125.158 293.762 C 123.862 292.589,100.142 292.586,98.847 293.758 C 98.029 294.498,98.007 294.864,97.905 309.758 L 97.800 325.000 96.445 325.129 C 95.699 325.201,94.664 325.152,94.145 325.022 L 93.200 324.785 93.200 306.659 C 93.200 296.690,93.328 288.406,93.484 288.250 C 93.640 288.094,100.885 288.019,109.584 288.083 L 125.400 288.200 127.282 289.555 M213.206 288.950 C 214.193 289.472,215.540 290.657,216.200 291.583 L 217.400 293.267 217.505 306.334 C 217.594 317.356,217.517 319.556,217.011 320.400 C 216.682 320.950,216.309 321.670,216.182 322.000 C 216.056 322.330,215.198 323.140,214.276 323.800 L 212.600 325.000 198.800 325.000 L 185.000 325.000 183.664 324.047 C 182.930 323.524,181.805 322.372,181.164 321.487 L 180.000 319.880 180.000 306.687 C 180.000 291.737,179.954 291.971,183.338 289.643 C 185.649 288.052,185.202 288.098,199.006 288.046 C 211.337 288.000,211.423 288.006,213.206 288.950 M142.808 293.302 C 140.926 294.276,140.812 295.043,140.806 306.738 C 140.798 321.914,139.205 320.501,156.123 320.322 L 167.647 320.200 168.414 319.200 C 169.647 317.595,169.583 295.493,168.342 294.000 L 167.511 293.000 155.655 292.894 C 146.611 292.813,143.565 292.910,142.808 293.302 M186.526 293.203 C 184.907 293.855,184.800 294.683,184.800 306.555 C 184.800 318.517,184.956 319.733,186.549 320.161 C 187.017 320.286,192.673 320.392,199.118 320.395 L 210.836 320.400 211.818 319.418 L 212.800 318.436 212.800 307.037 C 212.800 294.965,212.675 294.036,210.937 293.244 C 209.756 292.706,187.851 292.669,186.526 293.203 M167.651 294.663 C 168.227 295.358,168.389 316.394,167.836 318.600 L 167.585 319.600 155.241 319.600 C 144.247 319.600,142.838 319.528,142.349 318.938 C 141.515 317.933,141.580 294.911,142.418 294.380 C 143.576 293.648,167.028 293.910,167.651 294.663 M211.371 294.629 C 212.309 295.566,212.315 317.373,211.377 318.711 C 210.757 319.596,210.705 319.600,198.664 319.600 L 186.572 319.600 185.886 318.438 C 185.285 317.420,185.200 315.980,185.200 306.812 C 185.200 296.522,185.353 295.112,186.560 294.306 C 187.537 293.654,210.698 293.955,211.371 294.629 " stroke="none" fill="#e1acaa" fill-rule="evenodd"></path></g></svg>