<svg version="1.1" id="Layer_1" xmlns="http://www.w3.org/2000/svg" xmlns:xlink="http://www.w3.org/1999/xlink" x="0px" y="0px"
	 width="100%" viewBox="0 0 1024 1024" enable-background="new 0 0 1024 1024" xml:space="preserve">
<path fill="#FFFFFF" opacity="1.000000" stroke="none" 
	d="
M645.000000,1025.000000 
	C430.000000,1025.000000 215.500000,1025.000000 1.000000,1025.000000 
	C1.000000,683.666687 1.000000,342.333344 1.000000,1.000000 
	C342.333344,1.000000 683.666687,1.000000 1025.000000,1.000000 
	C1025.000000,342.333344 1025.000000,683.666687 1025.000000,1025.000000 
	C898.500000,1025.000000 772.000000,1025.000000 645.000000,1025.000000 
M356.158325,296.500000 
	C356.158325,388.641693 356.151672,480.783356 356.163391,572.925049 
	C356.166016,593.611450 369.548523,607.251404 390.028870,607.261658 
	C472.173309,607.302734 554.317749,607.305481 636.462158,607.259644 
	C656.887756,607.248230 670.256165,593.910767 670.261841,573.500916 
	C670.299927,436.537964 670.300537,299.575043 670.261230,162.612091 
	C670.255432,142.301071 656.680664,129.000824 636.286438,129.000412 
	C554.475220,128.998703 472.662231,129.293594 390.854095,128.792877 
	C370.419342,128.667816 355.941711,144.125000 356.068115,163.536285 
	C356.354523,207.522522 356.158386,251.511902 356.158325,296.500000 
M687.079224,817.500000 
	C687.079224,790.363892 687.079224,763.227783 687.079224,735.966431 
	C682.136841,735.966431 677.563538,735.966431 672.337280,735.966431 
	C672.337280,740.587158 672.337280,744.912048 672.337280,750.312134 
	C670.946655,748.818298 670.402100,748.264160 669.891541,747.680420 
	C653.332092,728.748291 626.742737,726.617920 607.370117,742.674316 
	C584.843323,761.345093 581.538452,802.703247 600.217529,826.842041 
	C615.930908,847.148254 650.106201,853.721375 670.033325,829.280579 
	C670.527771,828.674072 670.537842,827.672668 670.773865,826.855469 
	C671.355957,827.245117 671.938049,827.634827 672.520142,828.024475 
	C672.520142,833.569153 672.520142,839.113770 672.520142,844.711487 
	C677.658081,844.711487 682.230286,844.711487 687.079224,844.711487 
	C687.079224,835.778870 687.079224,827.139404 687.079224,817.500000 
M433.072418,782.296753 
	C431.452393,775.545654 430.715027,768.420715 428.044220,762.114624 
	C420.501617,744.305725 406.943695,733.646973 387.362213,732.225342 
	C367.642212,730.793518 351.958191,738.789307 342.500549,756.089844 
	C330.640106,777.785706 330.781982,800.322266 343.220398,821.782227 
	C361.216431,852.830688 405.576324,852.959534 424.414978,822.438904 
	C431.861603,810.374512 434.053192,797.121155 433.072418,782.296753 
M767.936951,748.118652 
	C775.060913,751.215149 779.250610,756.835999 780.866760,764.198730 
	C781.857239,768.711365 782.348816,773.417053 782.384338,778.041321 
	C782.541443,798.533447 782.452393,819.027405 782.452393,839.520752 
	C782.452393,841.274841 782.452393,843.028931 782.452393,844.639465 
	C787.751465,844.639465 792.318848,844.639465 796.966187,844.639465 
	C796.966187,818.619629 797.202148,792.964722 796.877747,767.316895 
	C796.683289,751.939453 786.801514,739.233093 772.288086,734.254578 
	C756.754456,728.926086 740.805725,732.913025 730.909180,744.677124 
	C729.249390,746.650024 727.848572,748.840637 726.328064,750.930664 
	C725.994812,750.871521 725.661499,750.812378 725.328247,750.753235 
	C725.328247,745.778076 725.328247,740.802856 725.328247,735.883667 
	C720.123840,735.883667 715.661743,735.883667 711.162964,735.883667 
	C711.162964,772.324463 711.162964,808.539856 711.162964,844.857483 
	C715.965820,844.857483 720.429016,844.857483 725.340759,844.857483 
	C725.340759,842.239197 725.319397,839.766663 725.344116,837.294556 
	C725.540466,817.644409 724.938904,797.944519 726.150391,778.356812 
	C727.696167,753.365051 745.010803,741.087769 767.936951,748.118652 
M265.842377,844.878601 
	C283.804077,846.033936 298.277374,840.211304 307.149872,823.755737 
	C312.008362,814.744934 313.203644,804.861694 313.192871,794.750549 
	C313.153015,757.428589 313.177063,720.106567 313.177094,682.784607 
	C313.177094,681.164307 313.177094,679.543945 313.177094,677.791687 
	C307.586517,677.791687 302.511444,677.791687 297.149841,677.791687 
	C297.149841,679.949768 297.149811,681.767883 297.149811,683.586060 
	C297.149811,715.576355 297.160461,747.566650 297.141632,779.556946 
	C297.137421,786.720337 297.309021,793.899231 296.912415,801.043945 
	C296.057770,816.439697 287.790741,826.758484 275.087738,828.814209 
	C260.682465,831.145508 247.681976,823.706726 241.889481,809.837524 
	C241.405273,808.678162 240.808304,807.565918 240.139496,806.173096 
	C235.601379,808.458618 231.365234,810.592102 226.965591,812.807922 
	C234.304932,830.333008 245.752975,842.163025 265.842377,844.878601 
M455.359253,744.048950 
	C454.446594,741.279175 453.533936,738.509399 452.725220,736.055054 
	C447.402313,736.055054 442.780365,736.055054 437.823975,736.055054 
	C438.341827,737.932129 438.710144,739.529053 439.220703,741.079163 
	C449.147186,771.216187 459.085815,801.349243 469.031952,831.479797 
	C473.681061,845.563599 473.690704,845.562256 488.585419,844.921692 
	C488.901825,844.908203 489.210571,844.717102 489.713440,844.542786 
	C501.645264,808.572021 513.614502,772.488525 525.776855,735.822693 
	C522.114624,735.822693 519.094177,736.165588 516.185608,735.741272 
	C511.968262,735.126038 510.506042,737.060425 509.336151,740.788452 
	C503.616425,759.015381 497.621857,777.156189 491.701233,795.319885 
	C488.662903,804.641235 485.576019,813.946777 482.511078,823.259460 
	C482.179504,823.237000 481.847931,823.214539 481.516388,823.192078 
	C472.903870,797.055237 464.291351,770.918335 455.359253,744.048950 
M548.139648,816.500000 
	C548.139648,825.916931 548.139648,835.333923 548.139648,844.703064 
	C553.372253,844.703064 557.945007,844.703064 562.606750,844.703064 
	C562.606750,808.367737 562.606750,772.346008 562.606750,736.068970 
	C557.792480,736.068970 553.226807,736.068970 548.139709,736.068970 
	C548.139709,762.694397 548.139709,789.097168 548.139648,816.500000 
M550.009033,692.114563 
	C541.206177,696.748169 542.403809,710.492065 550.835205,714.153320 
	C555.550171,716.200745 560.468567,715.065613 563.946960,711.111267 
	C567.682800,706.864258 568.042236,700.677795 564.834045,695.842041 
	C561.796143,691.262939 557.132080,689.929443 550.009033,692.114563 
z"/>
<path fill="#0D61FF" opacity="1.000000" stroke="none" 
	d="
M356.158386,296.000000 
	C356.158386,251.511902 356.354523,207.522522 356.068115,163.536285 
	C355.941711,144.125000 370.419342,128.667816 390.854095,128.792877 
	C472.662231,129.293594 554.475220,128.998703 636.286438,129.000412 
	C656.680664,129.000824 670.255432,142.301071 670.261230,162.612091 
	C670.300537,299.575043 670.299927,436.537964 670.261841,573.500916 
	C670.256165,593.910767 656.887756,607.248230 636.462158,607.259644 
	C554.317749,607.305481 472.173309,607.302734 390.028870,607.261658 
	C369.548523,607.251404 356.166016,593.611450 356.163391,572.925049 
	C356.151672,480.783356 356.158325,388.641693 356.158386,296.000000 
M596.510803,289.808990 
	C596.870605,288.703552 597.288635,287.613312 597.581421,286.490417 
	C602.149475,268.969086 590.390381,250.612549 573.557922,248.967545 
	C558.430054,247.489090 545.088623,257.283325 542.092651,272.067047 
	C538.969177,287.479340 547.206604,302.323975 561.532837,307.100555 
	C575.446289,311.739563 589.543701,304.993408 596.510803,289.808990 
M431.254517,443.934387 
	C430.672760,445.310883 429.976013,446.651001 429.527313,448.069580 
	C425.811676,459.816498 427.730621,470.553314 436.192780,479.569458 
	C443.627991,487.491364 453.071472,489.986420 463.564697,487.231384 
	C476.137939,483.930206 484.856323,471.990723 484.931091,458.593079 
	C485.005646,445.231384 476.273132,433.170410 463.935883,429.595398 
	C451.463684,425.981262 439.383850,431.108521 431.254517,443.934387 
M569.632996,488.161011 
	C584.730408,487.978394 596.476807,478.328552 598.877380,464.136414 
	C601.400574,449.218994 593.361389,434.496857 579.940735,430.089264 
	C569.044678,426.510803 559.098389,428.680969 551.081848,436.926849 
	C542.341614,445.917084 539.848206,456.802917 544.070068,468.652802 
	C548.148621,480.100494 556.351990,486.903625 569.632996,488.161011 
z"/>
<path fill="#434343" opacity="1.000000" stroke="none" 
	d="
M687.079224,818.000000 
	C687.079224,827.139404 687.079224,835.778870 687.079224,844.711487 
	C682.230286,844.711487 677.658081,844.711487 672.520142,844.711487 
	C672.520142,839.113770 672.520142,833.569153 672.520142,828.024475 
	C671.938049,827.634827 671.355957,827.245117 670.773865,826.855469 
	C670.537842,827.672668 670.527771,828.674072 670.033325,829.280579 
	C650.106201,853.721375 615.930908,847.148254 600.217529,826.842041 
	C581.538452,802.703247 584.843323,761.345093 607.370117,742.674316 
	C626.742737,726.617920 653.332092,728.748291 669.891541,747.680420 
	C670.402100,748.264160 670.946655,748.818298 672.337280,750.312134 
	C672.337280,744.912048 672.337280,740.587158 672.337280,735.966431 
	C677.563538,735.966431 682.136841,735.966431 687.079224,735.966431 
	C687.079224,763.227783 687.079224,790.363892 687.079224,818.000000 
M623.118530,749.424744 
	C618.754700,753.414429 613.248047,756.691589 610.235352,761.523682 
	C600.034851,777.884521 600.057861,795.270996 608.308167,812.415833 
	C613.935303,824.109497 623.645325,830.667908 636.843201,830.933472 
	C650.455505,831.207336 660.678833,824.834106 666.785217,812.930542 
	C675.049072,796.821289 675.066284,780.205017 666.787109,764.053101 
	C658.487427,747.860962 640.612793,741.877808 623.118530,749.424744 
z"/>
<path fill="#434343" opacity="1.000000" stroke="none" 
	d="
M433.092163,782.741333 
	C434.053192,797.121155 431.861603,810.374512 424.414978,822.438904 
	C405.576324,852.959534 361.216431,852.830688 343.220398,821.782227 
	C330.781982,800.322266 330.640106,777.785706 342.500549,756.089844 
	C351.958191,738.789307 367.642212,730.793518 387.362213,732.225342 
	C406.943695,733.646973 420.501617,744.305725 428.044220,762.114624 
	C430.715027,768.420715 431.452393,775.545654 433.092163,782.741333 
M413.900391,765.763184 
	C402.218475,743.266968 375.720917,739.123962 359.288971,757.224548 
	C345.249420,772.689758 345.413300,804.581665 359.612091,820.106995 
	C373.782074,835.600952 397.675446,834.765076 409.880096,817.670349 
	C421.271149,801.715210 421.488129,784.273987 413.900391,765.763184 
z"/>
<path fill="#434343" opacity="1.000000" stroke="none" 
	d="
M767.556152,748.012634 
	C745.010803,741.087769 727.696167,753.365051 726.150391,778.356812 
	C724.938904,797.944519 725.540466,817.644409 725.344116,837.294556 
	C725.319397,839.766663 725.340759,842.239197 725.340759,844.857483 
	C720.429016,844.857483 715.965820,844.857483 711.162964,844.857483 
	C711.162964,808.539856 711.162964,772.324463 711.162964,735.883667 
	C715.661743,735.883667 720.123840,735.883667 725.328247,735.883667 
	C725.328247,740.802856 725.328247,745.778076 725.328247,750.753235 
	C725.661499,750.812378 725.994812,750.871521 726.328064,750.930664 
	C727.848572,748.840637 729.249390,746.650024 730.909180,744.677124 
	C740.805725,732.913025 756.754456,728.926086 772.288086,734.254578 
	C786.801514,739.233093 796.683289,751.939453 796.877747,767.316895 
	C797.202148,792.964722 796.966187,818.619629 796.966187,844.639465 
	C792.318848,844.639465 787.751465,844.639465 782.452393,844.639465 
	C782.452393,843.028931 782.452393,841.274841 782.452393,839.520752 
	C782.452393,819.027405 782.541443,798.533447 782.384338,778.041321 
	C782.348816,773.417053 781.857239,768.711365 780.866760,764.198730 
	C779.250610,756.835999 775.060913,751.215149 767.556152,748.012634 
z"/>
<path fill="#434343" opacity="1.000000" stroke="none" 
	d="
M265.389709,844.841675 
	C245.752975,842.163025 234.304932,830.333008 226.965591,812.807922 
	C231.365234,810.592102 235.601379,808.458618 240.139496,806.173096 
	C240.808304,807.565918 241.405273,808.678162 241.889481,809.837524 
	C247.681976,823.706726 260.682465,831.145508 275.087738,828.814209 
	C287.790741,826.758484 296.057770,816.439697 296.912415,801.043945 
	C297.309021,793.899231 297.137421,786.720337 297.141632,779.556946 
	C297.160461,747.566650 297.149811,715.576355 297.149811,683.586060 
	C297.149811,681.767883 297.149841,679.949768 297.149841,677.791687 
	C302.511444,677.791687 307.586517,677.791687 313.177094,677.791687 
	C313.177094,679.543945 313.177094,681.164307 313.177094,682.784607 
	C313.177063,720.106567 313.153015,757.428589 313.192871,794.750549 
	C313.203644,804.861694 312.008362,814.744934 307.149872,823.755737 
	C298.277374,840.211304 283.804077,846.033936 265.389709,844.841675 
z"/>
<path fill="#434343" opacity="1.000000" stroke="none" 
	d="
M455.519043,744.415161 
	C464.291351,770.918335 472.903870,797.055237 481.516388,823.192078 
	C481.847931,823.214539 482.179504,823.237000 482.511078,823.259460 
	C485.576019,813.946777 488.662903,804.641235 491.701233,795.319885 
	C497.621857,777.156189 503.616425,759.015381 509.336151,740.788452 
	C510.506042,737.060425 511.968262,735.126038 516.185608,735.741272 
	C519.094177,736.165588 522.114624,735.822693 525.776855,735.822693 
	C513.614502,772.488525 501.645264,808.572021 489.713440,844.542786 
	C489.210571,844.717102 488.901825,844.908203 488.585419,844.921692 
	C473.690704,845.562256 473.681061,845.563599 469.031952,831.479797 
	C459.085815,801.349243 449.147186,771.216187 439.220703,741.079163 
	C438.710144,739.529053 438.341827,737.932129 437.823975,736.055054 
	C442.780365,736.055054 447.402313,736.055054 452.725220,736.055054 
	C453.533936,738.509399 454.446594,741.279175 455.519043,744.415161 
z"/>
<path fill="#464646" opacity="1.000000" stroke="none" 
	d="
M548.139648,816.000000 
	C548.139709,789.097168 548.139709,762.694397 548.139709,736.068970 
	C553.226807,736.068970 557.792480,736.068970 562.606750,736.068970 
	C562.606750,772.346008 562.606750,808.367737 562.606750,844.703064 
	C557.945007,844.703064 553.372253,844.703064 548.139648,844.703064 
	C548.139648,835.333923 548.139648,825.916931 548.139648,816.000000 
z"/>
<path fill="#434343" opacity="1.000000" stroke="none" 
	d="
M550.378540,691.964661 
	C557.132080,689.929443 561.796143,691.262939 564.834045,695.842041 
	C568.042236,700.677795 567.682800,706.864258 563.946960,711.111267 
	C560.468567,715.065613 555.550171,716.200745 550.835205,714.153320 
	C542.403809,710.492065 541.206177,696.748169 550.378540,691.964661 
z"/>
<path fill="#FDFEFF" opacity="1.000000" stroke="none" 
	d="
M596.349243,290.162964 
	C589.543701,304.993408 575.446289,311.739563 561.532837,307.100555 
	C547.206604,302.323975 538.969177,287.479340 542.092651,272.067047 
	C545.088623,257.283325 558.430054,247.489090 573.557922,248.967545 
	C590.390381,250.612549 602.149475,268.969086 597.581421,286.490417 
	C597.288635,287.613312 596.870605,288.703552 596.349243,290.162964 
z"/>
<path fill="#FDFEFF" opacity="1.000000" stroke="none" 
	d="
M431.451202,443.617188 
	C439.383850,431.108521 451.463684,425.981262 463.935883,429.595398 
	C476.273132,433.170410 485.005646,445.231384 484.931091,458.593079 
	C484.856323,471.990723 476.137939,483.930206 463.564697,487.231384 
	C453.071472,489.986420 443.627991,487.491364 436.192780,479.569458 
	C427.730621,470.553314 425.811676,459.816498 429.527313,448.069580 
	C429.976013,446.651001 430.672760,445.310883 431.451202,443.617188 
z"/>
<path fill="#FDFEFF" opacity="1.000000" stroke="none" 
	d="
M569.178467,488.155151 
	C556.351990,486.903625 548.148621,480.100494 544.070068,468.652802 
	C539.848206,456.802917 542.341614,445.917084 551.081848,436.926849 
	C559.098389,428.680969 569.044678,426.510803 579.940735,430.089264 
	C593.361389,434.496857 601.400574,449.218994 598.877380,464.136414 
	C596.476807,478.328552 584.730408,487.978394 569.178467,488.155151 
z"/>
<path fill="#FEFEFE" opacity="1.000000" stroke="none" 
	d="
M623.459839,749.254395 
	C640.612793,741.877808 658.487427,747.860962 666.787109,764.053101 
	C675.066284,780.205017 675.049072,796.821289 666.785217,812.930542 
	C660.678833,824.834106 650.455505,831.207336 636.843201,830.933472 
	C623.645325,830.667908 613.935303,824.109497 608.308167,812.415833 
	C600.057861,795.270996 600.034851,777.884521 610.235352,761.523682 
	C613.248047,756.691589 618.754700,753.414429 623.459839,749.254395 
z"/>
<path fill="#FEFEFE" opacity="1.000000" stroke="none" 
	d="
M414.039948,766.116516 
	C421.488129,784.273987 421.271149,801.715210 409.880096,817.670349 
	C397.675446,834.765076 373.782074,835.600952 359.612091,820.106995 
	C345.413300,804.581665 345.249420,772.689758 359.288971,757.224548 
	C375.720917,739.123962 402.218475,743.266968 414.039948,766.116516 
z"/>
</svg>
