<svg version="1.1" id="Layer_1" xmlns="http://www.w3.org/2000/svg" xmlns:xlink="http://www.w3.org/1999/xlink" x="0px" y="0px"
	 width="100%" viewBox="0 0 400 400" enable-background="new 0 0 400 400" xml:space="preserve">
<path fill="#321B0F" opacity="1.000000" stroke="none" 
	d="
M219.000000,401.000000 
	C146.022659,401.000000 73.545303,401.000000 1.033979,401.000000 
	C1.033979,267.730988 1.033979,134.461960 1.033979,1.096468 
	C134.227310,1.096468 267.454712,1.096468 400.841064,1.096468 
	C400.841064,134.333176 400.841064,267.666565 400.841064,401.000000 
	C340.462036,401.000000 279.981018,401.000000 219.000000,401.000000 
M347.586121,186.591492 
	C352.625671,183.760513 357.243927,184.044678 357.670715,187.679260 
	C358.732544,196.722031 361.921906,206.207855 354.928558,214.527405 
	C360.223938,214.527405 365.597870,214.527405 370.971832,214.527405 
	C365.786804,212.207382 365.680237,208.021347 365.877686,203.570190 
	C366.039856,199.915039 365.896515,196.247391 365.959045,192.586487 
	C366.040619,187.814651 365.210510,183.587021 360.047821,181.653534 
	C354.859467,179.710464 349.978424,181.199844 345.360168,186.342468 
	C345.232574,186.449493 345.118530,186.584457 344.973206,186.654984 
	C344.851196,186.714203 344.579407,186.742325 344.566620,186.709442 
	C343.873352,184.923264 343.200500,183.129166 342.695312,181.786896 
	C339.033875,181.786896 335.622223,181.786896 332.210571,181.786896 
	C332.214142,182.078690 332.217712,182.370483 332.221283,182.662277 
	C333.885437,183.033203 335.549622,183.404144 337.418579,183.820724 
	C337.418579,190.071335 337.451935,196.055359 337.408020,202.038818 
	C337.373138,206.792465 338.701813,212.168976 332.229553,214.551697 
	C337.868713,214.551697 343.507904,214.551697 349.406372,214.551697 
	C347.743744,212.769257 345.335175,211.368164 345.368652,210.028076 
	C345.561035,202.330780 346.332397,194.647964 347.586121,186.591492 
M172.771515,215.074432 
	C176.954239,215.074432 181.136948,215.074432 185.113953,215.074432 
	C183.136993,212.782455 180.142593,210.926880 180.078659,208.975296 
	C179.654816,196.036606 179.859283,183.077332 179.859283,170.303436 
	C181.682236,169.843430 183.104065,169.484650 184.525909,169.125870 
	C184.462372,168.817383 184.398834,168.508896 184.335297,168.200409 
	C180.384811,168.200409 176.434326,168.200409 172.172928,168.200409 
	C167.340317,179.842712 162.452698,191.617538 157.133362,204.432449 
	C151.994690,192.678497 147.399963,182.044525 142.657608,171.476776 
	C142.057587,170.139664 140.772980,168.272369 139.651443,168.157684 
	C135.679764,167.751587 131.641220,167.999405 127.628006,167.999405 
	C127.597710,168.431671 127.567406,168.863953 127.537102,169.296219 
	C129.316330,169.610504 131.095566,169.924789 133.168930,170.291031 
	C133.168930,180.853134 133.217865,191.320923 133.147614,201.787903 
	C133.114136,206.775040 134.811874,212.575699 127.796860,214.726166 
	C132.109695,214.726166 136.422531,214.726166 140.568802,214.726166 
	C138.922577,212.943481 136.130768,211.333023 136.069672,209.624908 
	C135.671204,198.484238 135.864838,187.322388 135.864838,176.167480 
	C136.132812,176.104324 136.400803,176.041168 136.668777,175.978012 
	C142.493088,189.104401 148.317383,202.230804 154.141693,215.357193 
	C154.591202,215.281464 155.040710,215.205750 155.490219,215.130020 
	C160.735153,202.646759 165.980072,190.163498 171.224991,177.680237 
	C172.419312,185.813156 172.503067,193.597763 172.389511,201.379517 
	C172.315262,206.466751 174.290924,212.500595 166.990723,215.074432 
	C168.620392,215.074432 170.250061,215.074432 172.771515,215.074432 
M85.757706,215.058914 
	C90.536568,215.058914 95.315430,215.058914 99.791862,215.058914 
	C97.485802,212.794037 94.370125,211.166672 93.925117,208.992661 
	C93.052887,204.731400 93.668762,200.165512 93.668762,195.944656 
	C99.295227,195.191208 104.655006,195.007401 109.704330,193.660080 
	C115.804726,192.032318 118.346535,187.133606 117.938881,179.985474 
	C117.573418,173.577362 114.978546,169.962036 108.554878,168.970276 
	C102.688080,168.064514 96.652588,168.210556 90.687721,167.996979 
	C87.404228,167.879410 84.113060,167.975952 80.825356,167.975952 
	C80.830124,168.436462 80.834900,168.896957 80.839676,169.357468 
	C82.501488,169.628601 84.163300,169.899734 86.105301,170.216599 
	C86.105301,182.912857 86.269081,195.543655 85.912430,208.159760 
	C85.864059,209.870605 83.256744,211.554901 81.731339,213.153229 
	C81.201973,213.707901 80.360764,213.964996 78.415779,215.058914 
	C81.553459,215.058914 83.203339,215.058914 85.757706,215.058914 
M297.115753,186.907639 
	C296.660614,189.610596 297.307892,192.006805 300.458832,191.366745 
	C301.814758,191.091309 303.242950,188.768051 303.732239,187.108063 
	C304.915833,183.092834 307.741058,182.676605 311.121094,182.933044 
	C314.625702,183.198898 315.992767,185.404312 316.118256,188.611511 
	C316.200409,190.710892 316.133759,192.816086 316.133759,194.477081 
	C311.200897,195.742691 306.730896,196.455643 302.603119,198.052994 
	C296.796936,200.299881 294.453369,205.504425 296.371674,210.397079 
	C298.288208,215.285217 304.137054,217.460663 309.856110,215.139816 
	C312.231476,214.175888 314.360992,212.606094 316.605164,211.310196 
	C318.481201,214.906204 321.403473,216.296799 325.298462,215.428116 
	C327.984467,214.829071 330.204315,213.672882 330.102386,210.178696 
	C324.628601,212.194061 323.974335,211.779861 323.850952,206.096375 
	C323.735565,200.778976 324.159332,195.416428 323.587219,190.156281 
	C323.294281,187.462814 322.017090,184.078430 320.009613,182.522537 
	C314.502563,178.254379 301.774170,180.677643 297.115753,186.907639 
M207.813690,216.198624 
	C214.366714,215.243896 218.912766,211.623276 220.827805,205.360092 
	C223.027252,198.166763 222.610199,191.075211 217.278610,185.206192 
	C211.496414,178.841125 198.960266,178.843445 193.450546,185.347809 
	C187.853088,191.955765 187.593414,199.711380 190.758789,207.406876 
	C193.676346,214.499863 199.735107,216.733002 207.813690,216.198624 
M60.697430,195.446289 
	C60.697430,187.015671 60.697430,178.585052 60.697430,170.236023 
	C63.180027,169.877243 65.091949,169.600937 67.003876,169.324615 
	C66.946922,169.029968 66.889961,168.735321 66.833008,168.440674 
	C60.339260,168.440674 53.845509,168.440674 47.351757,168.440674 
	C47.325493,168.741974 47.299229,169.043274 47.272964,169.344589 
	C49.247730,169.656876 51.222496,169.969177 53.380516,170.310455 
	C53.380516,181.196564 53.394962,191.824036 53.364025,202.451385 
	C53.359680,203.943359 53.195324,205.442963 52.997631,206.924713 
	C52.417458,211.273270 50.193584,213.820984 45.533680,214.029007 
	C40.746765,214.242752 40.390755,211.202164 39.951302,207.581619 
	C39.796352,206.305038 37.755661,204.249802 36.730408,204.338333 
	C35.413486,204.452072 33.573895,206.161270 33.152527,207.546127 
	C31.945690,211.512543 34.836155,215.442566 39.469818,215.914215 
	C53.868748,217.379868 61.236679,214.229248 60.700085,198.418915 
	C60.677528,197.754349 60.697334,197.088333 60.697430,195.446289 
M260.938263,232.775223 
	C268.152679,235.728973 275.504761,236.050354 282.787445,233.319641 
	C288.609436,231.136627 291.104675,226.552963 290.213165,220.762634 
	C289.461029,215.877655 286.113068,213.379654 279.673553,212.966507 
	C274.220612,212.616669 268.764465,212.316864 263.436554,212.002396 
	C263.085144,210.302582 262.838470,209.109451 262.591797,207.916306 
	C262.133728,207.743362 261.675659,207.570404 261.217590,207.397461 
	C260.201660,209.206329 258.283142,211.082642 258.411926,212.805969 
	C258.553772,214.704498 260.183502,217.303986 261.868774,218.090836 
	C264.616852,219.373871 267.916595,219.594910 271.019135,219.968048 
	C274.633850,220.402771 278.396057,220.082108 281.878632,220.952255 
	C283.706635,221.408981 286.173706,223.589615 286.350433,225.210083 
	C286.539978,226.948242 284.768860,230.037720 283.167633,230.606293 
	C279.368317,231.955353 275.152863,232.744675 271.125519,232.670944 
	C266.910797,232.593750 262.663300,231.411896 263.306976,225.366684 
	C263.388306,224.602859 261.850922,223.017899 261.002655,222.973434 
	C260.014862,222.921646 258.007507,224.320038 258.092834,224.788559 
	C258.559601,227.351410 259.533051,229.822006 260.938263,232.775223 
M231.661636,197.488800 
	C230.350189,203.323395 235.742477,211.699005 225.379517,214.435577 
	C231.916489,214.435577 238.453461,214.435577 244.321381,214.435577 
	C242.500565,212.488571 239.475616,210.755310 239.176361,208.636993 
	C238.440552,203.428650 238.534744,197.999084 239.080765,192.740082 
	C239.754715,186.249146 244.549377,184.591339 249.740875,188.450150 
	C250.706604,189.167969 252.997772,189.619797 253.525391,189.076263 
	C254.462097,188.111313 255.320755,185.537491 254.788818,184.969376 
	C253.233551,183.308365 250.719269,180.983459 249.046646,181.309402 
	C245.201797,182.058624 241.632828,184.223633 238.046295,185.773239 
	C237.849304,185.069061 237.331253,183.217224 236.970963,181.929321 
	C232.832764,181.929321 229.160461,181.929321 225.488159,181.929321 
	C225.513428,182.243179 225.538696,182.557037 225.563965,182.870880 
	C227.485870,183.056274 229.407791,183.241669 231.661652,183.459076 
	C231.661652,187.891312 231.661652,192.191147 231.661636,197.488800 
M285.524353,184.193039 
	C280.453583,181.429031 275.147186,179.833511 269.301239,180.935928 
	C262.592651,182.201050 258.347626,188.214066 259.139679,195.322006 
	C259.822388,201.448959 265.132233,206.684891 270.704681,206.036713 
	C286.169678,204.237823 288.714813,198.855423 286.814850,187.441101 
	C288.547516,186.907593 290.569092,186.761154 291.899841,185.726318 
	C292.984192,184.883072 293.672638,182.984756 293.698883,181.539032 
	C293.713776,180.720245 291.875488,179.069122 291.164978,179.215530 
	C289.980988,179.459442 288.974976,180.789169 288.004578,181.770935 
	C287.340942,182.442352 286.865051,183.299316 285.524353,184.193039 
M72.184830,209.550461 
	C70.200768,209.976181 68.120026,210.191696 66.320801,211.019272 
	C65.992661,211.170212 66.329857,214.538025 67.221626,215.136215 
	C68.417336,215.938263 71.442490,216.148239 71.915695,215.437042 
	C72.833694,214.057327 72.519699,211.857910 72.184830,209.550461 
M111.395126,209.668198 
	C109.048813,212.563309 109.386780,214.955399 113.079964,216.016800 
	C114.194664,216.337158 116.050095,215.571442 116.947052,214.680130 
	C117.648468,213.983139 117.899338,211.499741 117.472778,211.237473 
	C115.853371,210.241791 113.877266,209.826233 111.395126,209.668198 
z"/>
<path fill="#EFEDEC" opacity="1.000000" stroke="none" 
	d="
M172.325623,215.074432 
	C170.250061,215.074432 168.620392,215.074432 166.990723,215.074432 
	C174.290924,212.500595 172.315262,206.466751 172.389511,201.379517 
	C172.503067,193.597763 172.419312,185.813156 171.224991,177.680237 
	C165.980072,190.163498 160.735153,202.646759 155.490219,215.130020 
	C155.040710,215.205750 154.591202,215.281464 154.141693,215.357193 
	C148.317383,202.230804 142.493088,189.104401 136.668777,175.978012 
	C136.400803,176.041168 136.132812,176.104324 135.864838,176.167480 
	C135.864838,187.322388 135.671204,198.484238 136.069672,209.624908 
	C136.130768,211.333023 138.922577,212.943481 140.568802,214.726166 
	C136.422531,214.726166 132.109695,214.726166 127.796860,214.726166 
	C134.811874,212.575699 133.114136,206.775040 133.147614,201.787903 
	C133.217865,191.320923 133.168930,180.853134 133.168930,170.291031 
	C131.095566,169.924789 129.316330,169.610504 127.537102,169.296219 
	C127.567406,168.863953 127.597710,168.431671 127.628006,167.999405 
	C131.641220,167.999405 135.679764,167.751587 139.651443,168.157684 
	C140.772980,168.272369 142.057587,170.139664 142.657608,171.476776 
	C147.399963,182.044525 151.994690,192.678497 157.133362,204.432449 
	C162.452698,191.617538 167.340317,179.842712 172.172928,168.200409 
	C176.434326,168.200409 180.384811,168.200409 184.335297,168.200409 
	C184.398834,168.508896 184.462372,168.817383 184.525909,169.125870 
	C183.104065,169.484650 181.682236,169.843430 179.859283,170.303436 
	C179.859283,183.077332 179.654816,196.036606 180.078659,208.975296 
	C180.142593,210.926880 183.136993,212.782455 185.113953,215.074432 
	C181.136948,215.074432 176.954239,215.074432 172.325623,215.074432 
z"/>
<path fill="#F5F4F3" opacity="1.000000" stroke="none" 
	d="
M85.305466,215.058914 
	C83.203339,215.058914 81.553459,215.058914 78.415779,215.058914 
	C80.360764,213.964996 81.201973,213.707901 81.731339,213.153229 
	C83.256744,211.554901 85.864059,209.870605 85.912430,208.159760 
	C86.269081,195.543655 86.105301,182.912857 86.105301,170.216599 
	C84.163300,169.899734 82.501488,169.628601 80.839676,169.357468 
	C80.834900,168.896957 80.830124,168.436462 80.825356,167.975952 
	C84.113060,167.975952 87.404228,167.879410 90.687721,167.996979 
	C96.652588,168.210556 102.688080,168.064514 108.554878,168.970276 
	C114.978546,169.962036 117.573418,173.577362 117.938881,179.985474 
	C118.346535,187.133606 115.804726,192.032318 109.704330,193.660080 
	C104.655006,195.007401 99.295227,195.191208 93.668762,195.944656 
	C93.668762,200.165512 93.052887,204.731400 93.925117,208.992661 
	C94.370125,211.166672 97.485802,212.794037 99.791862,215.058914 
	C95.315430,215.058914 90.536568,215.058914 85.305466,215.058914 
M101.001534,170.059402 
	C98.580986,170.059402 96.160446,170.059402 93.639328,170.059402 
	C93.639328,177.991547 93.639328,185.414291 93.639328,192.792435 
	C103.082253,194.456665 109.460495,191.555939 110.854019,185.113770 
	C112.547081,177.286835 109.624290,172.429413 101.001534,170.059402 
z"/>
<path fill="#F3F1F1" opacity="1.000000" stroke="none" 
	d="
M297.255981,186.549713 
	C301.774170,180.677643 314.502563,178.254379 320.009613,182.522537 
	C322.017090,184.078430 323.294281,187.462814 323.587219,190.156281 
	C324.159332,195.416428 323.735565,200.778976 323.850952,206.096375 
	C323.974335,211.779861 324.628601,212.194061 330.102386,210.178696 
	C330.204315,213.672882 327.984467,214.829071 325.298462,215.428116 
	C321.403473,216.296799 318.481201,214.906204 316.605164,211.310196 
	C314.360992,212.606094 312.231476,214.175888 309.856110,215.139816 
	C304.137054,217.460663 298.288208,215.285217 296.371674,210.397079 
	C294.453369,205.504425 296.796936,200.299881 302.603119,198.052994 
	C306.730896,196.455643 311.200897,195.742691 316.133759,194.477081 
	C316.133759,192.816086 316.200409,190.710892 316.118256,188.611511 
	C315.992767,185.404312 314.625702,183.198898 311.121094,182.933044 
	C307.741058,182.676605 304.915833,183.092834 303.732239,187.108063 
	C303.242950,188.768051 301.814758,191.091309 300.458832,191.366745 
	C297.307892,192.006805 296.660614,189.610596 297.255981,186.549713 
M303.052277,205.022110 
	C303.786896,207.239426 303.933167,210.655121 305.402283,211.376358 
	C307.319000,212.317383 310.572327,211.742889 312.743042,210.731384 
	C319.028107,207.802628 315.153870,202.170532 316.381653,197.403641 
	C310.499878,197.927994 305.982361,199.394852 303.052277,205.022110 
z"/>
<path fill="#F4F3F2" opacity="1.000000" stroke="none" 
	d="
M207.416397,216.245575 
	C199.735107,216.733002 193.676346,214.499863 190.758789,207.406876 
	C187.593414,199.711380 187.853088,191.955765 193.450546,185.347809 
	C198.960266,178.843445 211.496414,178.841125 217.278610,185.206192 
	C222.610199,191.075211 223.027252,198.166763 220.827805,205.360092 
	C218.912766,211.623276 214.366714,215.243896 207.416397,216.245575 
M214.053177,192.860138 
	C213.390656,185.284653 211.120300,182.729919 205.161728,182.854950 
	C199.722778,182.969070 197.224457,185.891403 196.956146,193.076004 
	C196.776657,197.882217 196.789612,202.726913 197.195587,207.513748 
	C197.518234,211.317963 199.547562,213.940353 203.880402,214.169815 
	C208.290894,214.403381 212.200485,213.557693 213.003326,208.613312 
	C213.794907,203.738144 213.758133,198.728485 214.053177,192.860138 
z"/>
<path fill="#ECEAE9" opacity="1.000000" stroke="none" 
	d="
M60.697418,195.934647 
	C60.697334,197.088333 60.677528,197.754349 60.700085,198.418915 
	C61.236679,214.229248 53.868748,217.379868 39.469818,215.914215 
	C34.836155,215.442566 31.945690,211.512543 33.152527,207.546127 
	C33.573895,206.161270 35.413486,204.452072 36.730408,204.338333 
	C37.755661,204.249802 39.796352,206.305038 39.951302,207.581619 
	C40.390755,211.202164 40.746765,214.242752 45.533680,214.029007 
	C50.193584,213.820984 52.417458,211.273270 52.997631,206.924713 
	C53.195324,205.442963 53.359680,203.943359 53.364025,202.451385 
	C53.394962,191.824036 53.380516,181.196564 53.380516,170.310455 
	C51.222496,169.969177 49.247730,169.656876 47.272964,169.344589 
	C47.299229,169.043274 47.325493,168.741974 47.351757,168.440674 
	C53.845509,168.440674 60.339260,168.440674 66.833008,168.440674 
	C66.889961,168.735321 66.946922,169.029968 67.003876,169.324615 
	C65.091949,169.600937 63.180027,169.877243 60.697430,170.236023 
	C60.697430,178.585052 60.697430,187.015671 60.697418,195.934647 
z"/>
<path fill="#F6F5F4" opacity="1.000000" stroke="none" 
	d="
M260.635315,232.549759 
	C259.533051,229.822006 258.559601,227.351410 258.092834,224.788559 
	C258.007507,224.320038 260.014862,222.921646 261.002655,222.973434 
	C261.850922,223.017899 263.388306,224.602859 263.306976,225.366684 
	C262.663300,231.411896 266.910797,232.593750 271.125519,232.670944 
	C275.152863,232.744675 279.368317,231.955353 283.167633,230.606293 
	C284.768860,230.037720 286.539978,226.948242 286.350433,225.210083 
	C286.173706,223.589615 283.706635,221.408981 281.878632,220.952255 
	C278.396057,220.082108 274.633850,220.402771 271.019135,219.968048 
	C267.916595,219.594910 264.616852,219.373871 261.868774,218.090836 
	C260.183502,217.303986 258.553772,214.704498 258.411926,212.805969 
	C258.283142,211.082642 260.201660,209.206329 261.217590,207.397461 
	C261.675659,207.570404 262.133728,207.743362 262.591797,207.916306 
	C262.838470,209.109451 263.085144,210.302582 263.436554,212.002396 
	C268.764465,212.316864 274.220612,212.616669 279.673553,212.966507 
	C286.113068,213.379654 289.461029,215.877655 290.213165,220.762634 
	C291.104675,226.552963 288.609436,231.136627 282.787445,233.319641 
	C275.504761,236.050354 268.152679,235.728973 260.635315,232.549759 
z"/>
<path fill="#F6F4F4" opacity="1.000000" stroke="none" 
	d="
M231.661652,196.989883 
	C231.661652,192.191147 231.661652,187.891312 231.661652,183.459076 
	C229.407791,183.241669 227.485870,183.056274 225.563965,182.870880 
	C225.538696,182.557037 225.513428,182.243179 225.488159,181.929321 
	C229.160461,181.929321 232.832764,181.929321 236.970963,181.929321 
	C237.331253,183.217224 237.849304,185.069061 238.046295,185.773239 
	C241.632828,184.223633 245.201797,182.058624 249.046646,181.309402 
	C250.719269,180.983459 253.233551,183.308365 254.788818,184.969376 
	C255.320755,185.537491 254.462097,188.111313 253.525391,189.076263 
	C252.997772,189.619797 250.706604,189.167969 249.740875,188.450150 
	C244.549377,184.591339 239.754715,186.249146 239.080765,192.740082 
	C238.534744,197.999084 238.440552,203.428650 239.176361,208.636993 
	C239.475616,210.755310 242.500565,212.488571 244.321381,214.435577 
	C238.453461,214.435577 231.916489,214.435577 225.379517,214.435577 
	C235.742477,211.699005 230.350189,203.323395 231.661652,196.989883 
z"/>
<path fill="#F4F3F2" opacity="1.000000" stroke="none" 
	d="
M285.914795,184.133179 
	C286.865051,183.299316 287.340942,182.442352 288.004578,181.770935 
	C288.974976,180.789169 289.980988,179.459442 291.164978,179.215530 
	C291.875488,179.069122 293.713776,180.720245 293.698883,181.539032 
	C293.672638,182.984756 292.984192,184.883072 291.899841,185.726318 
	C290.569092,186.761154 288.547516,186.907593 286.814850,187.441101 
	C288.714813,198.855423 286.169678,204.237823 270.704681,206.036713 
	C265.132233,206.684891 259.822388,201.448959 259.139679,195.322006 
	C258.347626,188.214066 262.592651,182.201050 269.301239,180.935928 
	C275.147186,179.833511 280.453583,181.429031 285.914795,184.133179 
M279.978577,189.057983 
	C279.374939,185.162369 277.444672,182.444183 273.209015,182.511169 
	C268.912842,182.579086 267.106384,185.643768 266.645477,189.366623 
	C266.284424,192.283096 266.391846,195.304230 266.673035,198.242325 
	C267.062744,202.313751 269.796417,203.849075 273.627258,203.725250 
	C277.375031,203.604141 279.484863,201.497253 279.880524,197.900269 
	C280.169586,195.272354 280.010132,192.595123 279.978577,189.057983 
z"/>
<path fill="#F8F7F7" opacity="1.000000" stroke="none" 
	d="
M345.994446,185.986862 
	C349.978424,181.199844 354.859467,179.710464 360.047821,181.653534 
	C365.210510,183.587021 366.040619,187.814651 365.959045,192.586487 
	C365.896515,196.247391 366.039856,199.915039 365.877686,203.570190 
	C365.680237,208.021347 365.786804,212.207382 370.971832,214.527405 
	C365.597870,214.527405 360.223938,214.527405 354.928558,214.527405 
	C361.921906,206.207855 358.732544,196.722031 357.670715,187.679260 
	C357.243927,184.044678 352.625671,183.760513 347.060974,186.647797 
	C346.311493,186.498154 346.131042,186.259079 345.994446,185.986862 
z"/>
<path fill="#EFEDEC" opacity="1.000000" stroke="none" 
	d="
M345.677307,186.164673 
	C346.131042,186.259079 346.311493,186.498154 346.721619,186.832169 
	C346.332397,194.647964 345.561035,202.330780 345.368652,210.028076 
	C345.335175,211.368164 347.743744,212.769257 349.406372,214.551697 
	C343.507904,214.551697 337.868713,214.551697 332.229553,214.551697 
	C338.701813,212.168976 337.373138,206.792465 337.408020,202.038818 
	C337.451935,196.055359 337.418579,190.071335 337.418579,183.820724 
	C335.549622,183.404144 333.885437,183.033203 332.221283,182.662277 
	C332.217712,182.370483 332.214142,182.078690 332.210571,181.786896 
	C335.622223,181.786896 339.033875,181.786896 342.695312,181.786896 
	C343.200500,183.129166 343.873352,184.923264 344.566620,186.709442 
	C344.579407,186.742325 344.851196,186.714203 344.973206,186.654984 
	C345.118530,186.584457 345.232574,186.449493 345.677307,186.164673 
z"/>
<path fill="#F3F1F1" opacity="1.000000" stroke="none" 
	d="
M72.450500,209.774292 
	C72.519699,211.857910 72.833694,214.057327 71.915695,215.437042 
	C71.442490,216.148239 68.417336,215.938263 67.221626,215.136215 
	C66.329857,214.538025 65.992661,211.170212 66.320801,211.019272 
	C68.120026,210.191696 70.200768,209.976181 72.450500,209.774292 
z"/>
<path fill="#F8F8F7" opacity="1.000000" stroke="none" 
	d="
M111.714828,209.430984 
	C113.877266,209.826233 115.853371,210.241791 117.472778,211.237473 
	C117.899338,211.499741 117.648468,213.983139 116.947052,214.680130 
	C116.050095,215.571442 114.194664,216.337158 113.079964,216.016800 
	C109.386780,214.955399 109.048813,212.563309 111.714828,209.430984 
z"/>
<path fill="#392318" opacity="1.000000" stroke="none" 
	d="
M101.426300,170.105530 
	C109.624290,172.429413 112.547081,177.286835 110.854019,185.113770 
	C109.460495,191.555939 103.082253,194.456665 93.639328,192.792435 
	C93.639328,185.414291 93.639328,177.991547 93.639328,170.059402 
	C96.160446,170.059402 98.580986,170.059402 101.426300,170.105530 
z"/>
<path fill="#382116" opacity="1.000000" stroke="none" 
	d="
M303.155823,204.637268 
	C305.982361,199.394852 310.499878,197.927994 316.381653,197.403641 
	C315.153870,202.170532 319.028107,207.802628 312.743042,210.731384 
	C310.572327,211.742889 307.319000,212.317383 305.402283,211.376358 
	C303.933167,210.655121 303.786896,207.239426 303.155823,204.637268 
z"/>
<path fill="#351E12" opacity="1.000000" stroke="none" 
	d="
M214.068985,193.318985 
	C213.758133,198.728485 213.794907,203.738144 213.003326,208.613312 
	C212.200485,213.557693 208.290894,214.403381 203.880402,214.169815 
	C199.547562,213.940353 197.518234,211.317963 197.195587,207.513748 
	C196.789612,202.726913 196.776657,197.882217 196.956146,193.076004 
	C197.224457,185.891403 199.722778,182.969070 205.161728,182.854950 
	C211.120300,182.729919 213.390656,185.284653 214.068985,193.318985 
z"/>
<path fill="#382216" opacity="1.000000" stroke="none" 
	d="
M280.014587,189.498932 
	C280.010132,192.595123 280.169586,195.272354 279.880524,197.900269 
	C279.484863,201.497253 277.375031,203.604141 273.627258,203.725250 
	C269.796417,203.849075 267.062744,202.313751 266.673035,198.242325 
	C266.391846,195.304230 266.284424,192.283096 266.645477,189.366623 
	C267.106384,185.643768 268.912842,182.579086 273.209015,182.511169 
	C277.444672,182.444183 279.374939,185.162369 280.014587,189.498932 
z"/>
</svg>