<?xml version="1.0" encoding="UTF-8"?>
<!DOCTYPE svg PUBLIC "-//W3C//DTD SVG 1.1//EN" "http://www.w3.org/Graphics/SVG/1.1/DTD/svg11.dtd">
<svg xmlns="http://www.w3.org/2000/svg" version="1.1" width="525px" height="525px" style="shape-rendering:geometricPrecision; text-rendering:geometricPrecision; image-rendering:optimizeQuality; fill-rule:evenodd; clip-rule:evenodd" xmlns:xlink="http://www.w3.org/1999/xlink">
<g><path style="opacity:1" fill="#fefefe" d="M -0.5,-0.5 C 174.5,-0.5 349.5,-0.5 524.5,-0.5C 524.5,174.5 524.5,349.5 524.5,524.5C 349.5,524.5 174.5,524.5 -0.5,524.5C -0.5,349.5 -0.5,174.5 -0.5,-0.5 Z"/></g>
<g><path style="opacity:1" fill="#f57d53" d="M 346.5,167.5 C 348.772,169.808 349.106,172.475 347.5,175.5C 347.217,176.289 346.717,176.956 346,177.5C 345.667,192.833 345.333,208.167 345,223.5C 342.197,230.312 337.364,232.978 330.5,231.5C 332.47,230.838 334.47,230.172 336.5,229.5C 337.614,228.277 337.781,226.944 337,225.5C 336.667,225.833 336.333,226.167 336,226.5C 334.69,225.103 333.19,224.103 331.5,223.5C 333.722,223.822 335.556,223.155 337,221.5C 337.333,206.167 337.667,190.833 338,175.5C 339.413,171.252 342.246,168.585 346.5,167.5 Z"/></g>
<g><path style="opacity:1" fill="#f57c68" d="M 346.5,167.5 C 352.207,166.014 357.04,167.681 361,172.5C 362.291,189.434 362.958,206.434 363,223.5C 365.056,231.056 369.89,235.723 377.5,237.5C 377.5,240.167 377.5,242.833 377.5,245.5C 365.675,243.176 358.175,236.176 355,224.5C 354.667,208.833 354.333,193.167 354,177.5C 352.211,175.771 350.044,175.104 347.5,175.5C 349.106,172.475 348.772,169.808 346.5,167.5 Z"/></g>
<g><path style="opacity:1" fill="#f05593" d="M 414.5,167.5 C 419.287,168.156 422.454,170.822 424,175.5C 424.333,191.167 424.667,206.833 425,222.5C 426.356,223.38 427.856,223.714 429.5,223.5C 428.887,226.009 428.22,228.509 427.5,231C 428.793,231.49 430.127,231.657 431.5,231.5C 423.879,233.095 418.712,230.095 416,222.5C 415.818,206.759 415.318,191.093 414.5,175.5C 413.391,174.71 412.058,174.21 410.5,174C 410.411,172.284 410.744,170.451 411.5,168.5C 412.325,167.614 413.325,167.281 414.5,167.5 Z"/></g>
<g><path style="opacity:1" fill="#f26c85" d="M 401.5,172.5 C 401.563,192.523 401.397,212.523 401,232.5C 401.333,231.833 401.667,231.167 402,230.5C 402.671,231.252 403.504,231.586 404.5,231.5C 398.461,241.687 389.461,246.354 377.5,245.5C 377.5,242.833 377.5,240.167 377.5,237.5C 389.073,238.094 396.24,232.761 399,221.5C 399.333,205.833 399.667,190.167 400,174.5C 400.278,173.584 400.778,172.918 401.5,172.5 Z"/></g>
<g><path style="opacity:1" fill="#f1658d" d="M 414.5,167.5 C 413.325,167.281 412.325,167.614 411.5,168.5C 410.744,170.451 410.411,172.284 410.5,174C 412.058,174.21 413.391,174.71 414.5,175.5C 412.208,175.244 410.041,175.577 408,176.5C 407.667,192.167 407.333,207.833 407,223.5C 406.439,226.279 405.606,228.946 404.5,231.5C 403.504,231.586 402.671,231.252 402,230.5C 401.667,231.167 401.333,231.833 401,232.5C 401.397,212.523 401.563,192.523 401.5,172.5C 404.57,167.119 408.903,165.452 414.5,167.5 Z"/></g>
<g><path style="opacity:1" fill="#ee2091" d="M 431.5,231.5 C 430.127,231.657 428.793,231.49 427.5,231C 428.22,228.509 428.887,226.009 429.5,223.5C 430.458,223.047 431.292,222.381 432,221.5C 432.333,210.5 432.667,199.5 433,188.5C 436.449,181.526 441.949,179.026 449.5,181C 452.196,181.69 454.363,183.19 456,185.5C 457.225,192.755 457.892,200.089 458,207.5C 460.158,210.95 462.658,211.283 465.5,208.5C 465.923,205.397 466.923,202.564 468.5,200C 470.701,199.175 472.534,199.675 474,201.5C 475.5,214 470,219.5 457.5,218C 453.915,216.084 451.415,213.251 450,209.5C 449.667,203.167 449.333,196.833 449,190.5C 446.667,187.833 444.333,187.833 442,190.5C 441.667,200.833 441.333,211.167 441,221.5C 439.647,226.684 436.481,230.017 431.5,231.5 Z"/></g>
<g><path style="opacity:1" fill="#f4722e" d="M 319.5,180.5 C 321.076,183.496 320.743,186.162 318.5,188.5C 316.234,188.141 314.401,188.808 313,190.5C 312.667,196.5 312.333,202.5 312,208.5C 307.971,218.425 301.138,220.925 291.5,216C 287.591,211.448 286.591,206.282 288.5,200.5C 290.969,198.993 293.135,199.327 295,201.5C 295.011,204.659 295.845,207.493 297.5,210C 299.701,210.825 301.534,210.325 303,208.5C 303.333,202.167 303.667,195.833 304,189.5C 306.679,182.243 311.846,179.243 319.5,180.5 Z"/></g>
<g><path style="opacity:1" fill="#f47538" d="M 319.5,180.5 C 323.801,181.635 326.635,184.302 328,188.5C 328.333,199.5 328.667,210.5 329,221.5C 329.708,222.381 330.542,223.047 331.5,223.5C 333.19,224.103 334.69,225.103 336,226.5C 336.333,226.167 336.667,225.833 337,225.5C 337.781,226.944 337.614,228.277 336.5,229.5C 334.47,230.172 332.47,230.838 330.5,231.5C 325.263,230.765 322.096,227.765 321,222.5C 320.667,211.833 320.333,201.167 320,190.5C 319.283,189.956 318.783,189.289 318.5,188.5C 320.743,186.162 321.076,183.496 319.5,180.5 Z"/></g>
<g><path style="opacity:1" fill="#abadae" d="M 268.5,221.5 C 266.833,221.5 265.167,221.5 263.5,221.5C 263.5,253.833 263.5,286.167 263.5,318.5C 265.167,318.5 266.833,318.5 268.5,318.5C 266.735,319.461 264.735,319.795 262.5,319.5C 262.5,286.5 262.5,253.5 262.5,220.5C 264.735,220.205 266.735,220.539 268.5,221.5 Z"/></g>
<g><path style="opacity:1" fill="#7d7f82" d="M 166.5,241.5 C 172.803,241.924 174.469,244.757 171.5,250C 164.237,250.821 162.571,247.988 166.5,241.5 Z"/></g>
<g><path style="opacity:1" fill="#b6b6b9" d="M 171.5,260.5 C 169.833,260.5 168.167,260.5 166.5,260.5C 166.5,279.833 166.5,299.167 166.5,318.5C 168.167,318.5 169.833,318.5 171.5,318.5C 169.735,319.461 167.735,319.795 165.5,319.5C 165.5,299.5 165.5,279.5 165.5,259.5C 167.735,259.205 169.735,259.539 171.5,260.5 Z"/></g>
<g><path style="opacity:1" fill="#a2a3a5" d="M 406.5,260.5 C 404.833,260.5 403.167,260.5 401.5,260.5C 401.5,279.833 401.5,299.167 401.5,318.5C 403.167,318.5 404.833,318.5 406.5,318.5C 404.735,319.461 402.735,319.795 400.5,319.5C 400.5,299.5 400.5,279.5 400.5,259.5C 402.735,259.205 404.735,259.539 406.5,260.5 Z"/></g>
<g><path style="opacity:1" fill="#dbdcdc" d="M 80.5,260.5 C 81.4971,279.993 81.8304,299.66 81.5,319.5C 79.1667,319.5 76.8333,319.5 74.5,319.5C 74.81,316.287 74.4767,313.287 73.5,310.5C 73.7828,309.711 74.2828,309.044 75,308.5C 75.4983,311.817 75.665,315.15 75.5,318.5C 77.1667,318.5 78.8333,318.5 80.5,318.5C 80.5,299.167 80.5,279.833 80.5,260.5 Z"/></g>
<g><path style="opacity:1" fill="#77797c" d="M 171.5,260.5 C 171.5,279.833 171.5,299.167 171.5,318.5C 169.833,318.5 168.167,318.5 166.5,318.5C 166.5,299.167 166.5,279.833 166.5,260.5C 168.167,260.5 169.833,260.5 171.5,260.5 Z"/></g>
<g><path style="opacity:1" fill="#797b7e" d="M 406.5,318.5 C 404.833,318.5 403.167,318.5 401.5,318.5C 401.5,299.167 401.5,279.833 401.5,260.5C 403.167,260.5 404.833,260.5 406.5,260.5C 406.335,263.518 406.502,266.518 407,269.5C 411.894,260.47 419.394,256.97 429.5,259C 433.085,260.603 433.418,262.769 430.5,265.5C 420.174,261.909 412.674,265.243 408,275.5C 406.551,289.761 406.051,304.094 406.5,318.5 Z"/></g>
<g><path style="opacity:1" fill="#7a7c7f" d="M 196.5,308.5 C 196.217,307.711 195.717,307.044 195,306.5C 194.5,323.83 194.333,341.163 194.5,358.5C 192.833,358.5 191.167,358.5 189.5,358.5C 189.5,325.833 189.5,293.167 189.5,260.5C 191.167,260.5 192.833,260.5 194.5,260.5C 194.334,264.514 194.501,268.514 195,272.5C 203.968,259.206 216.134,255.373 231.5,261C 249.611,272.604 253.778,288.104 244,307.5C 234.886,319.286 223.053,323.119 208.5,319C 203.07,317.066 199.07,313.566 196.5,308.5 Z"/></g>
<g><path style="opacity:1" fill="#fdfdfd" d="M 213.5,263.5 C 234.433,263.266 244.266,273.599 243,294.5C 238.995,310.423 228.829,317.257 212.5,315C 198.492,309.159 192.659,298.659 195,283.5C 197.578,273.425 203.744,266.759 213.5,263.5 Z"/></g>
<g><path style="opacity:1" fill="#7c7d80" d="M 120.5,258.5 C 132.437,256.85 141.271,261.184 147,271.5C 148.454,287.429 148.954,303.429 148.5,319.5C 146.833,319.5 145.167,319.5 143.5,319.5C 143.667,305.163 143.5,290.829 143,276.5C 138.916,265.703 131.083,261.537 119.5,264C 112.402,266.099 107.568,270.599 105,277.5C 104.5,291.496 104.333,305.496 104.5,319.5C 102.5,319.5 100.5,319.5 98.5,319.5C 98.5,299.5 98.5,279.5 98.5,259.5C 100.5,259.5 102.5,259.5 104.5,259.5C 104.335,262.518 104.502,265.518 105,268.5C 109.308,263.665 114.475,260.331 120.5,258.5 Z"/></g>
<g><path style="opacity:1" fill="#787a7d" d="M 268.5,221.5 C 268.333,237.837 268.5,254.17 269,270.5C 276.529,259.733 286.696,256.233 299.5,260C 306.771,262.712 311.104,267.879 312.5,275.5C 312.5,289.833 312.5,304.167 312.5,318.5C 311.167,318.5 309.833,318.5 308.5,318.5C 308.829,305.656 308.495,292.989 307.5,280.5C 305.909,266.762 298.242,261.262 284.5,264C 277.091,266.408 271.924,271.242 269,278.5C 268.5,291.829 268.333,305.163 268.5,318.5C 266.833,318.5 265.167,318.5 263.5,318.5C 263.5,286.167 263.5,253.833 263.5,221.5C 265.167,221.5 266.833,221.5 268.5,221.5 Z"/></g>
<g><path style="opacity:1" fill="#959799" d="M 312.5,275.5 C 313.496,289.99 313.829,304.657 313.5,319.5C 311.5,319.5 309.5,319.5 307.5,319.5C 307.5,306.5 307.5,293.5 307.5,280.5C 308.495,292.989 308.829,305.656 308.5,318.5C 309.833,318.5 311.167,318.5 312.5,318.5C 312.5,304.167 312.5,289.833 312.5,275.5 Z"/></g>
<g><path style="opacity:1" fill="#7c7e81" d="M 459.5,258.5 C 481.522,257.856 492.856,268.523 493.5,290.5C 476.167,290.5 458.833,290.5 441.5,290.5C 441.855,302.384 447.522,310.55 458.5,315C 469.781,317.267 479.447,314.434 487.5,306.5C 489.946,307.427 490.779,309.094 490,311.5C 478.835,320.794 466.335,322.961 452.5,318C 438.759,309.677 433.259,297.51 436,281.5C 439.779,269.553 447.612,261.886 459.5,258.5 Z"/></g>
<g><path style="opacity:1" fill="#fcfcfc" d="M 458.5,263.5 C 475.395,261.246 485.395,268.413 488.5,285C 472.837,285.5 457.17,285.667 441.5,285.5C 442.868,274.732 448.534,267.399 458.5,263.5 Z"/></g>
<g><path style="opacity:1" fill="#7c7e81" d="M 351.5,258.5 C 370.566,257.41 382.399,266.077 387,284.5C 387.775,306.059 377.442,318.059 356,320.5C 334.314,317.163 324.647,304.497 327,282.5C 330.449,269.55 338.615,261.55 351.5,258.5 Z"/></g>
<g><path style="opacity:1" fill="#fdfdfd" d="M 350.5,263.5 C 371.937,262.77 382.104,273.104 381,294.5C 376.738,310.724 366.238,317.557 349.5,315C 333.279,306.701 328.446,293.868 335,276.5C 338.869,270.452 344.035,266.118 350.5,263.5 Z"/></g>
<g><path style="opacity:1" fill="#cbcccc" d="M 196.5,308.5 C 195.833,325.167 195.167,341.833 194.5,358.5C 194.333,341.163 194.5,323.83 195,306.5C 195.717,307.044 196.217,307.711 196.5,308.5 Z"/></g>
<g><path style="opacity:1" fill="#797b7e" d="M 80.5,260.5 C 80.5,279.833 80.5,299.167 80.5,318.5C 78.8333,318.5 77.1667,318.5 75.5,318.5C 75.665,315.15 75.4983,311.817 75,308.5C 74.2828,309.044 73.7828,309.711 73.5,310.5C 66.5041,318.949 57.5041,322.116 46.5,320C 38,318.167 32.8333,313 31,304.5C 30.5001,289.837 30.3334,275.17 30.5,260.5C 32.1667,260.5 33.8333,260.5 35.5,260.5C 35.3334,274.171 35.5001,287.837 36,301.5C 37.7123,310.717 43.2123,315.384 52.5,315.5C 65.3382,315.496 72.8382,309.162 75,296.5C 75.4999,284.505 75.6665,272.505 75.5,260.5C 77.1667,260.5 78.8333,260.5 80.5,260.5 Z"/></g>
</svg>
